<svg width="383" height="470" viewBox="0 0 383 470" fill="none" xmlns="http://www.w3.org/2000/svg">
<path d="M71.5 312.5C53.5 342.5 46.4634 438.117 49.9309 470H181.001C147.714 440.89 141.472 332.766 147.714 305.735C152.707 284.111 177.534 277.318 189.323 276.625C253.818 268.308 291.266 249.594 330.795 218.405C370.324 187.215 384.887 137.312 382.807 133.154C380.726 128.995 363.478 172.959 309.99 158.105C261 144.5 227.385 147.709 204.5 158.105C186.192 166.422 161.515 176.807 152.5 177.5C121.293 98.4867 89.9485 83.8723 52.5 61C15.0515 38.1277 14.5633 2.15835 12.4828 0.079051C10.4023 -2.00025 0 37.1776 0 89.4889C1.44489e-06 160.184 75.4546 236.164 79.058 241.278C88.5 258 93.104 276.493 71.5 312.5Z" fill="#044645"/>
</svg>
