<svg width="392" height="493" viewBox="0 0 392 493" fill="none" xmlns="http://www.w3.org/2000/svg">
<path d="M9.34665 488.862C34.3638 484.548 52.4562 462.5 51.6378 437.144C51.3482 428.063 50.8698 419.611 51.5245 412.768C54.1181 385.576 59.2424 364.961 61.5968 356.17C64.971 343.567 68.5844 332.939 71.6691 324.726L81.5525 305.809C85.0023 299.194 87.2056 291.999 88.024 284.591C88.855 277.07 87.9988 269.46 85.4933 262.316C82.1695 252.846 77.2844 244.004 71.027 236.155L53.136 213.717C35.3584 191.417 20.9046 166.677 10.1902 140.252L4.92742 127.272C1.60356 112.242 0.3697 96.8344 1.30139 81.4773L2.74928 57.4292C3.3788 46.9899 4.88965 36.6134 7.26923 26.4382L12.4942 4L16.0825 16.5398C18.7013 25.6962 23.1331 34.2363 29.1262 41.6444L33.9105 47.5684C40.9863 56.3349 49.5352 63.7934 59.1794 69.6168L65.462 73.4152C76.3023 79.9554 86.5635 87.4139 96.1322 95.7025L100.325 99.3374C113.054 110.355 124.058 123.209 132.984 137.472C136.598 143.245 139.783 149.27 142.503 155.508L156.025 186.399L191.479 173.834C193.859 172.991 196.226 172.086 198.555 171.105L207.771 167.268C219.38 162.439 231.605 159.219 244.094 157.722C252.492 156.716 260.991 156.703 269.401 157.697L289.722 160.087C296.269 160.854 302.778 161.973 309.212 163.432L323.25 166.614C325.907 167.218 328.626 167.52 331.359 167.52H339.756C347.26 167.52 354.676 165.772 361.387 162.413L365.025 160.59C372.491 156.854 379.114 151.622 384.452 145.22L388.934 139.849L385.17 153.031C381.002 167.621 374.38 181.38 365.592 193.757L358.503 203.73C353.644 210.585 347.827 216.71 341.242 221.93L321.828 237.338C312.888 244.431 303.08 250.343 292.63 254.933L259.958 269.297C250.276 273.548 240.242 276.932 229.968 279.409L215.993 282.78C211.271 283.925 206.5 284.893 201.703 285.685L180.601 289.195C174.419 290.226 168.678 293.043 164.095 297.294L163.138 298.187C156.83 304.036 152.197 311.469 149.73 319.695L148.911 343.24C148.609 351.856 148.81 360.484 149.49 369.074L150.359 380.004C151.618 395.952 154.212 411.775 158.09 427.295C161.741 441.86 166.966 455.997 173.689 469.43C174.432 470.902 175.275 472.31 176.22 473.656C179.103 477.744 183.031 480.976 187.438 483.341L189.163 484.271C200.784 490.535 214.066 493.025 227.173 491.39" stroke="white" stroke-width="2" stroke-miterlimit="10"/>
</svg>
