<svg width="61" height="61" viewBox="0 0 61 61" fill="none" xmlns="http://www.w3.org/2000/svg">
<path id="Vector" d="M18.3716 0H43.5884C53.1948 0 61 7.8052 61 17.4116V42.6284C61 47.2462 59.1655 51.675 55.9002 54.9403C52.6349 58.2056 48.2062 60.04 43.5884 60.04H18.3716C8.76516 60.04 0.959961 52.2348 0.959961 42.6284V17.4116C0.959961 12.7938 2.79439 8.36505 6.0597 5.09974C9.32501 1.83443 13.7537 0 18.3716 0ZM17.7712 6.004C14.9049 6.004 12.1561 7.14261 10.1293 9.16936C8.10257 11.1961 6.96396 13.945 6.96396 16.8112V43.2288C6.96396 49.2028 11.7972 54.036 17.7712 54.036H44.1888C47.055 54.036 49.8039 52.8974 51.8306 50.8706C53.8574 48.8439 54.996 46.095 54.996 43.2288V16.8112C54.996 10.8372 50.1627 6.004 44.1888 6.004H17.7712ZM46.7405 10.507C47.7357 10.507 48.6902 10.9024 49.3939 11.6061C50.0976 12.3098 50.493 13.2643 50.493 14.2595C50.493 15.2547 50.0976 16.2092 49.3939 16.9129C48.6902 17.6166 47.7357 18.012 46.7405 18.012C45.7452 18.012 44.7908 17.6166 44.087 16.9129C43.3833 16.2092 42.988 15.2547 42.988 14.2595C42.988 13.2643 43.3833 12.3098 44.087 11.6061C44.7908 10.9024 45.7452 10.507 46.7405 10.507ZM30.98 15.01C34.9609 15.01 38.7787 16.5914 41.5936 19.4063C44.4086 22.2212 45.99 26.0391 45.99 30.02C45.99 34.0009 44.4086 37.8188 41.5936 40.6337C38.7787 43.4486 34.9609 45.03 30.98 45.03C26.9991 45.03 23.1812 43.4486 20.3663 40.6337C17.5514 37.8188 15.97 34.0009 15.97 30.02C15.97 26.0391 17.5514 22.2212 20.3663 19.4063C23.1812 16.5914 26.9991 15.01 30.98 15.01ZM30.98 21.014C28.5914 21.014 26.3007 21.9628 24.6118 23.6518C22.9228 25.3407 21.974 27.6315 21.974 30.02C21.974 32.4085 22.9228 34.6993 24.6118 36.3882C26.3007 38.0772 28.5914 39.026 30.98 39.026C33.3685 39.026 35.6592 38.0772 37.3482 36.3882C39.0371 34.6993 39.986 32.4085 39.986 30.02C39.986 27.6315 39.0371 25.3407 37.3482 23.6518C35.6592 21.9628 33.3685 21.014 30.98 21.014Z" fill="white"/>
</svg>
