<?xml version="1.0" encoding="utf-8"?>
<!-- Generator: Adobe Illustrator 28.0.0, SVG Export Plug-In . SVG Version: 6.00 Build 0)  -->
<svg version="1.1" id="Lag_1" xmlns="http://www.w3.org/2000/svg" xmlns:xlink="http://www.w3.org/1999/xlink" x="0px" y="0px"
	 viewBox="0 0 149.6 50" style="enable-background:new 0 0 149.6 50;" xml:space="preserve">
<style type="text/css">
	.st0{fill:#FF1054;}
	.st1{fill:#FFFFFF;}
</style>
<g id="Layer_2">
	<g id="Layer_1-2">
		<rect class="st0" width="149.6" height="50"/>
		<path class="st1" d="M97.5,31.2c0.7,0,1.3-0.1,1.9-0.3c0.6-0.3,1-0.7,1.4-1.2h0.1l0.5,1.4h1.9v-6.7c0.1-1-0.3-2-1.1-2.7
			c-0.9-0.6-2-1-3.1-0.9c-1.3,0-2.7,0.3-3.8,0.9l0.9,1.8c0.9-0.4,1.8-0.7,2.8-0.7c0.7-0.1,1.4,0.4,1.6,1.1c0,0.1,0,0.3,0,0.4v0.4
			l-1.7,0.1c-1.2,0-2.3,0.3-3.4,0.8c-0.8,0.5-1.2,1.4-1.1,2.4c-0.1,0.9,0.2,1.7,0.8,2.4C95.9,31,96.7,31.3,97.5,31.2z M97.8,26.9
			c0.5-0.3,1.2-0.5,1.8-0.4l1.1,0v0.8c0,0.5-0.2,1.1-0.6,1.5c-0.4,0.4-1,0.6-1.5,0.5c-0.9,0-1.3-0.4-1.3-1.2
			C97.2,27.6,97.4,27.1,97.8,26.9z"/>
		<path class="st1" d="M108,26.3c-0.1-0.9,0.1-1.8,0.5-2.5c0.4-0.5,1-0.8,1.7-0.8c0.5,0,0.9,0.2,1.2,0.5c0.3,0.5,0.4,1.1,0.4,1.6V31
			h2.7v-6.5c0.1-1-0.3-2-0.9-2.7c-0.7-0.7-1.7-1-2.7-0.9c-0.6,0-1.3,0.1-1.8,0.4c-0.5,0.2-1,0.6-1.3,1.1h-0.2l-0.4-1.3h-2.1v10h2.7
			V26.3z"/>
		<path class="st1" d="M116.1,34.7c1,0.5,2.1,0.8,3.2,0.7c1.5,0.1,2.9-0.2,4.2-1c0.9-0.6,1.5-1.6,1.5-2.7c0.1-0.8-0.3-1.6-0.9-2.1
			c-0.7-0.5-1.6-0.8-2.5-0.7h-1.7c-1,0-1.5-0.2-1.5-0.6c0-0.3,0.2-0.6,0.4-0.7l0.4,0l0.5,0c1.1,0.1,2.2-0.3,3.1-0.9
			c0.8-0.6,1.2-1.5,1.1-2.5c0-0.5-0.1-1.1-0.4-1.5l1.6-0.4V21h-3.5c-0.1,0-0.4-0.1-0.7-0.1c-0.3,0-0.7-0.1-1-0.1
			c-1.1-0.1-2.2,0.2-3.1,0.9c-0.7,0.6-1.1,1.6-1.1,2.5c0,0.6,0.1,1.2,0.5,1.8c0.3,0.5,0.7,0.9,1.3,1.1c-0.4,0.2-0.7,0.4-1,0.7
			c-0.4,0.5-0.4,1.3,0,1.8c0.2,0.3,0.4,0.5,0.7,0.6c-0.6,0.1-1.2,0.4-1.7,0.9c-0.4,0.4-0.6,1-0.6,1.5
			C114.9,33.5,115.4,34.3,116.1,34.7z M119.8,22.5c1,0,1.5,0.6,1.5,1.8c0,0.5-0.1,0.9-0.4,1.3c-0.3,0.3-0.7,0.5-1.1,0.5
			c-0.4,0-0.9-0.1-1.1-0.5c-0.3-0.4-0.4-0.8-0.4-1.3C118.3,23.1,118.8,22.5,119.8,22.5z M117.8,31.5c0.4-0.2,0.8-0.4,1.3-0.4h1.4
			c0.5,0,1,0,1.5,0.2c0.3,0.1,0.5,0.4,0.5,0.8c0,0.5-0.4,0.9-0.8,1.1c-0.7,0.3-1.5,0.4-2.3,0.4c-0.5,0-1.1-0.1-1.5-0.3
			c-0.3-0.2-0.5-0.5-0.5-0.9C117.3,32.1,117.5,31.7,117.8,31.5L117.8,31.5z"/>
		<path class="st1" d="M86.7,26.3c-0.1-0.9,0.1-1.8,0.5-2.5c0.4-0.5,1-0.8,1.7-0.8c1.1,0,1.6,0.7,1.6,2.2V31h2.7v-6.5
			c0.1-1-0.3-2-0.9-2.7c-0.7-0.7-1.7-1-2.7-1c-1.2-0.1-2.3,0.5-2.9,1.5h-0.1l0.1-0.8c0-0.8,0.1-1.3,0.1-1.6v-2.8H84v14h2.7V26.3z"/>
		<path class="st1" d="M78.6,31.2c0.6,0,1.1,0,1.7-0.2c0.5-0.1,0.9-0.3,1.3-0.6v-2.3c-0.4,0.3-0.9,0.5-1.3,0.7
			c-0.5,0.1-1,0.2-1.5,0.2c-1.4,0-2.1-1-2.1-2.9c0-2,0.7-3,2.1-3c0.4,0,0.8,0.1,1.1,0.2c0.4,0.1,0.8,0.3,1.2,0.4l0.8-2.1
			c-1-0.5-2-0.7-3.1-0.7c-1.4-0.1-2.7,0.4-3.7,1.4c-0.9,1.1-1.4,2.5-1.3,3.9C73.9,29.5,75.5,31.2,78.6,31.2z"/>
		<path class="st1" d="M130.3,31.2c0.7,0,1.3,0,2-0.2c0.5-0.1,1-0.3,1.5-0.5v-2.1c-0.5,0.3-1.1,0.5-1.7,0.6
			c-0.6,0.1-1.1,0.2-1.7,0.2c-0.7,0-1.3-0.2-1.8-0.7c-0.5-0.5-0.7-1.1-0.7-1.8h6.5v-1.3c0.1-1.2-0.4-2.4-1.2-3.3
			c-0.9-0.8-2.1-1.3-3.3-1.2c-1.3-0.1-2.6,0.4-3.5,1.4c-0.9,1.1-1.4,2.5-1.3,3.9c-0.1,1.4,0.4,2.8,1.4,3.8
			C127.5,30.8,128.9,31.3,130.3,31.2z M128.5,23.3c0.4-0.4,0.9-0.6,1.4-0.6c0.5,0,1,0.2,1.4,0.6c0.4,0.4,0.6,1,0.5,1.6H128
			C128,24.3,128.2,23.8,128.5,23.3L128.5,23.3z"/>
		<rect x="56.6" y="21" class="st1" width="2.7" height="10"/>
		<path class="st1" d="M66.3,31.2c0.6,0,1.1,0,1.7-0.2c0.5-0.1,0.9-0.3,1.3-0.6v-2.3c-0.4,0.3-0.9,0.5-1.3,0.7
			c-0.5,0.1-1,0.2-1.5,0.2c-1.4,0-2.1-1-2.1-2.9c0-2,0.7-3,2.1-3c0.4,0,0.8,0.1,1.1,0.2c0.4,0.1,0.8,0.3,1.2,0.4l0.8-2.1
			c-1-0.5-2-0.7-3.1-0.7c-1.4-0.1-2.7,0.4-3.6,1.3c-0.9,1.1-1.4,2.5-1.3,3.9C61.6,29.5,63.2,31.2,66.3,31.2z"/>
		<rect x="25.3" y="17.1" class="st1" width="2.7" height="14"/>
		<path class="st1" d="M33.3,31.2c0.7,0,1.3-0.1,1.9-0.3c0.6-0.3,1-0.7,1.4-1.2h0.1l0.5,1.4h1.9v-6.7c0.1-1-0.3-2-1.1-2.7
			c-0.9-0.6-2-1-3.1-0.9c-1.3,0-2.7,0.3-3.8,0.9l0.9,1.8c0.9-0.4,1.8-0.7,2.8-0.7c0.7-0.1,1.4,0.4,1.6,1.1c0,0.1,0,0.3,0,0.4v0.4
			l-1.7,0.1c-1.2,0-2.3,0.3-3.4,0.8c-0.8,0.5-1.2,1.4-1.1,2.4c-0.1,0.9,0.2,1.7,0.8,2.4C31.7,31,32.5,31.3,33.3,31.2z M33.6,26.9
			c0.5-0.3,1.2-0.5,1.8-0.4l1.1,0v0.8c0,0.5-0.2,1.1-0.6,1.5c-0.4,0.4-1,0.6-1.5,0.5c-0.9,0-1.3-0.4-1.3-1.2
			C33,27.6,33.2,27.1,33.6,26.9z"/>
		<path class="st1" d="M17.3,31.4c0-0.1,0-0.6-0.1-1.5h0.1c0.7,0.9,1.7,1.3,2.8,1.3c0.7,0,1.4-0.2,2-0.6c0.6-0.5,1.1-1.1,1.3-1.8
			C23.8,27.9,24,27,24,26c0.1-1.3-0.3-2.7-1-3.8c-0.6-0.9-1.7-1.4-2.8-1.4c-1.1-0.1-2.2,0.5-2.8,1.5h-0.1L16.8,21h-2.2v14.5h2.7
			V31.4z M17.3,25.7c0-0.7,0.1-1.4,0.5-2.1c0.4-0.4,0.9-0.7,1.5-0.6c0.6,0,1.1,0.2,1.4,0.7c0.3,0.7,0.5,1.5,0.5,2.2c0,2-0.6,3-1.8,3
			c-0.6,0-1.2-0.2-1.5-0.7c-0.4-0.7-0.5-1.5-0.5-2.3V25.7z"/>
		<path class="st1" d="M58,19.8c0.4,0,0.8-0.1,1.1-0.4c0.3-0.3,0.4-0.6,0.4-1c0-0.9-0.5-1.3-1.5-1.3c-1,0-1.5,0.4-1.5,1.3
			C56.5,19.3,57,19.8,58,19.8z"/>
		<path class="st1" d="M49.5,27.9c-0.1,0.9,0.2,1.8,0.7,2.5c0.6,0.6,1.5,0.9,2.4,0.8c0.9,0,1.7-0.1,2.5-0.5v-2
			C54.6,28.9,54,29,53.4,29c-0.3,0-0.6-0.1-0.9-0.3c-0.2-0.2-0.4-0.5-0.3-0.9v-4.8H55V21h-2.8v-2.1h-1.8L49.7,21l-1.5,0.9v1.2h1.3
			V27.9z"/>
		<path class="st1" d="M41.4,25.9c0.5,0.4,1.1,0.7,1.7,0.9c0.5,0.2,1,0.4,1.3,0.6c0.2,0.1,0.5,0.3,0.7,0.5c0.1,0.1,0.2,0.3,0.2,0.5
			c0,0.6-0.5,0.9-1.5,0.9c-0.6,0-1.1-0.1-1.7-0.2c-0.6-0.1-1.2-0.3-1.7-0.6v2.3c0.5,0.2,0.9,0.3,1.4,0.4c0.6,0.1,1.2,0.2,1.9,0.1
			c1.1,0.1,2.3-0.2,3.2-0.8c0.7-0.6,1.1-1.4,1.1-2.4c0-0.4-0.1-0.9-0.3-1.3c-0.2-0.4-0.5-0.7-0.8-1c-0.5-0.4-1.1-0.7-1.7-0.9
			c-0.6-0.2-1.2-0.5-1.7-0.8c-0.2-0.1-0.4-0.4-0.4-0.6c0-0.4,0.4-0.7,1.2-0.7c0.5,0,0.9,0.1,1.3,0.2c0.5,0.2,0.9,0.3,1.4,0.5l0.8-2
			c-1.1-0.5-2.3-0.8-3.5-0.8c-1-0.1-2.1,0.2-2.9,0.7c-0.7,0.5-1.1,1.2-1,2.1c0,0.5,0.1,0.9,0.2,1.3C40.8,25.3,41.1,25.6,41.4,25.9z"
			/>
	</g>
</g>
</svg>
