<svg width="76" height="76" viewBox="0 0 76 76" fill="none" xmlns="http://www.w3.org/2000/svg">
<path id="Vector" d="M22.04 0.279297H53.96C66.12 0.279297 76 10.0596 76 22.097V53.695C76 59.4814 73.6779 65.0308 69.5446 69.1224C65.4113 73.214 59.8054 75.5126 53.96 75.5126H22.04C9.88 75.5126 0 65.7323 0 53.695V22.097C0 16.3106 2.32207 10.7612 6.45537 6.66955C10.5887 2.57794 16.1946 0.279297 22.04 0.279297ZM21.28 7.80263C17.6518 7.80263 14.1723 9.22938 11.6068 11.769C9.04128 14.3086 7.6 17.7531 7.6 21.3446V54.4473C7.6 61.933 13.718 67.9893 21.28 67.9893H54.72C58.3482 67.9893 61.8277 66.5626 64.3932 64.023C66.9587 61.4833 68.4 58.0389 68.4 54.4473V21.3446C68.4 13.8589 62.282 7.80263 54.72 7.80263H21.28ZM57.95 13.4451C59.2098 13.4451 60.418 13.9405 61.3088 14.8223C62.1996 15.7042 62.7 16.9001 62.7 18.1472C62.7 19.3943 62.1996 20.5903 61.3088 21.4721C60.418 22.3539 59.2098 22.8493 57.95 22.8493C56.6902 22.8493 55.482 22.3539 54.5912 21.4721C53.7004 20.5903 53.2 19.3943 53.2 18.1472C53.2 16.9001 53.7004 15.7042 54.5912 14.8223C55.482 13.9405 56.6902 13.4451 57.95 13.4451ZM38 19.0876C43.0391 19.0876 47.8718 21.0692 51.435 24.5965C54.9982 28.1237 57 32.9077 57 37.896C57 42.8843 54.9982 47.6682 51.435 51.1955C47.8718 54.7227 43.0391 56.7043 38 56.7043C32.9609 56.7043 28.1282 54.7227 24.565 51.1955C21.0018 47.6682 19 42.8843 19 37.896C19 32.9077 21.0018 28.1237 24.565 24.5965C28.1282 21.0692 32.9609 19.0876 38 19.0876ZM38 26.611C34.9765 26.611 32.0769 27.7999 29.939 29.9163C27.8011 32.0326 26.6 34.903 26.6 37.896C26.6 40.8889 27.8011 43.7593 29.939 45.8757C32.0769 47.992 34.9765 49.181 38 49.181C41.0235 49.181 43.9231 47.992 46.061 45.8757C48.1989 43.7593 49.4 40.8889 49.4 37.896C49.4 34.903 48.1989 32.0326 46.061 29.9163C43.9231 27.7999 41.0235 26.611 38 26.611Z" fill="#FF1054"/>
</svg>
