<svg width="238" height="223" viewBox="0 0 238 223" fill="none" xmlns="http://www.w3.org/2000/svg">
<g id="circle">
<rect x="18" width="220" height="223" rx="110" fill="#E93858"/>
<g id="banana">
<path id="Vector" d="M125.305 22.6873C125.305 22.6873 137.818 18.4919 142.823 20.5852C147.828 22.6786 149.496 24.7807 149.496 26.8827C149.496 28.9847 136.983 43.7508 137.4 54.209C137.4 54.209 136.983 57.3145 140.32 60.4632C143.657 63.6119 152.416 70.4284 155.752 97.7115C159.089 124.995 169.099 135.487 171.602 138.636C174.104 141.785 191.622 155.426 219.984 159.622C248.346 163.817 237.502 180.607 224.155 186.905C210.808 193.202 156.587 193.202 142.406 178.514C128.225 163.826 126.556 158.575 126.556 158.575C126.556 158.575 118.214 181.663 97.36 185.858C76.5056 190.054 22.2841 191.109 13.9423 183.756C5.60056 176.403 -3.57539 160.669 1.42967 142.832C6.43473 124.995 9.77144 121.846 17.279 132.339C24.7866 142.832 36.4651 157.52 36.4651 157.52L62.3246 149.129C62.3246 149.129 46.4752 140.738 42.3043 130.245C38.1334 119.752 39.8352 106.898 41.4868 105.454C43.1385 104.009 58.9879 121.846 72.3347 117.65C85.6815 113.455 94.8575 102.962 97.36 94.5628C99.8625 86.172 102.365 65.1863 114.878 57.8335L118.732 55.4633L125.305 22.6873Z" fill="#FEC246"/>
<path id="Vector_2" d="M126.556 158.567C114.46 184.197 97.3597 185.85 97.3597 185.85C63.5755 193.782 36.4648 157.52 36.4648 157.52L62.3242 149.129C102.782 137.633 110.289 87.9626 111.124 71.527C111.958 55.0914 129.842 56.0516 129.842 56.0516L134.756 26.8914H149.504C149.504 26.8914 139.394 42.3754 137.984 49.3822C136.574 56.3889 138.243 58.491 140.328 60.4719C142.414 62.4528 146.593 66.8212 147.427 68.9579C148.261 71.0945 126.564 158.575 126.564 158.575L126.556 158.567Z" fill="#FEC343"/>
<path id="Vector_3" d="M131.144 139.916L126.556 158.566C126.556 158.566 135.715 177.225 146.776 181.896C157.838 186.567 174.087 193.09 202.249 190.694C202.249 190.694 216.822 189.015 220.484 188.012C224.146 187.009 131.144 139.916 131.144 139.916Z" fill="#F38027"/>
<path id="Vector_4" d="M125.305 22.6873C125.305 22.6873 137.817 18.4919 142.823 20.5852C147.828 22.6873 149.496 24.7807 149.496 26.8827C149.496 26.8827 142.823 30.8618 136.983 29.1318C131.144 27.4017 126.139 27.8775 125.305 25.9052C124.471 23.9329 125.305 22.6786 125.305 22.6786V22.6873Z" fill="#743233"/>
<path id="Vector_5" d="M140.32 60.4543C143.657 63.603 152.415 70.4195 155.752 97.7026C159.089 124.986 169.099 135.479 171.602 138.627C174.104 141.776 191.622 155.418 219.984 159.613C248.346 163.808 237.501 180.599 224.155 186.896C210.808 193.193 163.677 179.647 150.405 165.807C150.405 165.807 124.471 151.966 125.305 101.794C126.139 51.6223 140.32 60.4543 140.32 60.4543Z" fill="#FDA935"/>
<path id="Vector_6" d="M36.4648 157.52L48.1099 153.74C48.1099 153.74 64.7851 176.706 94.6319 186.394C94.6319 186.394 77.8566 189.647 62.3743 179.889C46.892 170.132 36.4648 157.52 36.4648 157.52Z" fill="#FBA632"/>
<path id="Vector_7" d="M62.3243 149.12C90.2692 134.665 96.1084 103.524 97.3597 94.554C97.3597 94.554 80.526 119.173 67.4628 118.264C54.3996 117.356 48.5937 108.221 41.4865 105.436C41.4865 105.436 36.9153 115.963 41.4865 127.901C46.0578 139.838 53.5654 143.67 62.3243 149.112V149.12Z" fill="#FFA930"/>
<path id="Vector_8" d="M79.5586 135.583C79.5586 135.583 59.3965 135.531 51.0547 131.206C42.713 126.881 39.443 119.312 39.443 119.312C39.443 119.312 40.6776 133.109 48.7858 139.51C56.894 145.911 62.3161 149.121 62.3161 149.121C62.3161 149.121 71.3503 145.15 79.5586 135.583Z" fill="#F38027"/>
<path id="Vector_9" d="M90.8699 186.913C90.8699 186.913 74.1781 190.417 48.4437 169.466C48.4437 169.466 37.7162 159.751 26.3797 144.561C16.1611 130.868 13.3582 126.854 10.9391 126.43C8.52002 126.006 2.68078 126.88 0.144884 149.951C0.144884 149.951 -1.59855 164.284 7.01016 175.633C15.6189 186.983 13.1664 184.543 19.3977 186.195C25.629 187.848 42.5544 190.2 54.1995 189.803C65.1439 189.604 82.2195 188.297 90.8783 186.905L90.8699 186.913Z" fill="#FFDC84"/>
</g>
</g>
</svg>
