<svg width="221" height="255" viewBox="0 0 221 255" fill="none" xmlns="http://www.w3.org/2000/svg">
<rect y="35" width="221" height="220" rx="110" fill="#E93858"/>
<g clip-path="url(#clip0_435_438)">
<path d="M70 8.41663C70 8.41663 79.9235 89.8142 79.9235 98.6844C79.9235 107.555 77.8343 149.297 77.8343 158.689C77.8343 168.081 76.2675 180.604 77.3121 183.734C78.3566 186.865 86.191 200.953 87.2356 201.997C88.2801 203.04 92.4585 217.128 92.4585 217.128C92.4585 217.128 103.949 214.519 104.993 213.476C106.038 212.432 134.242 211.389 135.286 210.867C136.331 210.345 117.79 179.821 114.133 170.951C114.133 170.951 118.834 132.339 119.356 128.687C119.879 125.034 119.879 97.38 119.879 93.7275C119.879 90.0751 106.821 0.850834 106.821 0.850834C96.3756 -1.75806 72.3503 1.89439 70 8.41663Z" fill="white"/>
<path d="M119.879 93.7275C119.879 90.0751 106.821 0.850834 106.821 0.850834C96.3756 -1.75806 72.3503 1.89439 70 8.41663C70 8.41663 79.9235 89.8142 79.9235 98.6844C79.9235 98.6844 85.0472 98.1627 90.3693 97.6409C95.6914 97.1191 98.7259 98.6844 104.993 98.6844C108.127 98.6844 113.872 95.5538 115.961 95.032C118.051 94.5102 119.879 93.7275 119.879 93.7275Z" fill="#FB8A3B"/>
<path d="M106.853 0.782515C106.822 0.636417 106.19 5.4994 93.6494 8.21265L106.038 98.4804C106.038 98.4804 110.305 97.2334 112.609 96.0333C114.912 94.8332 117.278 94.3688 117.278 94.3688L119.874 93.4348C120.129 93.3983 107.109 0.751209 106.848 0.787733L106.853 0.782515Z" fill="#DD7A3A"/>
<path d="M106.821 0.850834C96.3756 -1.75806 72.3503 1.89439 70 8.41663C70.5223 13.6344 108.127 8.41663 106.821 0.850834Z" fill="#FC9A3E"/>
<path d="M106.2 15.5909C106.2 15.5909 107.302 20.4539 104.079 17.6884C100.857 14.923 100.893 12.528 101.442 12.1889C101.99 11.8497 104.189 10.4983 106.195 15.5909H106.2Z" fill="#FE9955"/>
<path d="M79.5738 40.6622C79.5738 40.6622 80.8847 38.7472 81.9345 40.3908C82.9843 42.0344 81.9345 42.8536 81.4122 42.8536C80.8899 42.8536 78.7903 42.8536 79.579 40.6622H79.5738Z" fill="#FE9955"/>
<path d="M90.3691 61.6378C90.3691 61.6378 92.9805 57.9854 95.0697 61.1161C97.1588 64.2467 95.0697 65.8121 94.0251 65.8121C92.9805 65.8121 88.8022 65.8121 90.3691 61.6378Z" fill="#FE9955"/>
<path d="M95.3052 89.8086C95.3052 89.8086 97.2376 93.8576 93.4876 94.1707C89.7376 94.4838 89.3772 91.8957 89.8786 90.9826C90.38 90.0695 92.4065 86.417 95.3052 89.8086Z" fill="#FE9955"/>
<path d="M82.0127 91.3793C82.0127 91.3793 82.6342 90.3358 83.3706 91.3793C84.1071 92.4229 84.2063 93.0125 83.3706 93.2369C82.535 93.4612 82.0127 93.1377 82.0127 92.7777V91.3741V91.3793Z" fill="#FE9955"/>
<path d="M98.0207 82.4617C98.0207 82.4617 97.347 83.474 96.668 82.3939C95.989 81.3138 95.9211 80.719 96.762 80.5364C97.6029 80.3537 98.1095 80.7033 98.0939 81.0634L98.0207 82.4617Z" fill="#FE9955"/>
<path d="M89.8468 33.9832C88.6769 33.9832 88.8022 33.7275 88.8022 33.2162C88.8022 32.7048 89.3245 31.6821 89.8468 31.9378C90.3691 32.1935 90.3691 32.7048 90.3691 32.9605C90.3691 33.2162 90.3691 33.9832 89.8468 33.9832Z" fill="#FE9955"/>
<path d="M77.2127 20.3648C75.8234 21.4188 75.7555 21.0223 75.3324 20.464C74.9094 19.9057 74.6743 18.3038 75.5048 18.116C76.3352 17.9281 76.7687 18.4864 76.9776 18.7682C77.1865 19.0499 77.8342 19.8952 77.2127 20.3648Z" fill="#FE9955"/>
<path d="M82.8902 16.4985C81.3443 15.9036 81.6002 15.7314 81.783 15.2566C81.9658 14.7818 83.0208 14.1087 83.6214 14.6096C84.2221 15.1105 84.0393 15.5853 83.9505 15.8201C83.8617 16.0549 83.5849 16.7646 82.8955 16.4985H82.8902Z" fill="#FE9955"/>
<path d="M89.8887 18.2413C88.2644 17.9282 88.5255 17.4899 88.7083 16.5507C88.8911 15.6115 89.9775 13.874 90.6147 14.4845C91.2519 15.095 91.0691 16.0342 90.9803 16.5038C90.8915 16.9734 90.6199 18.3822 89.8887 18.2413Z" fill="#FE9955"/>
<path d="M99.2482 26.6785C98.0783 26.6785 98.2036 26.4228 98.2036 25.9115C98.2036 25.4001 98.7259 24.3775 99.2482 24.6331C99.7705 24.8888 99.7705 25.4001 99.7705 25.6558C99.7705 25.9115 99.7705 26.6785 99.2482 26.6785Z" fill="#FE9955"/>
<path d="M105.223 27.3097C105.39 26.1565 105.625 26.3131 106.137 26.3861C106.649 26.4592 107.584 27.1271 107.255 27.6019C106.926 28.0767 106.419 28.0089 106.163 27.9723C105.907 27.9358 105.15 27.8262 105.223 27.3097Z" fill="#FE9955"/>
<path d="M103.802 49.1725C104.696 48.9951 104.628 49.1464 104.68 49.4073C104.732 49.6682 104.434 50.2787 104.011 50.2213C103.588 50.1639 103.531 49.903 103.505 49.7726C103.479 49.6421 103.4 49.2456 103.802 49.1673V49.1725Z" fill="#FE9955"/>
<path d="M108.921 58.0322C109.814 57.8548 109.762 58.0688 109.84 58.4653C109.918 58.8619 109.673 59.7228 109.234 59.608C108.796 59.4932 108.717 59.0967 108.681 58.8984C108.644 58.7001 108.524 58.1105 108.926 58.0322H108.921Z" fill="#FE9955"/>
<path d="M87.0424 50.2314C87.8937 49.9027 87.8519 50.0645 87.9511 50.3254C88.0504 50.5863 87.8728 51.2489 87.4393 51.2646C87.0058 51.2802 86.9066 51.0246 86.8596 50.8941C86.8126 50.7637 86.6611 50.3775 87.0371 50.2314H87.0424Z" fill="#FE9955"/>
<path d="M105.526 34.4271C106.691 34.3593 106.639 35.5229 106.78 37.8343C106.921 40.1458 106.675 44.8105 106.085 43.6835C105.495 42.5564 105.354 40.245 105.286 39.0866C105.218 37.9283 105.009 34.4584 105.531 34.4271H105.526Z" fill="#FE9955"/>
<path d="M81.4904 66.8557C80.3204 66.8557 80.4458 66.3339 80.4458 65.2904C80.4458 64.2468 80.9681 62.1597 81.4904 62.6815C82.0127 63.2033 82.0127 64.2468 82.0127 64.7686C82.0127 65.2904 82.0127 66.8557 81.4904 66.8557Z" fill="#FE9955"/>
<path d="M106.769 69.1723C107.333 67.6122 107.971 68.0296 109.37 68.5305C110.77 69.0314 113.308 70.7376 112.358 71.1863C111.407 71.6351 110.013 71.1289 109.313 70.8785C108.613 70.628 106.519 69.8715 106.769 69.1723Z" fill="#FE9955"/>
<path d="M108.091 83.4793C109.172 83.3175 109.14 83.8863 109.302 84.982C109.464 86.0777 109.308 88.3475 108.743 87.8674C108.179 87.3874 108.012 86.2917 107.934 85.7438C107.856 85.1959 107.605 83.5471 108.091 83.4793Z" fill="#FE9955"/>
<path d="M131.63 203.358C131.63 203.358 112.305 190.835 109.172 190.835C106.038 190.835 98.2037 200.227 98.2037 200.227L101.337 191.357C111.783 171.53 104.993 168.399 103.949 167.877C102.904 167.355 83.5796 177.269 83.5796 177.269C83.5796 177.269 95.5922 169.442 102.382 162.659C109.172 155.876 105.516 133.961 102.382 129.265C99.2483 124.569 82.0127 125.091 82.0127 125.091C82.0127 125.091 97.1591 123.526 107.083 117.786C117.006 112.047 108.649 97.9587 108.649 97.9587C108.649 97.9587 115.142 95.1254 115.685 95.1098C116.228 95.0941 119.879 93.7271 119.879 93.7271L119.503 126.823L114.134 170.95L131.63 203.358Z" fill="#C8D7E7"/>
<path d="M72.089 219.533C72.089 219.533 82.5348 216.924 86.1908 216.924C86.1908 216.924 88.8023 214.837 90.3691 214.315C91.936 213.794 106.56 213.272 106.56 213.272L109.694 210.141H119.633C119.633 210.141 120.14 202.836 121.707 202.315C123.273 201.793 135.286 205.967 136.331 206.489C137.375 207.011 139.987 211.185 141.554 211.185C143.12 211.185 157.744 215.881 159.311 216.403C160.878 216.924 170.802 222.664 168.713 222.664C166.623 222.664 143.371 223.186 140.373 222.664C137.375 222.142 134.241 223.186 129.019 225.273C123.796 227.36 111.261 227.36 110.738 226.316C110.216 225.273 110.738 223.186 108.127 222.664C105.516 222.142 94.0252 223.708 89.8469 223.186C85.6685 222.664 85.6685 221.099 79.9234 221.099C74.1782 221.099 71.0444 221.099 71.0444 220.577C71.0444 220.055 72.089 219.533 72.089 219.533Z" fill="#627A86"/>
<path d="M71.0444 220.577C71.0444 220.055 72.089 219.533 72.089 219.533C72.089 219.533 82.5348 216.924 86.1908 216.924C86.1908 216.924 88.8023 214.837 90.3692 214.315C91.936 213.794 106.56 213.272 106.56 213.272L109.694 210.141H119.633C119.633 210.141 120.14 202.836 121.707 202.315C123.273 201.793 135.286 205.967 136.331 206.489C137.375 207.011 139.987 211.185 141.554 211.185C143.12 211.185 157.745 215.881 159.311 216.403C159.311 216.403 143.643 213.272 140.509 212.75C137.375 212.228 136.331 208.054 135.286 207.532C134.241 207.011 123.796 204.923 123.273 204.923C122.751 204.923 121.184 212.228 120.662 212.228C120.14 212.228 109.694 212.228 109.694 212.75C109.694 213.272 106.038 215.359 105.516 215.359C104.993 215.359 91.4137 215.881 90.3692 216.403C89.3246 216.924 86.7131 219.011 85.6685 219.011C84.624 219.011 71.0444 220.577 71.0444 220.577Z" fill="#455D67"/>
<path d="M106.142 218.297C105.025 218.667 103.531 218.667 103.907 219.043C104.283 219.419 105.401 220.535 106.889 220.16C108.378 219.784 110.618 219.043 109.871 218.667C109.125 218.292 106.142 218.297 106.142 218.297Z" fill="#D84726"/>
<path d="M132.701 214.65C133.819 214.284 135.312 214.29 134.942 213.914C134.571 213.538 133.458 212.416 131.964 212.782C130.471 213.147 128.23 213.883 128.977 214.258C129.724 214.634 132.706 214.65 132.706 214.65H132.701Z" fill="#D84726"/>
<path d="M140.269 218.631C139.804 219.366 138.921 219.935 139.345 220.107C139.768 220.279 141.032 220.796 141.716 219.919C142.4 219.043 143.324 217.566 142.682 217.535C142.04 217.504 140.269 218.636 140.269 218.636V218.631Z" fill="#D84726"/>
<path d="M124.981 219.121C125.686 218.897 126.621 218.902 126.391 218.672C126.162 218.443 125.456 217.754 124.522 217.978C123.587 218.203 122.176 218.652 122.641 218.886C123.106 219.121 124.981 219.126 124.981 219.126V219.121Z" fill="#D84726"/>
<path d="M118.641 215.396C119.346 215.171 120.281 215.176 120.051 214.947C119.821 214.717 119.116 214.028 118.181 214.253C117.246 214.477 115.836 214.926 116.301 215.161C116.766 215.396 118.641 215.401 118.641 215.401V215.396Z" fill="#661112"/>
<path d="M128.147 209.619C127.431 209.802 126.496 209.739 126.716 209.985C126.935 210.23 127.745 211.821 128.695 211.654C129.646 211.487 130.925 210.256 130.471 209.995C130.017 209.734 128.147 209.614 128.147 209.614V209.619Z" fill="#661112"/>
<path d="M134.346 218.38C134.848 218.156 135.511 218.156 135.349 217.926C135.187 217.697 134.686 217.008 134.017 217.232C133.349 217.457 132.346 217.911 132.68 218.14C133.014 218.37 134.346 218.375 134.346 218.375V218.38Z" fill="#D84726"/>
<path d="M149.399 219.012C149.665 219.012 150.459 219.278 150.459 219.544C150.459 219.81 149.926 220.337 149.665 220.337C149.404 220.337 149.132 219.805 149.132 219.544C149.132 219.283 149.399 219.012 149.399 219.012Z" fill="#CBA586"/>
<path d="M126.418 222.664C126.684 222.664 127.478 222.93 127.478 223.196C127.478 223.462 126.945 223.989 126.684 223.989C126.423 223.989 126.151 223.457 126.151 223.196C126.151 222.935 126.418 222.664 126.418 222.664Z" fill="#CBA586"/>
<path d="M114.927 221.099C115.194 221.099 115.988 221.365 115.988 221.631C115.988 221.897 115.455 222.424 115.194 222.424C114.933 222.424 114.661 221.892 114.661 221.631C114.661 221.37 114.927 221.099 114.927 221.099Z" fill="#CBA586"/>
<path d="M97.6917 217.446C97.958 217.446 98.7519 217.712 98.7519 217.979C98.7519 218.245 98.2192 218.772 97.958 218.772C97.6969 218.772 97.4253 218.239 97.4253 217.979C97.4253 217.718 97.6917 217.446 97.6917 217.446Z" fill="#455D67"/>
<path d="M94.4534 221.099C94.6153 221.099 95.0958 221.26 95.0958 221.422C95.0958 221.584 94.772 221.902 94.6153 221.902C94.4586 221.902 94.2915 221.579 94.2915 221.422C94.2915 221.266 94.4534 221.099 94.4534 221.099Z" fill="#455D67"/>
<path d="M89.6641 220.029C89.7581 220.159 89.8991 220.65 89.7685 220.739C89.638 220.827 89.1888 220.749 89.0948 220.619C89.0008 220.488 89.1731 220.17 89.3037 220.081C89.4343 219.992 89.6589 220.029 89.6589 220.029H89.6641Z" fill="#455D67"/>
<path d="M160.784 219.012C160.946 219.012 161.427 219.173 161.427 219.335C161.427 219.497 161.103 219.815 160.946 219.815C160.79 219.815 160.623 219.492 160.623 219.335C160.623 219.179 160.784 219.012 160.784 219.012Z" fill="#455D67"/>
<path d="M155.995 217.942C156.089 218.072 156.23 218.563 156.1 218.652C155.969 218.74 155.52 218.662 155.426 218.532C155.332 218.401 155.504 218.083 155.635 217.994C155.765 217.905 155.99 217.942 155.99 217.942H155.995Z" fill="#455D67"/>
</g>
<defs>
<clipPath id="clip0_435_438">
<rect width="99" height="227" fill="white" transform="translate(70)"/>
</clipPath>
</defs>
</svg>
