<svg width="221" height="240" viewBox="0 0 221 240" fill="none" xmlns="http://www.w3.org/2000/svg">
<rect y="20" width="221" height="220" rx="110" fill="#E93858"/>
<g clip-path="url(#clip0_435_441)">
<path d="M63.948 18.8931L56.7131 23.8471C56.7131 23.8471 54 67.0827 54 68.8842C54 70.6856 68.0176 86.4486 68.0176 86.4486C68.0176 86.4486 63.0436 102.662 63.948 106.715C64.8523 110.769 66.6611 119.326 66.6611 119.326C66.6611 119.326 58.974 135.089 58.974 136.44C58.974 137.791 63.0436 179.675 63.4958 181.477C63.948 183.278 69.3742 194.537 69.3742 194.537C69.3742 194.537 90.179 208.949 158.006 194.537L163.428 183.278C163.428 183.278 165.237 180.576 165.689 178.774C166.141 176.973 168.402 128.5 165.689 125.487C162.976 122.474 161.619 121.127 161.619 121.127C161.619 121.127 161.393 116.398 160.489 114.146C159.584 111.894 147.828 83.9715 148.28 82.1701C148.732 80.3686 159.584 71.3612 159.584 70.0101C159.584 68.659 164.106 44.7893 164.106 42.5375C164.106 40.2856 161.393 32.6294 160.941 31.7286C160.489 30.8279 63.948 18.8931 63.948 18.8931Z" fill="#044645"/>
<path opacity="0.8" d="M63.948 19.1455L56.7131 24.0996C56.7131 24.0996 54 67.3351 54 69.1366C54 70.9381 68.0176 86.701 68.0176 86.701C68.0176 86.701 63.0436 102.914 63.948 106.968C64.8523 111.021 66.6611 119.578 66.6611 119.578C66.6611 119.578 58.974 135.341 58.974 136.692C58.974 138.043 63.0436 179.928 63.4958 181.729C63.948 183.531 69.3742 194.79 69.3742 194.79C69.3742 194.79 81.1806 195.691 90.6538 194.79L85.2005 154.91L77.9656 137.345L84.2961 112.575L81.0766 97.3433L90.6538 75.3382L76.3196 22.0234L63.948 19.15" fill="#062525"/>
<path d="M63.0435 12.5879C63.0435 12.5879 63.4233 20.0461 63.9116 21.9466C64.4 23.8472 79.7742 36.0072 104.644 39.1598C129.514 42.3124 148.053 40.9613 159.81 37.8087L164.074 26.9863C164.074 26.9863 173.376 13.4887 120.923 4.03091C68.4696 -5.42686 63.0435 12.5879 63.0435 12.5879Z" fill="#A4A4A4"/>
<path d="M163.6 24.9689C158.798 33.5259 138.992 35.8048 110.744 32.1343C88.8858 28.5268 63.6496 18.7268 65.1689 10.0572C66.634 1.88745 87.5428 -0.675161 115.791 2.99536C144.038 6.66587 168.402 16.4119 163.595 24.9689H163.6Z" fill="#C8C8C8"/>
<path d="M65.7568 13.4662C65.7568 13.4662 81.556 3.60313 116.311 9.43092C151.07 15.2587 157.269 20.7397 161.619 27.6394C161.619 27.6394 155.094 35.0615 131.187 34.1292C107.285 33.1924 90.4957 29.2337 76.3198 22.0233C76.3198 22.0233 68.9447 18.686 65.7568 13.4662Z" fill="#848483"/>
<path d="M64.2915 183.553L69.374 194.538C78.0921 200.136 113.511 208.076 158.006 194.538L163.428 183.278C127.705 193.637 77.9655 192.286 64.2915 183.553Z" fill="#A0A09E"/>
<path d="M58.9741 136.44L66.6612 119.326C66.6612 119.326 84.3867 125.18 97.4547 127.883C110.523 130.585 127.706 129.684 127.706 129.684C127.706 129.684 84.2962 139.592 72.9917 139.142C61.6872 138.692 58.9741 136.44 58.9741 136.44Z" fill="#012322"/>
<path d="M161.619 121.127L165.689 125.487C165.689 125.487 149.41 145.898 141.723 149.951C134.036 154.004 113.688 163.228 113.688 163.228L148.054 140.493L161.619 121.127Z" fill="#012322"/>
<path d="M75.7046 144.096L109.166 139.16L114.655 147.843L75.7046 144.096Z" fill="#012322"/>
<path d="M63.8394 105.328L65.1009 97.3389C65.1009 97.3389 81.1308 101.311 98.3136 104.013L63.8394 105.324V105.328Z" fill="#012322"/>
<path d="M159.584 70.0102L148.28 82.1702C148.28 82.1702 105.549 72.9016 93.3398 67.5152L87.0093 62.5791L159.584 70.0102Z" fill="#012322"/>
<path d="M54 68.8843C54 68.8843 110.297 88.052 123.297 89.7274L115.497 91.4028L68.0176 86.4487C63.948 82.3954 55.3565 72.4872 54 68.8843Z" fill="#012322"/>
<path d="M153.077 95.9878L156.532 104.545L111.427 116.173H104.604L153.077 95.9878Z" fill="#012322"/>
<path d="M158.454 50.4189C158.454 50.4189 158.454 56.2062 156.193 58.7373C153.932 61.2684 97.4092 57.4762 97.4092 57.4762L158.454 50.4189Z" fill="#6AB1AF"/>
<path opacity="0.6" d="M158.137 114.007C158.137 114.007 159.734 116.826 159.394 118.641C159.055 120.456 132.092 133.148 132.092 133.148L158.137 114.002V114.007Z" fill="#6AB1AF"/>
<path opacity="0.6" d="M140.489 82.981C140.489 82.981 139.802 85.1653 138.21 85.7192C136.614 86.2732 104.681 74.7617 104.681 74.7617L140.493 82.9765L140.489 82.981Z" fill="#6AB1AF"/>
<path opacity="0.5" d="M95.6006 16.6415C95.6006 16.6415 99.1683 14.3941 111.856 15.0336C124.545 15.6732 124.54 14.0698 124.54 14.0698C124.54 14.0698 103.22 13.6195 100.358 14.3896C96.7898 15.3534 95.6006 16.637 95.6006 16.637V16.6415Z" fill="#1C1C1A"/>
<path d="M115.949 17.0919C115.949 17.0919 102.836 15.7408 99.6704 17.5422C96.5052 19.3437 97.8617 21.1452 97.8617 21.1452C97.8617 21.1452 100.123 24.2978 110.071 25.1985C120.019 26.0993 115.949 17.0919 115.949 17.0919Z" fill="#1A1A18"/>
<path d="M141.691 0.905626L113.896 14.0069C113.896 14.0069 109.08 19.9743 111.603 23.6583C114.127 27.3424 122.293 27.9639 122.293 27.9639C122.293 27.9639 152.336 17.5783 152.865 17.218C153.394 16.8577 153.982 13.7592 153.982 13.7592C157.911 0.293123 141.691 0.905626 141.691 0.905626ZM126.064 18.2224C124.644 15.7093 125.752 11.7776 130.061 10.6606L134.615 19.1636C134.615 19.1636 128.257 22.109 126.064 18.2224ZM149.451 13.3674L138.418 18.1638L133.263 8.94473L142.881 4.33745C142.881 4.33745 153.353 4.93194 149.451 13.3674Z" fill="#3F3F3E"/>
<path d="M141.239 0.000266869L113.444 13.1015C113.444 13.1015 108.628 19.0689 111.151 22.753C113.674 26.437 121.841 27.0585 121.841 27.0585C121.841 27.0585 151.884 16.673 152.413 16.3127C152.942 15.9524 153.53 12.8538 153.53 12.8538C157.459 -0.607732 141.239 0.000266869 141.239 0.000266869ZM125.612 17.317C124.192 14.8039 125.3 10.8722 129.609 9.75528L134.163 18.2583C134.163 18.2583 127.805 21.2037 125.612 17.317ZM148.999 12.462L137.966 17.2584L132.811 8.03937L142.429 3.43209C142.429 3.43209 152.901 4.02658 148.999 12.462Z" fill="#727270"/>
<path opacity="0.7" d="M102.383 11.687C102.383 11.687 90.1745 10.7863 87.4614 13.0382C84.7483 15.29 87.9136 18.893 85.2005 18.893C82.4874 18.893 74.3482 16.6411 74.8003 13.9389C75.2525 11.2367 89.2701 10.3359 92.4354 10.3359C97.4094 10.3359 102.383 11.687 102.383 11.687Z" fill="#C8C8C8"/>
<path opacity="0.7" d="M140.367 28.8015C140.367 28.8015 153.48 30.1526 155.741 28.3512C158.002 26.5497 152.092 22.3973 148.488 21.0957C148.488 21.0957 149.862 22.4964 149.41 23.8475C148.958 25.1986 140.367 28.8015 140.367 28.8015Z" fill="#C8C8C8"/>
<path opacity="0.6" d="M160.801 186.039L156.591 192.93C156.591 192.93 138.445 198.33 132.232 198.136L160.805 186.035L160.801 186.039Z" fill="#848483"/>
<path opacity="0.5" d="M118.083 19.1003C118.083 19.1003 118.897 16.5242 119.49 17.6546C120.082 18.785 120.991 21.9016 120.991 21.9016C120.991 21.9016 121.719 22.5997 122.284 22.3069C122.284 22.3069 122.831 22.0727 122.546 21.4782C122.261 20.8838 120.032 15.9342 119.603 15.7991C119.173 15.664 118.739 15.5289 118.196 17.2448C117.654 18.9607 118.083 19.1003 118.083 19.1003Z" fill="#1C1C1A"/>
</g>
<defs>
<clipPath id="clip0_435_441">
<rect width="113" height="202" fill="white" transform="translate(54)"/>
</clipPath>
</defs>
</svg>
