<svg width="514" height="428" viewBox="0 0 514 428" fill="none" xmlns="http://www.w3.org/2000/svg">
<g clip-path="url(#clip0_788_978)">
<path d="M259.402 428C377.505 428 473.247 332.189 473.247 214C473.247 95.8111 377.505 0 259.402 0C141.298 0 45.5562 95.8111 45.5562 214C45.5562 332.189 141.298 428 259.402 428Z" fill="#E93858"/>
<path d="M173.966 209.617C173.966 209.617 150.873 208.216 143.167 200.505C143.167 200.505 193.257 186.366 216.375 168.372C239.494 150.378 257.475 134.955 274.171 128.529C274.171 128.529 271.603 153.283 274.171 160.185C276.74 167.087 279.258 169.079 279.258 169.079C279.258 169.079 182.931 211.018 173.966 209.617Z" fill="#709B9B"/>
<path opacity="0.5" d="M261.919 134.595C261.919 134.595 254.662 154.633 266.992 174.349L255.87 179.079C255.87 179.079 245.338 167.537 242.422 148.026C242.422 148.026 256.088 138.091 261.932 134.595H261.919Z" fill="#29605D"/>
<path opacity="0.5" d="M242.41 184.734C242.41 184.734 232.443 176.418 227.627 159.542L215.438 169.092C215.438 169.092 226.034 180.865 229.553 190.042L242.41 184.734Z" fill="#29605D"/>
<path opacity="0.5" d="M214.269 196.199C214.269 196.199 208.618 192.909 200.937 178.063L193.244 181.906C193.244 181.906 198.253 191.906 206.023 199.425L214.256 196.199H214.269Z" fill="#29605D"/>
<path opacity="0.5" d="M180.992 187.305L175.032 189.682C175.032 189.682 178.449 199.772 186.502 206.558L191.999 204.656C191.999 204.656 184.125 198.525 180.992 187.292V187.305Z" fill="#29605D"/>
<path opacity="0.5" d="M173.966 209.617C173.966 209.617 164.526 201.546 163.486 193.962L156.936 196.212C156.936 196.212 157.051 203.345 163.601 208.358C163.601 208.358 172.656 209.746 173.966 209.63V209.617Z" fill="#29605D"/>
<path d="M513.062 173.514C513.062 173.514 461.675 189.065 437.914 185.788C414.154 182.511 192.448 260.99 85.6023 210.825C85.6023 210.825 57.1024 206.931 57.1024 192.793C57.1024 178.655 90.4957 174.799 95.6331 168.372C100.771 161.946 105.908 158.09 104.624 156.805C103.339 155.52 91.78 128.529 55.818 114.39C55.818 114.39 44.2588 96.3964 42.9744 82.2583C41.6901 68.1201 23.7091 50.1261 12.1498 42.4144C12.1498 42.4144 -12.253 87.3994 27.5621 197.934C67.3772 308.468 443.694 227.496 466.812 217.213C489.931 206.931 507.912 185.081 513.049 173.514H513.062Z" fill="#6EB7BA"/>
<path d="M12.1629 42.4144C12.1629 42.4144 -13.9867 154.466 52.3889 194.194C118.765 233.922 153.172 223.64 250.283 176.084C347.38 128.529 457.835 122.102 491.228 143.952C491.228 143.952 504.072 145.469 491.228 171.059L473.247 197.934C473.247 197.934 500.219 191.508 513.062 173.514C513.062 173.514 521.77 190.955 486.091 217.213C442.423 249.345 262.42 325.936 238.21 329.033C220.19 331.334 136.373 345.883 42.9874 240.348C42.9874 240.348 -27.6522 132.384 12.1629 42.4144Z" fill="#007C79"/>
<path opacity="0.5" d="M12.1629 42.4144C-27.6522 132.384 42.9874 240.348 42.9874 240.348C136.373 345.883 220.19 331.334 238.21 329.033C262.42 325.936 442.423 249.345 486.091 217.213C464.257 205.646 443.707 196.006 443.707 196.006C443.707 196.006 315.053 303.546 179.656 280.295C44.259 257.044 8.95196 163.874 7.6676 95.7538C6.38324 62.3364 12.1629 42.4144 12.1629 42.4144Z" fill="#022928"/>
<path d="M378.205 136.24C378.205 136.24 355.446 198.011 366.003 219.141C374.994 237.135 394.837 246.775 407.745 246.775C446.276 246.775 486.091 217.213 486.091 217.213C521.77 190.955 513.062 173.513 513.062 173.513C500.219 191.507 473.247 197.934 473.247 197.934L491.228 171.059C491.228 171.059 501.567 152.628 495.107 146.355C488.647 140.083 471.822 134.197 455.189 133.284C438.557 132.372 435.988 128.516 378.192 136.227L378.205 136.24Z" fill="#709B9B"/>
<path opacity="0.7" d="M378.205 136.24C378.205 136.24 355.446 198.011 366.003 219.141C374.994 237.135 394.837 246.775 407.745 246.775C353.802 224.925 378.205 183.796 378.205 136.24Z" fill="#022928"/>
<path d="M376.92 258.342C376.92 258.342 347.38 262.198 344.811 271.195C342.243 280.192 333.252 290.474 347.38 307.183C361.508 323.892 374.351 330.498 376.92 330.408C379.489 330.318 396.186 281.477 376.92 258.342Z" fill="#709B9B"/>
<path d="M227.935 317.465C227.935 317.465 193.257 314.895 175.276 339.315C157.295 363.736 165.001 381.73 168.854 383.015C172.708 384.3 185.551 385.586 198.395 374.018C211.238 362.45 239.494 325.177 235.641 321.321C231.788 317.465 227.935 317.465 227.935 317.465Z" fill="#709B9B"/>
<path d="M21.153 231.351L19.8687 240.348C18.5843 249.345 31.4279 259.628 35.281 267.339C39.134 275.051 30.1435 281.477 30.1435 281.477C30.1435 281.477 25.0061 281.477 48.1246 289.189C48.1246 289.189 82.3013 294.523 88.3378 283.495C88.3378 283.495 57.4233 255.54 54.0583 249.872L46.8402 240.348C40.4184 241.634 27.5748 236.492 21.153 231.351Z" fill="#709B9B"/>
<path d="M443.065 191.507C449.803 191.507 455.266 186.041 455.266 179.297C455.266 172.554 449.803 167.087 443.065 167.087C436.326 167.087 430.863 172.554 430.863 179.297C430.863 186.041 436.326 191.507 443.065 191.507Z" fill="white"/>
<path d="M444.67 187.652C449.813 187.652 453.982 183.336 453.982 178.012C453.982 172.688 449.813 168.372 444.67 168.372C439.527 168.372 435.358 172.688 435.358 178.012C435.358 183.336 439.527 187.652 444.67 187.652Z" fill="#152B2A"/>
<path d="M439.854 178.655C440.563 178.655 441.138 178.079 441.138 177.369C441.138 176.66 440.563 176.084 439.854 176.084C439.144 176.084 438.569 176.66 438.569 177.369C438.569 178.079 439.144 178.655 439.854 178.655Z" fill="white"/>
<path d="M275.302 205.311C277.785 205.311 279.797 203.297 279.797 200.813C279.797 198.328 277.785 196.314 275.302 196.314C272.819 196.314 270.807 198.328 270.807 200.813C270.807 203.297 272.819 205.311 275.302 205.311Z" fill="#F9EACD"/>
<path d="M106.229 232.637C107.598 232.637 108.708 231.526 108.708 230.156C108.708 228.786 107.598 227.675 106.229 227.675C104.86 227.675 103.75 228.786 103.75 230.156C103.75 231.526 104.86 232.637 106.229 232.637Z" fill="#F9EACD"/>
<path d="M92.1012 222.354C92.7609 222.354 93.2956 221.819 93.2956 221.159C93.2956 220.499 92.7609 219.964 92.1012 219.964C91.4415 219.964 90.9067 220.499 90.9067 221.159C90.9067 221.819 91.4415 222.354 92.1012 222.354Z" fill="#F9EACD"/>
<path d="M86.9635 230.066C87.6232 230.066 88.1579 229.531 88.1579 228.871C88.1579 228.211 87.6232 227.675 86.9635 227.675C86.3038 227.675 85.769 228.211 85.769 228.871C85.769 229.531 86.3038 230.066 86.9635 230.066Z" fill="#F9EACD"/>
<path d="M78.0118 212.83C78.5509 212.83 78.9879 212.393 78.9879 211.854C78.9879 211.314 78.5509 210.877 78.0118 210.877C77.4727 210.877 77.0356 211.314 77.0356 211.854C77.0356 212.393 77.4727 212.83 78.0118 212.83Z" fill="#F9EACD"/>
<path d="M69.021 215.401C69.5601 215.401 69.9971 214.964 69.9971 214.424C69.9971 213.885 69.5601 213.447 69.021 213.447C68.4819 213.447 68.0449 213.885 68.0449 214.424C68.0449 214.964 68.4819 215.401 69.021 215.401Z" fill="#F9EACD"/>
<path d="M65.168 206.404C65.7071 206.404 66.1441 205.967 66.1441 205.427C66.1441 204.888 65.7071 204.45 65.168 204.45C64.6289 204.45 64.1919 204.888 64.1919 205.427C64.1919 205.967 64.6289 206.404 65.168 206.404Z" fill="#F9EACD"/>
<path d="M58.7461 203.833C59.2852 203.833 59.7222 203.396 59.7222 202.857C59.7222 202.317 59.2852 201.88 58.7461 201.88C58.207 201.88 57.77 202.317 57.77 202.857C57.77 203.396 58.207 203.833 58.7461 203.833Z" fill="#F9EACD"/>
<path d="M52.3247 201.263C52.8638 201.263 53.3009 200.825 53.3009 200.286C53.3009 199.747 52.8638 199.309 52.3247 199.309C51.7857 199.309 51.3486 199.747 51.3486 200.286C51.3486 200.825 51.7857 201.263 52.3247 201.263Z" fill="#F9EACD"/>
<path d="M84.9346 222.136C85.8922 222.136 86.6685 221.359 86.6685 220.401C86.6685 219.442 85.8922 218.666 84.9346 218.666C83.977 218.666 83.2007 219.442 83.2007 220.401C83.2007 221.359 83.977 222.136 84.9346 222.136Z" fill="#F9EACD"/>
<path opacity="0.2" d="M91.356 157.872C92.3135 157.872 93.0898 157.095 93.0898 156.137C93.0898 155.178 92.3135 154.401 91.356 154.401C90.3984 154.401 89.6221 155.178 89.6221 156.137C89.6221 157.095 90.3984 157.872 91.356 157.872Z" fill="#207775"/>
<path opacity="0.2" d="M77.228 154.016C78.1856 154.016 78.9619 153.239 78.9619 152.281C78.9619 151.322 78.1856 150.545 77.228 150.545C76.2704 150.545 75.4941 151.322 75.4941 152.281C75.4941 153.239 76.2704 154.016 77.228 154.016Z" fill="#207775"/>
<path opacity="0.2" d="M77.228 154.016C78.1856 154.016 78.9619 153.239 78.9619 152.281C78.9619 151.322 78.1856 150.545 77.228 150.545C76.2704 150.545 75.4941 151.322 75.4941 152.281C75.4941 153.239 76.2704 154.016 77.228 154.016Z" fill="#207775"/>
<path opacity="0.2" d="M79.7969 165.583C80.7545 165.583 81.5308 164.806 81.5308 163.848C81.5308 162.89 80.7545 162.113 79.7969 162.113C78.8393 162.113 78.063 162.89 78.063 163.848C78.063 164.806 78.8393 165.583 79.7969 165.583Z" fill="#207775"/>
<path opacity="0.2" d="M86.2187 148.875C87.1763 148.875 87.9526 148.098 87.9526 147.139C87.9526 146.181 87.1763 145.404 86.2187 145.404C85.2611 145.404 84.4849 146.181 84.4849 147.139C84.4849 148.098 85.2611 148.875 86.2187 148.875Z" fill="#207775"/>
<path opacity="0.2" d="M82.3657 139.878C83.3233 139.878 84.0996 139.101 84.0996 138.142C84.0996 137.184 83.3233 136.407 82.3657 136.407C81.4081 136.407 80.6318 137.184 80.6318 138.142C80.6318 139.101 81.4081 139.878 82.3657 139.878Z" fill="#207775"/>
<path opacity="0.2" d="M73.375 138.592C74.3326 138.592 75.1089 137.816 75.1089 136.857C75.1089 135.899 74.3326 135.122 73.375 135.122C72.4174 135.122 71.6411 135.899 71.6411 136.857C71.6411 137.816 72.4174 138.592 73.375 138.592Z" fill="#207775"/>
<path opacity="0.2" d="M66.9531 152.73C67.9107 152.73 68.687 151.954 68.687 150.995C68.687 150.037 67.9107 149.26 66.9531 149.26C65.9955 149.26 65.2192 150.037 65.2192 150.995C65.2192 151.954 65.9955 152.73 66.9531 152.73Z" fill="#207775"/>
<path opacity="0.2" d="M64.3848 141.163C65.3424 141.163 66.1186 140.386 66.1186 139.428C66.1186 138.469 65.3424 137.693 64.3848 137.693C63.4272 137.693 62.6509 138.469 62.6509 139.428C62.6509 140.386 63.4272 141.163 64.3848 141.163Z" fill="#207775"/>
<path opacity="0.2" d="M27.1382 83.325C28.0958 83.325 28.8721 82.5482 28.8721 81.5899C28.8721 80.6316 28.0958 79.8547 27.1382 79.8547C26.1806 79.8547 25.4043 80.6316 25.4043 81.5899C25.4043 82.5482 26.1806 83.325 27.1382 83.325Z" fill="#207775"/>
<path opacity="0.2" d="M25.854 75.6133C26.8116 75.6133 27.5879 74.8365 27.5879 73.8782C27.5879 72.9199 26.8116 72.1431 25.854 72.1431C24.8964 72.1431 24.1201 72.9199 24.1201 73.8782C24.1201 74.8365 24.8964 75.6133 25.854 75.6133Z" fill="#207775"/>
<path opacity="0.2" d="M37.4131 91.0368C38.3707 91.0368 39.147 90.26 39.147 89.3017C39.147 88.3434 38.3707 87.5665 37.4131 87.5665C36.4555 87.5665 35.6792 88.3434 35.6792 89.3017C35.6792 90.26 36.4555 91.0368 37.4131 91.0368Z" fill="#207775"/>
<path opacity="0.2" d="M32.2759 69.1869C33.2335 69.1869 34.0098 68.4101 34.0098 67.4518C34.0098 66.4935 33.2335 65.7167 32.2759 65.7167C31.3183 65.7167 30.542 66.4935 30.542 67.4518C30.542 68.4101 31.3183 69.1869 32.2759 69.1869Z" fill="#207775"/>
<path opacity="0.2" d="M23.2852 67.9017C24.2427 67.9017 25.019 67.1248 25.019 66.1665C25.019 65.2082 24.2427 64.4314 23.2852 64.4314C22.3276 64.4314 21.5513 65.2082 21.5513 66.1665C21.5513 67.1248 22.3276 67.9017 23.2852 67.9017Z" fill="#207775"/>
<path opacity="0.2" d="M16.8633 57.6193C17.8209 57.6193 18.5972 56.8425 18.5972 55.8842C18.5972 54.9259 17.8209 54.149 16.8633 54.149C15.9057 54.149 15.1294 54.9259 15.1294 55.8842C15.1294 56.8425 15.9057 57.6193 16.8633 57.6193Z" fill="#207775"/>
<path opacity="0.2" d="M14.2944 93.6074C15.252 93.6074 16.0283 92.8305 16.0283 91.8722C16.0283 90.9139 15.252 90.1371 14.2944 90.1371C13.3368 90.1371 12.5605 90.9139 12.5605 91.8722C12.5605 92.8305 13.3368 93.6074 14.2944 93.6074Z" fill="#207775"/>
<path opacity="0.2" d="M14.2944 106.46C15.252 106.46 16.0283 105.683 16.0283 104.725C16.0283 103.767 15.252 102.99 14.2944 102.99C13.3368 102.99 12.5605 103.767 12.5605 104.725C12.5605 105.683 13.3368 106.46 14.2944 106.46Z" fill="#207775"/>
<path opacity="0.2" d="M16.8633 82.0397C17.8209 82.0397 18.5972 81.2629 18.5972 80.3046C18.5972 79.3463 17.8209 78.5695 16.8633 78.5695C15.9057 78.5695 15.1294 79.3463 15.1294 80.3046C15.1294 81.2629 15.9057 82.0397 16.8633 82.0397Z" fill="#207775"/>
<path opacity="0.2" d="M14.2944 70.4722C15.252 70.4722 16.0283 69.6954 16.0283 68.7371C16.0283 67.7788 15.252 67.002 14.2944 67.002C13.3368 67.002 12.5605 67.7788 12.5605 68.7371C12.5605 69.6954 13.3368 70.4722 14.2944 70.4722Z" fill="#207775"/>
<path d="M295.158 191.842C297.641 191.842 299.653 189.828 299.653 187.343C299.653 184.859 297.641 182.845 295.158 182.845C292.675 182.845 290.663 184.859 290.663 187.343C290.663 189.828 292.675 191.842 295.158 191.842Z" fill="#F9EACD"/>
<path d="M321.642 197.818C323.514 197.818 325.032 196.299 325.032 194.425C325.032 192.551 323.514 191.032 321.642 191.032C319.769 191.032 318.251 192.551 318.251 194.425C318.251 196.299 319.769 197.818 321.642 197.818Z" fill="#F9EACD"/>
<path d="M332.058 172.627C334.54 172.627 336.553 170.613 336.553 168.128C336.553 165.644 334.54 163.63 332.058 163.63C329.575 163.63 327.562 165.644 327.562 168.128C327.562 170.613 329.575 172.627 332.058 172.627Z" fill="#F9EACD"/>
<path opacity="0.2" d="M488.351 157.306C490.181 157.306 491.665 155.821 491.665 153.99C491.665 152.159 490.181 150.674 488.351 150.674C486.521 150.674 485.038 152.159 485.038 153.99C485.038 155.821 486.521 157.306 488.351 157.306Z" fill="#207775"/>
<path opacity="0.2" d="M476.792 149.594C478.622 149.594 480.106 148.11 480.106 146.278C480.106 144.447 478.622 142.962 476.792 142.962C474.962 142.962 473.479 144.447 473.479 146.278C473.479 148.11 474.962 149.594 476.792 149.594Z" fill="#207775"/>
<path opacity="0.2" d="M483.214 172.729C485.044 172.729 486.527 171.245 486.527 169.413C486.527 167.582 485.044 166.097 483.214 166.097C481.383 166.097 479.9 167.582 479.9 169.413C479.9 171.245 481.383 172.729 483.214 172.729Z" fill="#207775"/>
<path opacity="0.2" d="M476.792 162.447C478.622 162.447 480.106 160.963 480.106 159.131C480.106 157.3 478.622 155.815 476.792 155.815C474.962 155.815 473.479 157.3 473.479 159.131C473.479 160.963 474.962 162.447 476.792 162.447Z" fill="#207775"/>
<path opacity="0.2" d="M457.527 145.739C459.357 145.739 460.84 144.254 460.84 142.422C460.84 140.591 459.357 139.106 457.527 139.106C455.696 139.106 454.213 140.591 454.213 142.422C454.213 144.254 455.696 145.739 457.527 145.739Z" fill="#207775"/>
<path opacity="0.2" d="M438.479 143.939C439.777 143.939 440.83 142.886 440.83 141.587C440.83 140.288 439.777 139.235 438.479 139.235C437.181 139.235 436.129 140.288 436.129 141.587C436.129 142.886 437.181 143.939 438.479 143.939Z" fill="#207775"/>
<path opacity="0.2" d="M466.736 155.507C468.034 155.507 469.086 154.454 469.086 153.155C469.086 151.856 468.034 150.802 466.736 150.802C465.438 150.802 464.385 151.856 464.385 153.155C464.385 154.454 465.438 155.507 466.736 155.507Z" fill="#207775"/>
<path opacity="0.2" d="M424.351 149.08C425.649 149.08 426.702 148.027 426.702 146.728C426.702 145.429 425.649 144.376 424.351 144.376C423.053 144.376 422.001 145.429 422.001 146.728C422.001 148.027 423.053 149.08 424.351 149.08Z" fill="#207775"/>
<path opacity="0.2" d="M414.077 141.369C415.375 141.369 416.427 140.316 416.427 139.017C416.427 137.717 415.375 136.664 414.077 136.664C412.779 136.664 411.727 137.717 411.727 139.017C411.727 140.316 412.779 141.369 414.077 141.369Z" fill="#207775"/>
<path opacity="0.2" d="M406.37 146.51C407.668 146.51 408.721 145.457 408.721 144.158C408.721 142.859 407.668 141.806 406.37 141.806C405.072 141.806 404.02 142.859 404.02 144.158C404.02 145.457 405.072 146.51 406.37 146.51Z" fill="#207775"/>
<path opacity="0.2" d="M398.664 142.654C399.962 142.654 401.015 141.601 401.015 140.302C401.015 139.003 399.962 137.95 398.664 137.95C397.366 137.95 396.314 139.003 396.314 140.302C396.314 141.601 397.366 142.654 398.664 142.654Z" fill="#207775"/>
<path opacity="0.2" d="M393.527 156.792C394.825 156.792 395.878 155.739 395.878 154.44C395.878 153.141 394.825 152.088 393.527 152.088C392.229 152.088 391.177 153.141 391.177 154.44C391.177 155.739 392.229 156.792 393.527 156.792Z" fill="#207775"/>
<path opacity="0.2" d="M398.664 168.36C399.962 168.36 401.015 167.306 401.015 166.007C401.015 164.708 399.962 163.655 398.664 163.655C397.366 163.655 396.314 164.708 396.314 166.007C396.314 167.306 397.366 168.36 398.664 168.36Z" fill="#207775"/>
<path opacity="0.2" d="M388.389 172.215C389.687 172.215 390.74 171.162 390.74 169.863C390.74 168.564 389.687 167.511 388.389 167.511C387.091 167.511 386.039 168.564 386.039 169.863C386.039 171.162 387.091 172.215 388.389 172.215Z" fill="#207775"/>
<path d="M348.446 214.321C350.028 214.321 351.31 213.038 351.31 211.455C351.31 209.872 350.028 208.589 348.446 208.589C346.864 208.589 345.582 209.872 345.582 211.455C345.582 213.038 346.864 214.321 348.446 214.321Z" fill="#F9EACD"/>
<path d="M239.674 218.678C240.56 218.678 241.279 217.959 241.279 217.072C241.279 216.185 240.56 215.465 239.674 215.465C238.787 215.465 238.068 216.185 238.068 217.072C238.068 217.959 238.787 218.678 239.674 218.678Z" fill="#F9EACD"/>
<path d="M352.697 180.12C353.584 180.12 354.303 179.401 354.303 178.513C354.303 177.626 353.584 176.907 352.697 176.907C351.811 176.907 351.092 177.626 351.092 178.513C351.092 179.401 351.811 180.12 352.697 180.12Z" fill="#F9EACD"/>
<path d="M361.688 153.129C362.575 153.129 363.293 152.41 363.293 151.522C363.293 150.635 362.575 149.916 361.688 149.916C360.801 149.916 360.083 150.635 360.083 151.522C360.083 152.41 360.801 153.129 361.688 153.129Z" fill="#F9EACD"/>
<path d="M270.049 224.077C271.63 224.077 272.913 222.793 272.913 221.21C272.913 219.627 271.63 218.344 270.049 218.344C268.467 218.344 267.185 219.627 267.185 221.21C267.185 222.793 268.467 224.077 270.049 224.077Z" fill="#F9EACD"/>
</g>
<defs>
<clipPath id="clip0_788_978">
<rect width="514" height="428" fill="white"/>
</clipPath>
</defs>
</svg>
