<svg width="327" height="234" viewBox="0 0 327 234" fill="none" xmlns="http://www.w3.org/2000/svg">
<rect x="52.0005" y="14" width="221" height="220" rx="110" fill="#E93858"/>
<path d="M56.2582 59.5726L60.9203 65.3355C60.9203 65.3355 58.9253 89.6263 63.5497 97.6359L79.3948 101.882L117.156 156.572C117.156 156.572 150.63 170.619 159.052 172.876C167.475 175.133 186.962 171.892 186.962 171.892L196.796 168.884L208.243 195.648C208.243 195.648 237.805 222.189 245.918 219.285C254.031 216.381 261.449 207.648 264.796 197.261C264.796 197.261 264.063 193.679 277.196 190.992C290.329 188.304 290.556 174.824 290.246 169.663C289.936 164.502 299.384 160.827 300.86 159.53C302.336 158.233 309.189 151.606 305.965 146.793C302.741 141.98 278.227 121.87 256.888 117.281C235.549 112.691 189.82 115.954 189.82 115.954L143.604 42.0717L113.581 19.3575C113.581 19.3575 93.3985 16.7707 77.0972 27.0722L70.0749 28.0117L56.2582 59.5726Z" fill="#B3DBDF"/>
<path opacity="0.5" d="M56.2579 59.5728L60.9201 65.3357C60.9201 65.3357 58.9251 89.6264 63.5494 97.636L79.3946 101.882L117.155 156.572C117.155 156.572 150.629 170.62 159.052 172.876C167.475 175.133 186.962 171.892 186.962 171.892L196.795 168.884L208.243 195.649C208.243 195.649 237.805 222.189 245.918 219.285C254.031 216.381 261.449 207.648 264.796 197.261C264.796 197.261 264.063 193.679 277.196 190.992C277.196 190.992 234.707 170.58 216.51 152.163L141.872 125.393L68.7232 57.2707L57.6685 54.3086L56.2579 59.5728Z" fill="#6EB7BA"/>
<path d="M56.2578 59.5731L60.9199 65.336C60.9199 65.336 72.4734 62.2254 79.4781 46.6118C79.4781 46.6118 83.5963 37.5595 77.0967 27.0727L71.3266 27.8455L56.2578 59.5731Z" fill="#6EB6BB"/>
<path d="M69.8339 25.9841C69.8339 25.9841 58.853 20.0514 55.505 19.1543C52.157 18.2572 43.4373 19.5092 38.7702 30.2312C34.1031 40.9532 34.9479 48.96 39.1182 51.2735C39.9682 51.7439 41.146 52.3811 42.4904 53.0911C47.7209 55.8693 55.3854 59.8188 55.3854 59.8188C55.3854 59.8188 68.461 57.9341 72.6102 44.6811C76.7594 31.4281 72.4396 29.6726 69.8406 25.9802L69.8339 25.9841Z" fill="#C56227"/>
<path d="M58.5953 41.028C63.4756 32.3598 62.8372 22.746 57.1694 19.555C51.5017 16.3639 42.9508 20.8041 38.0705 29.4723C33.1902 38.1405 33.8285 47.7543 39.4963 50.9453C45.1641 54.1364 53.715 49.6962 58.5953 41.028Z" fill="#E57931"/>
<path opacity="0.5" d="M87.9665 52.8356L76.1862 69.4265L88.4422 95.2789L118.287 120.766L133.213 145.077L165.634 158.842L155.634 124.567L144.759 118.832L148.67 106.339L141.056 85.3979L125.669 82.6854L106.708 86.068L92.0441 77.6251L87.9665 52.8356Z" fill="#6EB7BA"/>
<path d="M66.333 71.582L68.5417 91.6391L101.006 100.338L75.2164 87.7855L66.333 71.582Z" fill="#6EB7BA"/>
<path d="M142.965 66.0825L137.865 46.5597L104.485 42.6708L131.821 51.3441L142.965 66.0825Z" fill="#6EB7BA"/>
<path d="M172.599 147.923L184.495 138.377L188.213 116.246L172.599 147.923Z" fill="#6EB7BA"/>
<path d="M128.352 160.312L139.904 164.976L157.003 148.602L160.707 127.072L147.247 150.226L128.352 160.312Z" fill="#6EB7BA"/>
<path d="M199.53 128.148C199.53 128.148 230.674 123.516 252.605 132.213C252.605 132.213 233.447 123.695 226.322 122.914C219.196 122.133 205.255 125.732 199.53 128.148Z" fill="#6EB7BA"/>
<path d="M192.167 149.307L186.253 162.956L180.951 163.793L183.707 149.297L192.994 146.223C192.994 146.223 256.63 146.269 267.593 138.204L273.049 150.668L248.192 182.374L266.065 149.361C266.065 149.361 255.922 147.207 250.761 147.517C245.6 147.827 192.167 149.307 192.167 149.307Z" fill="#6EB7BA"/>
<path opacity="0.8" d="M108.293 23.3006L103.892 33.4058C103.892 33.4058 119.403 38.6902 122.279 40.5893C125.155 42.4885 136.585 54.5785 136.585 54.5785L138.687 46.7349C138.687 46.7349 122.43 31.6025 119.027 29.5623C115.625 27.5221 108.293 23.3006 108.293 23.3006Z" fill="#DFF0F4"/>
<path opacity="0.7" d="M105.52 23.1222L101.401 32.1745C101.401 32.1745 93.2608 28.8649 86.906 29.4189L105.52 23.1222Z" fill="#DFF0F4"/>
<path opacity="0.8" d="M140.384 48.8257L145.731 68.8774L185.031 113.825L140.384 48.8257Z" fill="#DFF0F4"/>
<path opacity="0.5" d="M211.686 163.847L217.973 190.921L233.896 203.087C243.926 211.981 252.424 209.744 257.389 197.533C257.333 185.106 288.89 187.355 284.08 158.984L248.404 165.787C248.404 165.787 249.689 168.952 246.559 177.705C243.43 186.458 226.829 183.138 226.829 183.138L211.686 163.847Z" fill="#6EB7BA"/>
<path opacity="0.8" d="M190.801 132.297L190.687 142.282L253.793 136.368L190.801 132.297Z" fill="#DFF0F4"/>
<path opacity="0.8" d="M276.496 130.434C276.496 130.434 294.037 140.776 296.349 144.781C298.661 148.786 293.528 155.309 290.755 155.13C287.981 154.952 276.496 130.434 276.496 130.434Z" fill="#DFF0F4"/>
</svg>
