<svg width="1216" height="246" viewBox="0 0 1216 246" fill="none" xmlns="http://www.w3.org/2000/svg">
<g clip-path="url(#clip0_495_782)">
<path d="M7.92317 20.0583L2.16086 24.0069C2.16086 24.0069 0 58.4669 0 59.9027C0 61.3386 11.1645 73.9021 11.1645 73.9021C11.1645 73.9021 7.20288 86.8246 7.92317 90.0552C8.64346 93.2859 10.084 100.106 10.084 100.106C10.084 100.106 3.96158 112.67 3.96158 113.746C3.96158 114.823 7.20288 148.206 7.56303 149.642C7.92317 151.078 12.2449 160.052 12.2449 160.052C12.2449 160.052 28.8151 171.539 82.8367 160.052L87.1549 151.078C87.1549 151.078 88.5954 148.924 88.9556 147.489C89.3157 146.053 91.1165 107.418 88.9556 105.017C86.7947 102.615 85.7143 101.542 85.7143 101.542C85.7143 101.542 85.5342 97.7728 84.8139 95.978C84.0936 94.1832 74.7299 71.9278 75.09 70.492C75.4502 69.0562 84.0936 61.877 84.0936 60.8001C84.0936 59.7232 87.6951 40.6985 87.6951 38.9037C87.6951 37.1089 85.5342 31.0066 85.1741 30.2887C84.8139 29.5707 7.92317 20.0583 7.92317 20.0583Z" fill="#044645"/>
<path opacity="0.8" d="M7.92317 20.2593L2.16086 24.2079C2.16086 24.2079 0 58.6679 0 60.1037C0 61.5395 11.1645 74.1031 11.1645 74.1031C11.1645 74.1031 7.20288 87.0256 7.92317 90.2562C8.64346 93.4868 10.084 100.307 10.084 100.307C10.084 100.307 3.96158 112.871 3.96158 113.947C3.96158 115.024 7.20288 148.407 7.56303 149.843C7.92317 151.279 12.2449 160.253 12.2449 160.253C12.2449 160.253 21.6483 160.971 29.1933 160.253L24.8499 128.467L19.0876 114.468L24.1297 94.7252L21.5654 82.5853L29.1933 65.0466L17.7767 22.5531L7.92317 20.2629" fill="#062525"/>
<path d="M7.20312 15.0329C7.20312 15.0329 7.50565 20.9773 7.8946 22.4921C8.28356 24.0069 20.5285 33.6988 40.3364 36.2115C60.1443 38.7242 74.9102 37.6473 84.274 35.1346L87.6701 26.5088C87.6701 26.5088 95.0783 15.7508 53.3016 8.21272C11.5249 0.674592 7.20312 15.0329 7.20312 15.0329Z" fill="#A4A4A4"/>
<path d="M87.292 24.9006C83.4673 31.7208 67.693 33.5372 45.1948 30.6117C27.7854 27.7364 7.68577 19.9255 8.89585 13.0155C10.0627 6.50403 26.7158 4.46155 49.214 7.38706C71.7122 10.3126 91.1167 18.0804 87.2884 24.9006H87.292Z" fill="#C8C8C8"/>
<path d="M9.36328 15.7329C9.36328 15.7329 21.9467 7.87171 49.6274 12.5166C77.3117 17.1616 82.2492 21.5301 85.7138 27.0293C85.7138 27.0293 80.5169 32.945 61.4761 32.2019C42.4389 31.4553 29.0668 28.3 17.7762 22.5531C17.7762 22.5531 11.9023 19.8932 9.36328 15.7329Z" fill="#848483"/>
<path d="M8.19727 151.297L12.2453 160.052C19.1889 164.514 47.3989 170.842 82.8371 160.052L87.1552 151.078C58.7039 159.334 19.088 158.257 8.19727 151.297Z" fill="#A0A09E"/>
<path d="M3.96191 113.746L10.0844 100.106C10.0844 100.106 24.202 104.773 34.6102 106.926C45.0183 109.08 58.7038 108.362 58.7038 108.362C58.7038 108.362 24.13 116.259 15.1264 115.9C6.12278 115.541 3.96191 113.746 3.96191 113.746Z" fill="#012322"/>
<path d="M85.7143 101.542L88.9556 105.017C88.9556 105.017 75.9904 121.285 69.868 124.515C63.7455 127.746 47.5391 135.097 47.5391 135.097L74.91 116.977L85.7143 101.542Z" fill="#012322"/>
<path d="M17.2871 119.849L43.9378 115.915L48.3099 122.835L17.2871 119.849Z" fill="#012322"/>
<path d="M7.83691 88.9496L8.84172 82.5817C8.84172 82.5817 21.6088 85.7477 35.2943 87.9015L7.83691 88.946V88.9496Z" fill="#012322"/>
<path d="M84.0932 60.8001L75.0896 70.492C75.0896 70.492 41.0559 63.1046 31.3321 58.8115L26.29 54.8773L84.0932 60.8001Z" fill="#012322"/>
<path d="M0 59.9027C0 59.9027 44.8379 75.18 55.1921 76.5153L48.9796 77.8506L11.1645 73.9021C7.92317 70.6715 1.08043 62.7744 0 59.9027Z" fill="#012322"/>
<path d="M78.9112 81.5048L81.6627 88.325L45.7383 97.5933H40.3037L78.9112 81.5048Z" fill="#012322"/>
<path d="M83.1937 45.1854C83.1937 45.1854 83.1937 49.798 81.3929 51.8154C79.5922 53.8327 34.5742 50.8103 34.5742 50.8103L83.1937 45.1854Z" fill="#6AB1AF"/>
<path opacity="0.6" d="M82.9416 95.8667C82.9416 95.8667 84.2129 98.1138 83.9428 99.5604C83.6727 101.007 62.1973 111.122 62.1973 111.122L82.9416 95.8632V95.8667Z" fill="#6AB1AF"/>
<path opacity="0.6" d="M68.885 71.1381C68.885 71.1381 68.3376 72.879 67.0699 73.3206C65.7986 73.7621 40.3652 64.5871 40.3652 64.5871L68.8886 71.1345L68.885 71.1381Z" fill="#6AB1AF"/>
<path opacity="0.5" d="M33.1328 18.2635C33.1328 18.2635 35.9743 16.4723 46.08 16.982C56.1856 17.4918 56.182 16.2139 56.182 16.2139C56.182 16.2139 39.2012 15.8549 36.9215 16.4687C34.08 17.2369 33.1328 18.2599 33.1328 18.2599V18.2635Z" fill="#1C1C1A"/>
<path d="M49.34 18.6225C49.34 18.6225 38.8958 17.5456 36.3748 18.9814C33.8538 20.4173 34.9343 21.8531 34.9343 21.8531C34.9343 21.8531 36.735 24.3658 44.6581 25.0837C52.5813 25.8016 49.34 18.6225 49.34 18.6225Z" fill="#1A1A18"/>
<path d="M69.8423 5.72153L47.7043 16.1636C47.7043 16.1636 43.8688 20.9198 45.8784 23.8561C47.888 26.7924 54.3922 27.2878 54.3922 27.2878C54.3922 27.2878 78.3201 19.0102 78.7415 18.723C79.1629 18.4358 79.6311 15.9662 79.6311 15.9662C82.7607 5.23335 69.8423 5.72153 69.8423 5.72153ZM57.3958 19.5235C56.2649 17.5205 57.1473 14.3868 60.5794 13.4966L64.2061 20.2737C64.2061 20.2737 59.1425 22.6213 57.3958 19.5235ZM76.0224 15.6539L67.2349 19.4768L63.1293 12.1289L70.7895 8.4568C70.7895 8.4568 79.1305 8.93062 76.0224 15.6539Z" fill="#3F3F3E"/>
<path d="M69.483 5.00003L47.3449 15.4421C47.3449 15.4421 43.5094 20.1983 45.519 23.1346C47.5286 26.0709 54.0328 26.5662 54.0328 26.5662C54.0328 26.5662 77.9608 18.2887 78.3821 18.0015C78.8035 17.7143 79.2717 15.2447 79.2717 15.2447C82.4013 4.51544 69.483 5.00003 69.483 5.00003ZM57.0364 18.802C55.9055 16.799 56.7879 13.6653 60.2201 12.7751L63.8467 19.5522C63.8467 19.5522 58.7831 21.8998 57.0364 18.802ZM75.663 14.9324L66.8755 18.7553L62.7699 11.4074L70.4301 7.73529C70.4301 7.73529 78.7711 8.20912 75.663 14.9324Z" fill="#727270"/>
<path opacity="0.7" d="M38.535 14.315C38.535 14.315 28.8111 13.5971 26.6502 15.3918C24.4894 17.1866 27.0104 20.0583 24.8495 20.0583C22.6886 20.0583 16.206 18.2635 16.5662 16.1098C16.9263 13.956 28.0908 13.2381 30.6118 13.2381C34.5734 13.2381 38.535 14.315 38.535 14.315Z" fill="#C8C8C8"/>
<path opacity="0.7" d="M68.7871 27.9554C68.7871 27.9554 79.2313 29.0323 81.032 27.5964C82.8327 26.1606 78.1256 22.851 75.2553 21.8136C75.2553 21.8136 76.3501 22.93 75.99 24.0068C75.6298 25.0837 68.7871 27.9554 68.7871 27.9554Z" fill="#C8C8C8"/>
<path opacity="0.6" d="M85.0625 153.279L81.7096 158.771C81.7096 158.771 67.257 163.075 62.3086 162.92L85.0661 153.275L85.0625 153.279Z" fill="#848483"/>
<path opacity="0.5" d="M51.0397 20.2235C51.0397 20.2235 51.6879 18.1702 52.1597 19.0712C52.6315 19.9722 53.3554 22.4562 53.3554 22.4562C53.3554 22.4562 53.9352 23.0126 54.3854 22.7793C54.3854 22.7793 54.8212 22.5926 54.5943 22.1188C54.3674 21.6449 52.5919 17.7 52.2497 17.5923C51.9076 17.4846 51.5619 17.3769 51.1297 18.7446C50.6975 20.1122 51.0397 20.2235 51.0397 20.2235Z" fill="#1C1C1A"/>
</g>
<path d="M795.21 114.748C795.21 114.748 796.966 135.501 818.624 157.483L858.529 149.202L874.287 137.62L881.294 136.829L903.247 121.466L902.4 111.797L913.519 103.439L860.377 53.1201L843.255 76.3237L836.206 79.0272L831.876 99.6162L812.998 102.067L795.21 114.748Z" fill="#E5E8E7"/>
<path d="M879.771 85.4464C895.642 100.219 911.348 108.713 914.852 104.419C918.355 100.125 908.329 84.6676 892.459 69.8949C876.588 55.1223 860.881 46.6279 857.378 50.9224C853.874 55.2168 863.9 70.6737 879.771 85.4464Z" fill="#D7DAD9"/>
<path d="M912.119 101.861C915.203 98.8905 906.369 84.7677 891.903 71.4187C877.439 58.0742 861.944 49.8369 859.884 53.4244C858.412 57.9833 867.392 69.0503 881.858 82.3993C896.325 95.7483 910.123 104.285 912.119 101.861Z" fill="#969696"/>
<path opacity="0.5" d="M856.929 67.9087L860.139 80.2047L899.464 103.404C899.464 103.404 861.2 88.942 857.508 85.8232C853.816 82.7045 856.929 67.9087 856.929 67.9087Z" fill="#D0D1D0"/>
<path opacity="0.5" d="M850.598 95.6771L843.259 99.5107L837.849 85.5655L847.383 83.368L882.925 116.215L875.515 135.905L873.901 114.264L850.598 95.6771Z" fill="#D0D1D0"/>
<path d="M831.907 99.3176L849.797 137.367L858.932 149.439L855.668 150.114L847.388 138.401L829.342 99.6542L831.907 99.3176Z" fill="#D1D1D1"/>
<path d="M827.706 99.8132L845.749 139.521L853.655 150.479L851.186 150.992L843.612 141.002L825.199 100.143L827.706 99.8132Z" fill="#D1D1D1"/>
<path d="M823.59 100.301L841.971 142.122L848.883 151.412L846.3 151.946L839.564 143.156L820.953 100.645L823.59 100.301Z" fill="#D0D1D0"/>
<path d="M819.062 100.838L837.081 144.843L843.247 152.497L839.28 153.321L833.823 146.469L815.481 101.3L819.062 100.838Z" fill="#D0D1D0"/>
<path d="M812.403 102.049L831.092 147.702L835.904 153.941L832.087 154.732L827.835 149.328L809.909 103.824L812.403 102.049Z" fill="#D0D1D0"/>
<path d="M807.858 105.195L825.363 151.016L828.906 155.319L825.3 156.065L822.535 152.345L805.152 107.206L807.858 105.195Z" fill="#D0D1D0"/>
<path opacity="0.5" d="M839.487 95.7644L859.042 128.101L872.247 135.182L863.267 144.455L864.901 137.51L854.75 137.499L854.84 128.15L839.487 95.7644Z" fill="#D0D1D0"/>
<path opacity="0.5" d="M862.269 114.879L870.202 116.884L868.804 128.658L866.576 119.871L862.269 114.879Z" fill="#D0D1D0"/>
<path opacity="0.5" d="M884.692 107.687L890.269 116.923L886.339 127.308L896.101 118.632L894.51 109.04L884.692 107.687Z" fill="#D0D1D0"/>
<path d="M860.071 56.4217C860.071 56.4217 894.099 75.9881 912.158 101.858C912.158 101.858 908.275 105.94 885.021 85.2217C861.767 64.5033 860.071 56.4217 860.071 56.4217Z" fill="#7E8080"/>
<path d="M273.302 130.625L280.212 133.316C280.212 133.316 290.374 156.336 298.352 161.076L314.316 156.364L374.212 185.398C374.212 185.398 410.425 180.029 418.911 177.524C427.396 175.019 442.879 161.577 442.879 161.577L450.019 153.556L473.171 171.558C473.171 171.558 512.082 179.585 517.766 172.585C523.449 165.585 525.666 153.694 523.506 142.505C523.506 142.505 521.108 139.665 531.296 130.153C541.483 120.64 535.072 108.34 532.271 103.845C529.469 99.3502 535.944 90.9337 536.601 88.9656C537.258 86.9976 540.013 77.3139 534.829 74.705C529.645 72.0961 498.308 67.155 477.363 74.521C456.419 81.887 417.957 109.504 417.957 109.504L341.243 67.6944L303.804 63.3722C303.804 63.3722 284.854 71.9234 275.623 90.0236L269.932 94.6606L273.302 130.625Z" fill="#B3DBDF"/>
<path opacity="0.5" d="M273.877 131.024L280.776 133.705C280.776 133.705 290.92 156.639 298.885 161.362L314.822 156.668L374.618 185.595C374.618 185.595 410.771 180.247 419.243 177.752C427.714 175.256 443.172 161.865 443.172 161.865L450.3 153.874L473.413 171.809C473.413 171.809 512.259 179.807 517.934 172.833C523.608 165.859 525.822 154.014 523.665 142.866C523.665 142.866 521.271 140.036 531.442 130.559C531.442 130.559 484.289 135.024 459.358 128.229L380.975 144.25L283.653 122.253L272.534 125.528L273.877 131.024Z" fill="#6EB7BA"/>
<path d="M273.616 128.695L280.611 131.417C280.611 131.417 289.313 122.269 287.776 104.178C287.776 104.178 286.935 93.6583 275.966 87.622L271.233 91.4771L273.616 128.695Z" fill="#6EB6BB"/>
<path d="M269.215 90.4459C269.215 90.4459 256.63 91.0143 253.242 92.0164C249.854 93.0185 242.797 98.8901 243.971 111.17C245.145 123.45 249.832 130.269 254.641 130.108C255.62 130.074 256.971 130.014 258.503 129.93C264.474 129.616 273.164 129.045 273.164 129.045C273.164 129.045 283.742 120.234 280.866 105.934C277.99 91.6349 273.324 92.3842 269.219 90.4388L269.215 90.4459Z" fill="#C56227"/>
<path d="M266.846 110.098C266.871 99.5851 261.551 91.2059 254.965 91.3824C248.378 91.5588 243.018 100.224 242.993 110.737C242.968 121.249 248.288 129.628 254.875 129.452C261.461 129.275 266.821 120.61 266.846 110.098Z" fill="#E57931"/>
<path opacity="0.5" d="M298.097 106.74L295.908 128.139L319.357 144.925L358.06 151.866L383.094 165.812L418.301 160.743L392.696 135.107L380.337 135.796L377.634 122.364L360.67 107.516L345.837 113.382L330.861 126.702L313.849 126.987L298.097 106.74Z" fill="#6EB7BA"/>
<path d="M288.675 134.801L300.425 151.67L333.08 142.048L304.377 144.612L288.675 134.801Z" fill="#6EB7BA"/>
<path d="M352.289 88.0056L338.281 73.1967L307.198 87.616L335.338 80.7401L352.289 88.0056Z" fill="#6EB7BA"/>
<path d="M418.631 148.238L424.49 132.982L416.744 110.668L418.631 148.238Z" fill="#6EB7BA"/>
<path d="M386.359 183.306L398.884 181.266L405.902 157.008L398.521 135.342L398.077 163.805L386.359 183.306Z" fill="#6EB7BA"/>
<path d="M432.149 115.596C432.149 115.596 457.058 94.8815 480.435 90.9605C480.435 90.9605 459.564 93.5644 452.967 96.6621C446.37 99.7599 435.964 110.393 432.149 115.596Z" fill="#6EB7BA"/>
<path d="M436.201 139.331L437.711 154.834L433.478 158.446L428.788 143.881L435.413 136.102C435.413 136.102 491.155 101.852 496.802 88.6672L507.687 96.974L501.459 138.979L500.931 99.5581C500.931 99.5581 490.995 103.081 486.628 106.141C482.261 109.202 436.201 139.331 436.201 139.331Z" fill="#6EB7BA"/>
<path opacity="0.8" d="M300.884 67.782L301.984 79.2882C301.984 79.2882 318.166 75.6932 321.618 75.8571C325.069 76.021 341.013 80.778 341.013 80.778L339.009 72.5559C339.009 72.5559 317.343 67.6546 313.361 67.6473C309.379 67.64 300.884 67.782 300.884 67.782Z" fill="#DFF0F4"/>
<path opacity="0.7" d="M298.51 68.6993L299.341 79.1114C299.341 79.1114 290.581 80.515 285.281 84.4487L298.51 68.6993Z" fill="#DFF0F4"/>
<path opacity="0.8" d="M341.427 74.5881L355.98 89.8787L412.591 109.358L341.427 74.5881Z" fill="#DFF0F4"/>
<path opacity="0.5" d="M460.419 142.618L479.242 163.758L499.2 166.166C512.376 168.799 518.738 162.17 517.097 148.413C510.942 137.177 539.753 122.131 521.589 99.0154L493.609 124.497C493.609 124.497 496.293 126.671 497.846 136.301C499.399 145.93 483.193 151.908 483.193 151.908L460.419 142.618Z" fill="#6EB7BA"/>
<path opacity="0.8" d="M426.667 124.334L431.449 133.352L483.692 94.2415L426.667 124.334Z" fill="#DFF0F4"/>
<path opacity="0.8" d="M500.106 76.9415C500.106 76.9415 520.592 76.8206 524.59 79.1999C528.589 81.5791 527.287 90.274 524.764 91.6135C522.241 92.9531 500.106 76.9415 500.106 76.9415Z" fill="#DFF0F4"/>
<path d="M1035.47 121.69C1035.47 121.69 1044.19 132.6 1046.9 132.6C1049.61 132.6 1077.58 134.527 1079.98 134.527L1082.69 133.564L1084.55 134.527C1084.55 134.527 1097.05 134.848 1098.29 134.527C1099.54 134.206 1132.32 131.316 1132.32 131.316L1134.13 132.6L1142.55 132.279L1147.06 132.279C1148.57 132.279 1156.69 129.711 1157.29 129.711C1157.89 129.711 1170.39 128.175 1170.39 128.175L1174.71 128.175C1174.71 128.175 1196.69 130.674 1199.4 130.674C1202.1 130.674 1210.52 130.353 1212.03 129.069C1213.53 127.785 1215.04 126.822 1215.04 126.822C1215.04 126.822 1215.64 112.77 1215.04 111.615C1215.04 111.615 1214.97 110.785 1215.3 110.138C1215.63 109.49 1215.04 87.9856 1214.74 87.6646C1214.43 87.3435 1213.83 86.0593 1213.83 86.0593C1213.83 86.0593 1214.13 84.7751 1213.83 83.812C1213.53 82.8489 1210.52 73.5438 1208.72 73.2228C1206.91 72.9018 1162.46 72.2597 1160.92 73.2228C1159.39 74.1859 1156.53 75.9517 1156.23 76.5938C1156.23 76.5938 1154.43 75.3096 1153.22 75.9517C1152.02 76.5938 1132.77 85.8988 1132.77 86.5409C1132.77 87.183 1132.17 89.4303 1132.17 89.4303C1132.17 89.4303 1126.75 83.3304 1124.64 83.3304C1122.54 83.3304 1084.04 81.7252 1082.53 81.7252L1078.62 81.7252L1073.63 80.6015L1067.19 82.0462C1067.19 82.0462 1051.55 80.7621 1043.43 86.5409C1035.3 92.3198 1035.45 93.5932 1035.45 93.5932L1032.6 94.5671L1031.99 120.888L1035.45 121.69L1035.47 121.69Z" fill="#B5E0F1"/>
<path opacity="0.5" d="M1214.59 87.5092C1214.29 87.1882 1213.69 85.904 1213.69 85.904C1213.69 85.904 1213.99 84.6198 1213.69 83.6567C1213.39 82.6935 1210.38 73.3885 1208.57 73.0675C1206.77 72.7464 1162.31 72.1043 1160.78 73.0675C1159.24 74.0306 1156.39 75.7964 1156.08 76.4385C1156.08 76.4385 1154.28 75.1543 1153.08 75.7964C1151.87 76.4385 1132.62 85.7435 1132.62 86.3856C1132.62 87.0277 1132.02 89.275 1132.02 89.275C1132.02 89.275 1126.6 83.1751 1124.5 83.1751C1122.39 83.1751 1083.89 81.5699 1082.39 81.5699L1078.47 81.5699L1073.48 80.4462L1067.05 81.8909C1067.05 81.8909 1051.41 80.6067 1043.28 86.3856C1035.16 92.1644 1035.31 93.4379 1035.31 93.4379L1032.45 94.4118L1032.45 105.483L1127.35 99.709L1149.31 100.351L1214.58 87.5146L1214.59 87.5092Z" fill="#F4F4F4"/>
<path opacity="0.5" d="M1198.8 123.938L1174.43 121.69L1168.11 123.295L1151.57 122.332L1134.13 123.616L1097.43 125.222L1079.38 123.938L1072.76 125.222L1048.1 122.974L1036.67 116.553L1032.15 115.59L1032 120.888L1035.46 121.69C1035.46 121.69 1044.19 132.6 1046.9 132.6C1049.61 132.6 1077.58 134.527 1079.98 134.527L1082.69 133.564L1084.55 134.527C1084.55 134.527 1097.05 134.848 1098.29 134.527C1099.54 134.206 1132.32 131.316 1132.32 131.316L1134.13 132.6L1142.55 132.279L1147.06 132.279C1148.57 132.279 1156.69 129.711 1157.29 129.711C1157.89 129.711 1170.39 128.175 1170.39 128.175L1174.71 128.175C1174.71 128.175 1196.69 130.674 1199.4 130.674C1202.1 130.674 1210.52 130.353 1212.03 129.069C1213.53 127.785 1215.04 126.822 1215.04 126.822L1215.23 120.92L1198.79 123.932L1198.8 123.938Z" fill="#466C81"/>
<path opacity="0.5" d="M1132.17 89.4356L1132.77 86.5462L1139.29 82.8969L1142.25 109.49C1142.25 109.49 1138.64 101.785 1136.53 98.5801L1132.17 89.4302L1132.17 89.4356Z" fill="#466C81"/>
<path opacity="0.5" d="M1132.32 131.322L1134.13 132.606C1134.13 132.606 1138.04 122.017 1138.34 119.448L1132.32 131.322Z" fill="#466C81"/>
<path opacity="0.5" d="M1206.32 121.048C1206.32 121.048 1200.3 111.422 1200 106.606C1199.7 101.791 1199.09 99.5914 1200 96.199C1200.9 92.8066 1204.21 84.4594 1205.41 83.5016C1206.62 82.5438 1208.12 97.3013 1208.12 99.8697C1208.12 102.438 1209.93 119.769 1206.32 121.053L1206.32 121.048Z" fill="#466C81"/>
<path opacity="0.5" d="M1212.03 119.122C1212.03 119.122 1211.43 120.727 1210.53 120.085C1209.63 119.443 1204.81 111.417 1205.11 111.096C1205.41 110.775 1212.03 117.196 1212.03 119.122Z" fill="#F4F4F4"/>
<path opacity="0.5" d="M1207.97 83.8976C1207.97 83.8976 1209.59 83.812 1209.42 84.957C1209.24 86.1021 1204.41 94.1122 1204.01 93.9517C1203.62 93.7912 1206.33 84.7002 1207.97 83.8976L1207.97 83.8976Z" fill="#F4F4F4"/>
<path opacity="0.5" d="M1213.29 101.924C1213.29 101.924 1214.08 103.144 1213.21 103.599C1212.34 104.054 1204.6 104.423 1204.53 104.033C1204.45 103.642 1211.98 101.058 1213.29 101.924Z" fill="#F4F4F4"/>
<path opacity="0.5" d="M1067.2 82.0516L1073.64 80.6069C1073.64 80.6069 1077.88 96.6539 1079.08 100.828L1067.2 82.0516Z" fill="#466C81"/>
<path opacity="0.5" d="M1079.98 134.527L1082.69 133.564L1084.55 134.527C1084.55 134.527 1084.49 129.711 1085.09 122.332L1079.98 134.527Z" fill="#466C81"/>
<path opacity="0.5" d="M1153.23 75.9517C1153.23 75.9517 1154.58 75.4702 1156.24 76.5938C1157.89 77.7175 1166.31 108.206 1166.31 108.206L1153.23 75.9517Z" fill="#466C81"/>
<path opacity="0.5" d="M1122.01 83.1003C1122.01 83.1003 1123.92 83.0094 1124.96 83.2502C1126.01 83.4909 1126.63 84.1705 1126.63 84.1705C1126.63 84.1705 1126.6 114.301 1126 116.227L1122.01 83.095L1122.01 83.1003Z" fill="#466C81"/>
<path d="M1029.45 93.1277L1029.45 122.332L1032.46 122.332L1032.46 93.1277L1029.45 93.1277Z" fill="#466C81"/>
<path d="M1027.95 95.0487L1027.95 120.727L1030.35 120.727L1030.35 95.0487L1027.95 95.0487Z" fill="#9DC3CE"/>
<path d="M1027.95 94.4067L1027.95 121.369L1017.72 121.369C1014.11 119.122 1014.71 95.3699 1017.72 94.4067L1027.95 94.4067Z" fill="#E93858"/>
<path opacity="0.5" d="M1152.19 131.086L1156.07 130C1156.07 130 1157.89 108.532 1156.69 102.754L1152.19 131.086Z" fill="#466C81"/>
<path opacity="0.5" d="M1142.25 81.1632L1144.86 79.863C1144.86 79.863 1147.27 101.464 1146.86 105.483L1142.24 81.1686L1142.25 81.1632Z" fill="#466C81"/>
<path opacity="0.2" d="M1186.46 117.196C1186.46 117.196 1193.99 115.858 1193.99 103.257C1193.99 90.6557 1194.73 86.1022 1191.35 87.1777C1187.97 88.2479 1131.94 96.0226 1129.43 100.849C1126.91 105.675 1151.87 115.59 1186.46 117.201L1186.46 117.196Z" fill="#F4F4F4"/>
<path opacity="0.2" d="M1113.37 109.972C1113.37 109.972 1124.6 106.981 1115.98 97.1622C1107.35 87.3435 1033.92 93.1652 1037.25 100.688C1040.58 108.206 1044.73 108.971 1054.55 109.972C1065.55 111.096 1103.45 115.906 1113.38 109.972L1113.37 109.972Z" fill="#F4F4F4"/>
<path opacity="0.1" d="M1025.88 96.7769C1025.88 96.7769 1026.68 96.5682 1026.06 95.894C1025.45 95.2198 1020.2 95.6157 1020.44 96.1401C1020.67 96.6645 1020.97 96.7126 1021.67 96.7822C1022.46 96.8625 1025.16 97.1942 1025.87 96.7822L1025.88 96.7769Z" fill="#F4F4F4"/>
<path d="M1029.15 93.1277L1029.15 122.332L1032.16 122.332L1032.16 93.1277L1029.15 93.1277Z" fill="#B5E0F1"/>
<path opacity="0.3" d="M1018.56 97.6384C1017.68 97.9487 1017.39 118.228 1018.56 119.149C1019.72 120.069 1022.76 119.785 1025.62 119.149C1025.62 119.149 1026.73 118.512 1025.86 117.265C1024.98 116.018 1020.89 116.644 1020.31 115.708C1019.73 114.772 1019.73 104.177 1019.73 102.31C1019.73 100.442 1019.44 97.3227 1018.56 97.633L1018.56 97.6384Z" fill="#2C4854"/>
<defs>
<clipPath id="clip0_495_782">
<rect width="90" height="161" fill="white" transform="translate(0 5)"/>
</clipPath>
</defs>
</svg>
