<svg width="221" height="260" viewBox="0 0 221 260" fill="none" xmlns="http://www.w3.org/2000/svg">
<rect y="40" width="221" height="220" rx="110" fill="#E93858"/>
<path d="M69.8366 200.857C69.8366 200.857 100.572 216.609 152.384 204.358L179.607 138.725L178.729 105.47L184.437 94.5316L184.296 48.8859L169.947 41.5874L169.069 17.9595L47.0044 51.2136L62.8113 96.7194L59.7378 109.408L84.3263 133.912L69.3975 163.665L69.8366 200.857Z" fill="#E5E8E7"/>
<path d="M110.902 50.4526C146.64 40.2539 173.554 24.8259 171.016 15.9932C168.478 7.16048 137.449 8.26789 101.71 18.4666C65.9717 28.6654 39.0576 44.0934 41.5959 52.9261C44.1341 61.7588 75.1634 60.6514 110.902 50.4526Z" fill="#D7DAD9"/>
<path d="M164.951 17.9592C163.8 10.8883 135.681 11.3171 103.207 20.5845C70.7412 29.8519 44.37 45.0876 47.3645 51.2133C52.2735 57.3391 76.2912 54.0224 108.766 44.755C141.24 35.4876 166.391 22.9735 164.951 17.9592Z" fill="#969696"/>
<path opacity="0.5" d="M64.5674 68.7158L84.7651 74.8415L155.018 38.0869C155.018 38.0869 97.9376 80.9673 90.0341 83.5926C82.1306 86.218 64.5674 68.7158 64.5674 68.7158Z" fill="#D0D1D0"/>
<path opacity="0.5" d="M97.0597 102.845L95.3034 116.847L70.7148 112.471L76.862 96.7192L156.775 73.9663L176.973 101.97L145.359 85.3427L97.0597 102.845Z" fill="#D0D1D0"/>
<path d="M84.3264 133.911L154.14 141.35L179.607 138.724L177.412 144.019L153.262 145.725L82.333 137.902L84.3264 133.911Z" fill="#D1D1D1"/>
<path d="M80.9891 140.562L153.262 149.226L176.015 147.397L174.355 151.405L153.262 153.601L79.0396 144.465L80.9891 140.562Z" fill="#D1D1D1"/>
<path d="M77.7224 147.082L153.262 157.102L172.757 155.247L171.018 159.439L152.384 161.478L75.6675 151.186L77.7224 147.082Z" fill="#D0D1D0"/>
<path d="M74.1133 154.284L152.384 166.728L168.911 164.514L166.241 170.964L151.506 172.854L71.312 159.859L74.1133 154.284Z" fill="#D0D1D0"/>
<path d="M69.415 165.188L150.628 178.105L163.897 176.608L161.324 182.813L149.749 184.23L69.4765 170.342L69.415 165.188Z" fill="#D0D1D0"/>
<path d="M69.415 174.709L149.749 189.481L159.119 188.124L156.687 193.988L148.871 194.732L69.5995 180.38L69.415 174.709Z" fill="#D0D1D0"/>
<path opacity="0.5" d="M86.5215 119.472H150.215L172.757 106.556L176.972 127.672L168.911 119.227L159.119 133.912L146.237 125.598L86.5215 119.472Z" fill="#D0D1D0"/>
<path opacity="0.5" d="M134.821 102.871L145.271 93.1138L160.288 105.47L145.921 100.999L134.821 102.871Z" fill="#D0D1D0"/>
<path opacity="0.5" d="M146.237 63.465H164.538L175.216 78.3419L172.582 56.4641L157.653 50.3384L146.237 63.465Z" fill="#D0D1D0"/>
<path d="M51.7202 53.6027C51.7202 53.6027 111.655 21.4599 164.951 17.9595C164.951 17.9595 166.874 27.1569 115.721 42.6901C64.5677 58.2233 51.7202 53.6027 51.7202 53.6027Z" fill="#7E8080"/>
</svg>
