<svg width="221" height="261" viewBox="0 0 221 261" fill="none" xmlns="http://www.w3.org/2000/svg">
<rect y="41" width="221" height="220" rx="110" fill="#E93858"/>
<path d="M78.897 7.39216H87.4166C87.4166 7.39216 89.75 59.4432 91.9206 61.6827C94.0912 63.9222 103.316 65.6032 116.34 60.5657C129.363 55.5281 137.503 54.9696 137.503 54.9696C137.503 54.9696 137.503 48.2511 139.674 38.1814C141.844 28.1063 135.333 5.71663 135.333 5.71663L136.418 4.59961C136.418 4.59961 144.558 25.3083 146.186 28.1063C147.814 30.9044 148.899 58.8901 148.899 60.0072C148.899 61.1242 144.015 64.4862 142.387 67.2842C140.759 70.0822 140.216 74.5613 140.216 74.5613C140.216 74.5613 131.534 76.8008 129.363 76.2423C127.193 75.6838 122.852 71.2047 116.34 70.0877C109.828 68.9707 86.4941 63.3692 86.4941 63.3692L78.897 7.39764V7.39216Z" fill="#6EB0E0"/>
<path d="M84.3237 7.39205H77.6491C77.6491 7.39205 70.2148 43.531 64.2456 56.1248C58.2765 68.7187 52.85 69.2663 51.222 108.691C49.5941 148.115 33.8572 191.372 36.5705 196.3C39.2837 201.228 43.0823 205.609 65.8736 208.346C88.6649 211.084 87.0369 208.346 102.231 205.609C117.425 202.871 140.624 212.256 154.26 209.48C167.892 206.704 182.001 204.513 182.001 204.513L179.559 100.203C179.559 100.203 175.76 36.1389 141.031 0L133.976 4.38048C133.976 4.38048 139.945 13.689 143.201 22.9975C146.457 32.306 147 60.7791 147 60.7791C147 60.7791 136.689 63.5169 137.232 66.2547C137.775 68.9925 133.976 74.4681 129.635 73.373C125.294 72.2779 90.0215 59.684 87.8509 59.1364C85.6803 58.5889 84.3237 7.39205 84.3237 7.39205Z" fill="#92CCF0"/>
<path d="M82.2832 7.39209H77.5405C77.5405 7.39209 70.7248 38.4989 69.0697 42.1128C67.4146 45.7267 62.9486 58.8353 58.9384 65.6962C54.9282 72.5571 52.7685 77.195 51.6778 98.4184C50.587 119.642 42.8488 161.344 42.9194 162.121C42.9899 162.899 36.1471 191.224 36.1471 191.224C36.1471 191.224 35.8161 193.245 36.1471 195.046C36.4781 196.848 36.7495 196.946 38.5131 199.361C38.5131 199.361 39.9728 201.551 42.838 202.756C42.838 202.756 45.3776 203.993 46.897 204.524C46.897 204.524 50.4134 205.663 51.5855 205.91L55.9918 206.868C55.9918 206.868 56.8384 180.947 59.1392 170.828C61.44 160.709 60.9625 84.4775 62.8292 76.3244C64.6959 68.1712 75.5489 37.5079 77.7195 29.2945C79.8901 21.0811 82.2832 7.39209 82.2832 7.39209Z" fill="#A6DFF2"/>
<path opacity="0.2" d="M115.173 103.724C115.776 92.4444 116.204 70.4873 116.204 70.4873C116.204 70.4873 123.937 72.798 127.312 74.8021C127.312 74.8021 129.147 88.4089 127.665 101.107C126.189 113.805 112.558 152.709 110.648 167.471C108.737 182.233 108.558 188.82 108.558 188.82L105.997 191.706C105.997 191.706 115.591 113.854 115.173 103.73" fill="#A6DFF2"/>
<path opacity="0.3" d="M153.696 140.093C153.696 140.093 159.123 128.594 159.123 108.335C159.123 88.075 156.409 65.981 156.409 65.981C156.409 65.981 166.177 114.905 166.177 131.332C166.177 147.759 167.262 154.877 165.092 157.615C162.921 160.353 147.727 165.828 139.587 172.399C131.448 178.97 115.711 195.397 115.711 195.397H113.578C113.578 195.397 142.301 152.139 144.471 149.949C146.642 147.759 153.696 140.093 153.696 140.093Z" fill="#A6DFF2"/>
<path opacity="0.3" d="M85.5174 40.114C85.5174 40.114 79.3095 55.3855 78.7886 65.9808C78.2676 76.576 86.8035 142.913 85.5174 149.44C84.2314 155.967 93.9339 61.4086 93.9339 61.4086L87.7369 59.3279C87.7369 59.3279 86.3097 54.3013 85.9461 46.9585C85.5825 39.6158 85.512 40.114 85.512 40.114H85.5174Z" fill="#A6DFF2"/>
<path opacity="0.2" d="M68.4998 140.641C68.4998 140.641 68.4998 173.494 70.6704 176.78C72.841 180.065 88.5779 183.898 88.5779 183.898V203.851C88.5779 203.851 61.988 201.42 62.5307 188.826C63.0733 176.232 68.4998 140.641 68.4998 140.641Z" fill="#A6DFF2"/>
</svg>
