<svg width="287" height="273" viewBox="0 0 287 273" fill="none" xmlns="http://www.w3.org/2000/svg">
<rect x="43" y="53" width="221" height="220" rx="110" fill="#E93858"/>
<g clip-path="url(#clip0_435_442)">
<path d="M240.217 186.821C242.228 181.579 243.465 172.399 243.465 172.399C244.403 149.66 225.621 141.726 221.049 139.087C216.478 136.448 199.623 136.611 199.623 136.611C199.623 136.611 196.324 135.288 198.311 123.049C200.298 110.81 196.085 101.393 190.225 92.1892C184.365 82.9856 172.814 77.4807 167.369 78.9935C161.925 80.5063 156.721 78.0837 156.721 78.0837C152.531 75.6645 154.535 68.6736 154.535 68.6736C154.535 68.6736 157.279 55.1249 147.967 36.9443C138.655 18.7637 120.927 23.0788 117.633 23.5053C114.34 23.9318 110.659 22.389 110.659 22.389C105.086 23.2453 101.569 32.8554 101.569 32.8554C101.569 32.8554 101.071 35.4778 101.452 35.6977C101.833 35.9177 97.5484 43.3385 96.2883 45.5211C95.0281 47.7036 88.0946 58.8332 86.5825 61.4523C85.0703 64.0714 74.5622 67.3169 65.9587 71.662C57.3552 76.0071 55.8258 73.378 55.8258 73.378C55.8258 73.378 45.4581 80.7788 44.9598 83.4012C44.4616 86.0237 44.5905 86.6801 44.5905 86.6801C44.5905 86.6801 44.9069 86.5718 42.6503 93.9993C40.3937 101.427 41.4364 110.177 41.9463 111.054C42.4561 111.93 52.8047 137.111 69.6597 136.948C86.5147 136.785 85.6355 139.188 85.6355 139.188C87.5459 142.037 84.7967 153.836 84.7967 153.836C82.8326 173.073 94.5182 180.983 102.019 188.224C109.521 195.465 127.636 193.12 129.921 194.439C132.207 195.759 131.328 198.161 130.952 199.691C130.577 201.22 130.208 204.499 130.208 204.499C123.555 223.939 138.493 238.093 143.961 243.578C149.429 249.062 162.609 249.106 166.788 248.026C170.966 246.947 173.129 249.359 173.129 249.359C176.422 248.933 183.238 240.646 183.238 240.646C183.238 240.646 183.362 239.553 185.12 234.748C186.878 229.942 190.547 227.987 201.911 215.341C213.262 202.71 226.538 199.905 226.802 199.447C227.028 198.995 228.349 200.339 228.73 200.559C229.111 200.779 239.478 193.379 239.478 193.379C239.478 193.379 238.207 192.062 240.217 186.821ZM176.99 176.112C178.622 174.912 180.007 170.887 181.639 169.687C183.267 168.486 186.212 177.152 181.567 183.579C176.922 190.006 171.899 190.86 171.899 190.86C161.853 188.273 163.256 186.941 163.37 185.936C163.483 184.93 165.351 184.932 166.742 184.414C168.133 183.896 176.99 176.112 176.99 176.112ZM157.506 85.5212C162.065 84.6615 171.056 82.2857 181.352 91.7226C191.649 101.159 193.448 108.6 193.711 111.663C193.975 114.725 195.158 127.631 188.969 133.952C182.78 140.273 167.197 141.752 158.312 137.787C149.428 133.821 145.876 132.935 143.31 123.305C140.743 113.675 143.868 100.346 148.152 92.9253C148.152 92.9253 152.946 86.3809 157.506 85.5212ZM131.658 118.591C133.428 117.285 134.934 112.917 136.704 111.61C138.474 110.304 141.673 119.718 136.627 126.699C131.581 133.68 126.129 134.606 126.129 134.606C115.216 131.798 116.742 130.351 116.865 129.258C116.988 128.165 119.016 128.171 120.53 127.608C122.04 127.042 131.658 118.591 131.658 118.591ZM116.606 28.2143C135.728 25.6292 142.25 36.2279 142.25 36.2279C152.175 51.922 149.793 58.3169 150.735 61.5498C151.681 64.7849 146.734 75.5536 143.759 78.9813C140.785 82.4091 140.723 81.7332 140.723 81.7332C128.212 84.8934 117.44 81.8052 107.361 75.4567C97.285 69.1039 101.058 56.1905 102.983 45.1145C104.907 34.0319 116.606 28.2143 116.606 28.2143ZM77.7501 73.2315C81.1726 73.4615 89.3815 66.281 89.3815 66.281C89.3815 66.281 91.4056 63.6549 92.7762 60.4012C94.1469 57.1474 95.186 57.1071 95.9478 57.547C96.7097 57.9868 96.8617 65.6409 95.7363 70.2293C94.6108 74.8178 90.3091 76.9904 88.5392 78.2966C86.7692 79.6028 76.6189 76.0706 76.1497 76.0034C75.6806 75.9363 74.3275 73.0016 77.7501 73.2315ZM52.0611 123.005C47.8593 117.086 40.0945 106.783 48.2766 89.9724C48.2766 89.9724 53.446 81.8985 61.4223 79.5193C69.3986 77.1402 86.7692 79.6028 90.9652 83.7714C95.1611 87.94 99.2803 107.197 90.4652 124.224C81.6502 141.252 56.2628 128.923 52.0611 123.005ZM102.361 101.491C102.053 102.395 101.05 105.891 100.417 106.107C99.7843 106.324 99.4905 105.997 99.4905 105.997C99.4905 105.997 97.1178 104.784 97.4814 99.756C97.845 94.7277 97.9623 91.8854 101.754 88.8364C105.546 85.7875 109.842 81.8655 114.794 84.7246C119.746 87.5836 118.861 88.2367 118.609 88.6732C118.357 89.1098 114.812 89.9728 113.422 91.4989C112.033 93.0251 104.665 97.5011 102.361 101.491ZM97.6739 119.656C103.98 110.492 108.517 102.635 115.725 98.0667C122.934 93.4983 136.22 87.2005 137.744 88.0802C139.268 88.9599 143.194 88.3168 141.061 94.6514C138.927 100.986 131.685 110.89 130.577 112.81C129.468 114.731 116.193 124.528 114.294 125.178C112.395 125.827 102.352 130.907 98.3823 130.745C98.3823 130.745 91.3675 128.819 97.6739 119.656ZM98.7876 182.826C98.7876 182.826 86.3066 172.774 88.9718 153.202C88.9718 153.202 90.1479 143.248 98.1127 137.37C98.1127 137.37 132.309 130.922 136.921 145.807C141.532 160.692 139.428 175.774 136.908 180.139C134.387 184.504 122.941 199.931 98.7876 182.826ZM152.173 155.748C151.026 156.529 148.78 161.07 147.268 163.69C145.756 166.309 145.117 164.776 144.607 163.899C144.098 163.023 143.694 155.806 145.956 150.127C148.218 144.449 155.226 144.328 155.226 144.328C159.572 144.41 164.194 146.689 164.833 148.222C165.472 149.754 162.811 149.964 161.416 149.741C160.021 149.518 153.323 154.963 152.173 155.748ZM141.719 178.843C148.026 169.679 152.562 161.822 159.771 157.254C166.979 152.685 180.266 146.387 181.789 147.267C183.313 148.147 187.24 147.504 185.106 153.838C182.972 160.173 175.731 170.077 174.622 171.997C173.513 173.918 160.238 183.715 158.34 184.364C156.441 185.014 146.397 190.094 142.428 189.932C142.428 189.932 135.413 188.006 141.719 178.843ZM160.693 244.507C159.298 244.284 143.967 245.327 137.081 232.621C130.196 219.916 133.701 206.807 136.086 200.036C136.086 200.036 140.505 195.021 144.051 194.158C147.597 193.295 169.381 188.993 176.759 197.327C184.137 205.661 182.049 225.99 177.642 234.504C173.234 243.018 162.088 244.731 160.693 244.507ZM204.178 204.113C202.783 203.89 196.085 209.334 194.935 210.12C193.788 210.901 191.542 215.442 190.03 218.061C188.518 220.68 187.879 219.148 187.37 218.271C186.86 217.395 186.456 210.177 188.718 204.499C190.981 198.821 197.988 198.7 197.988 198.7C202.334 198.782 206.956 201.061 207.595 202.593C208.234 204.126 205.573 204.336 204.178 204.113ZM230.219 190.943C225.923 194.865 219.588 195.281 219.588 195.281C201.344 196.97 193.215 191.695 188.504 184.901C183.792 178.107 191.312 152.765 192.444 149.926C193.575 147.087 200.279 143.392 200.279 143.392C224.472 139.317 228.82 151.139 234.798 157.501C240.775 163.862 236.918 185.498 235.542 187.52C234.17 189.545 234.515 187.021 230.219 190.943Z" fill="#E5E8E7"/>
</g>
<defs>
<clipPath id="clip0_435_442">
<rect width="223.544" height="185.842" fill="white" transform="translate(93) rotate(30)"/>
</clipPath>
</defs>
</svg>
