<svg width="562" height="561" viewBox="0 0 562 561" fill="none" xmlns="http://www.w3.org/2000/svg">
<path d="M68.1211 497.563L162.261 462.047L344.776 393.143L182.593 242.832L124.497 372.16L68.1211 497.563Z" fill="#E93858"/>
<path d="M344.776 393.143L261.155 424.702C261.155 424.702 280.948 390.516 272.316 326.002L344.776 393.143Z" fill="#9B0832"/>
<path d="M228.249 437.139L193.62 450.208C193.62 450.208 216.144 363.912 182.595 242.865L229.968 301.393C229.968 301.393 260.247 343.46 228.249 437.139Z" fill="#9B0832"/>
<path d="M344.746 393.169C353.673 383.8 324.606 342.56 279.824 301.055C235.042 259.551 191.503 233.499 182.576 242.868C173.65 252.237 202.716 293.478 247.498 334.982C292.28 376.487 335.819 402.538 344.746 393.169Z" fill="#62051F"/>
<path d="M136.264 471.857L162.261 462.046C162.261 462.046 173.084 374.52 149.279 317.987L124.497 372.126C124.497 372.126 137.006 389.584 136.264 471.823V471.857Z" fill="#9B0832"/>
<path d="M68.1211 497.563L104.705 483.762C104.705 483.762 109.999 465.804 99.1752 428.493L68.1211 497.563Z" fill="#9B0832"/>
<path d="M207.205 194.945C216.051 194.945 223.221 187.872 223.221 179.149C223.221 170.425 216.051 163.353 207.205 163.353C198.36 163.353 191.189 170.425 191.189 179.149C191.189 187.872 198.36 194.945 207.205 194.945Z" stroke="#9B0832" stroke-width="11.082" stroke-miterlimit="10"/>
<path d="M355.566 158.364C364.412 158.364 371.582 151.292 371.582 142.568C371.582 133.845 364.412 126.772 355.566 126.772C346.721 126.772 339.55 133.845 339.55 142.568C339.55 151.292 346.721 158.364 355.566 158.364Z" stroke="#9B0832" stroke-width="11.082" stroke-miterlimit="10"/>
<path d="M429.744 308.011C438.59 308.011 445.76 300.939 445.76 292.215C445.76 283.491 438.59 276.419 429.744 276.419C420.899 276.419 413.729 283.491 413.729 292.215C413.729 300.939 420.899 308.011 429.744 308.011Z" stroke="#9B0832" stroke-width="11.082" stroke-miterlimit="10"/>
<path d="M412.043 367.869V387.822" stroke="#6AB1AF" stroke-width="11.082" stroke-miterlimit="10" stroke-linecap="round"/>
<path d="M422.158 377.845H401.928" stroke="#6AB1AF" stroke-width="11.082" stroke-miterlimit="10" stroke-linecap="round"/>
<path d="M333.514 243.297L321.983 259.658" stroke="#6AB1AF" stroke-width="11.082" stroke-miterlimit="10" stroke-linecap="round"/>
<path d="M336.044 257.164L319.455 245.791" stroke="#6AB1AF" stroke-width="11.082" stroke-miterlimit="10" stroke-linecap="round"/>
<path d="M299.797 87L288.266 103.361" stroke="#6AB1AF" stroke-width="11.082" stroke-miterlimit="10" stroke-linecap="round"/>
<path d="M302.326 100.867L285.736 89.4944" stroke="#6AB1AF" stroke-width="11.082" stroke-miterlimit="10" stroke-linecap="round"/>
<path d="M245.444 277.416C245.444 277.416 286.04 228.099 275.183 152.345" stroke="white" stroke-width="11.082" stroke-miterlimit="10" stroke-linecap="round"/>
<path d="M290.66 327.964C290.66 327.964 324.378 304.686 354.724 301.36" stroke="white" stroke-width="11.082" stroke-miterlimit="10" stroke-linecap="round"/>
<path d="M371.582 221.548C371.582 221.548 405.3 198.27 435.646 194.944" stroke="white" stroke-width="11.082" stroke-miterlimit="10" stroke-linecap="round"/>
<path d="M378.326 304.685C382.05 304.685 385.069 301.707 385.069 298.034C385.069 294.361 382.05 291.383 378.326 291.383C374.601 291.383 371.582 294.361 371.582 298.034C371.582 301.707 374.601 304.685 378.326 304.685Z" fill="white"/>
<path d="M472.736 341.266C476.46 341.266 479.479 338.288 479.479 334.615C479.479 330.941 476.46 327.964 472.736 327.964C469.011 327.964 465.992 330.941 465.992 334.615C465.992 338.288 469.011 341.266 472.736 341.266Z" fill="white"/>
<path d="M459.447 416.537C463.172 416.537 466.191 413.559 466.191 409.886C466.191 406.212 463.172 403.235 459.447 403.235C455.723 403.235 452.704 406.212 452.704 409.886C452.704 413.559 455.723 416.537 459.447 416.537Z" fill="white"/>
<path d="M459.247 194.945C462.972 194.945 465.991 191.967 465.991 188.294C465.991 184.621 462.972 181.643 459.247 181.643C455.523 181.643 452.504 184.621 452.504 188.294C452.504 191.967 455.523 194.945 459.247 194.945Z" fill="white"/>
<path d="M310.889 208.246C314.613 208.246 317.632 205.268 317.632 201.595C317.632 197.922 314.613 194.944 310.889 194.944C307.164 194.944 304.145 197.922 304.145 201.595C304.145 205.268 307.164 208.246 310.889 208.246Z" fill="white"/>
<path d="M199.621 115.133C203.345 115.133 206.365 112.156 206.365 108.482C206.365 104.809 203.345 101.832 199.621 101.832C195.897 101.832 192.877 104.809 192.877 108.482C192.877 112.156 195.897 115.133 199.621 115.133Z" fill="white"/>
</svg>
