<svg width="289" height="333" viewBox="0 0 289 333" fill="none" xmlns="http://www.w3.org/2000/svg">
<path d="M19.8206 32.9707C19.8206 32.9707 3.15952 47.1804 3.15952 51.5928C3.15952 56.0053 0.217898 101.584 0.217898 105.506L1.68871 109.919L0.217898 112.95C0.217898 112.95 -0.272373 133.313 0.217898 135.339C0.708169 137.366 5.1206 190.789 5.1206 190.789L3.15952 193.73L3.64979 207.458V214.812C3.64979 217.263 7.57196 230.493 7.57196 231.473C7.57196 232.454 9.91709 252.824 9.91709 252.824V259.868C9.91709 259.868 6.10115 295.682 6.10115 300.087C6.10115 304.491 6.59142 318.218 8.5525 320.67C10.5136 323.121 11.9844 325.572 11.9844 325.572C11.9844 325.572 33.4419 326.553 35.2069 325.572C35.2069 325.572 36.4734 325.466 37.4621 326.005C38.4508 326.545 71.2908 325.572 71.7811 325.082C72.2713 324.592 74.2324 323.611 74.2324 323.611C74.2324 323.611 76.1935 324.102 77.6643 323.611C79.1351 323.121 93.3448 318.218 93.8351 315.277C94.3253 312.335 95.3059 239.898 93.8351 237.397C92.3643 234.897 89.6678 230.239 88.6872 229.749C88.6872 229.749 90.6483 226.807 89.6678 224.846C88.6872 222.885 74.4776 191.516 73.497 191.516C72.5165 191.516 69.0846 190.536 69.0846 190.536C69.0846 190.536 78.3997 181.711 78.3997 178.279C78.3997 174.847 80.8511 112.109 80.8511 109.657V103.284L82.567 95.1534L80.3608 84.6616C80.3608 84.6616 82.3219 59.1757 73.497 45.9384C64.6721 32.7011 62.7274 32.9462 62.7274 32.9462L61.2402 28.2886L21.0462 27.3081L19.8206 32.9462V32.9707Z" fill="#B5E0F1"/>
<path opacity="0.5" d="M72.0183 324.845C72.5085 324.355 74.4696 323.374 74.4696 323.374C74.4696 323.374 76.4307 323.865 77.9015 323.374C79.3723 322.884 93.582 317.981 94.0723 315.04C94.5625 312.098 95.5431 239.661 94.0723 237.16C92.6015 234.66 89.905 230.002 88.9244 229.512C88.9244 229.512 90.8855 226.571 89.905 224.609C88.9244 222.648 74.7148 191.279 73.7342 191.279C72.7537 191.279 69.3218 190.299 69.3218 190.299C69.3218 190.299 78.6369 181.474 78.6369 178.042C78.6369 174.61 81.0883 111.872 81.0883 109.42V103.047L82.8042 94.9165L80.598 84.4247C80.598 84.4247 82.5591 58.9388 73.7342 45.7015C64.9093 32.4642 62.9646 32.7093 62.9646 32.7093L61.4775 28.0518H44.5713L53.388 182.691L52.4074 218.473L72.0101 324.829L72.0183 324.845Z" fill="#F4F4F4"/>
<path opacity="0.5" d="M16.3887 299.114L19.8206 259.41L17.3692 249.115L18.84 222.158L16.8789 193.73L14.4276 133.934L16.3887 104.526L14.4276 93.7398L17.8595 53.5458L27.6649 34.9237L29.1357 27.5696L21.0462 27.3245L19.8206 32.9626C19.8206 32.9626 3.15952 47.1804 3.15952 51.5929C3.15952 56.0053 0.217898 101.584 0.217898 105.506L1.68871 109.919L0.217898 112.95C0.217898 112.95 -0.272373 133.313 0.217898 135.339C0.708169 137.366 5.1206 190.789 5.1206 190.789L3.15952 193.73L3.64979 207.458V214.812C3.64979 217.263 7.57196 230.493 7.57196 231.473C7.57196 232.454 9.91709 252.824 9.91709 252.824V259.868C9.91709 259.868 6.10115 295.682 6.10115 300.087C6.10115 304.491 6.59142 318.218 8.5525 320.67C10.5136 323.121 11.9844 325.572 11.9844 325.572L20.9972 325.891L16.3968 299.106L16.3887 299.114Z" fill="#466C81"/>
<path opacity="0.5" d="M69.0767 190.544L73.4892 191.524L79.0619 202.139L38.4512 206.968C38.4512 206.968 50.2177 201.085 55.1122 197.653L69.0849 190.544H69.0767Z" fill="#466C81"/>
<path opacity="0.5" d="M5.11245 190.789L3.15137 193.731C3.15137 193.731 19.3221 200.104 23.2443 200.594L5.11245 190.789Z" fill="#466C81"/>
<path opacity="0.5" d="M20.8011 311.363C20.8011 311.363 35.5011 301.557 42.8551 301.067C50.2092 300.577 53.5676 299.596 58.7481 301.067C63.9286 302.538 76.6756 307.931 78.1383 309.892C79.6009 311.853 57.0648 314.304 53.1427 314.304C49.2205 314.304 22.7541 317.246 20.793 311.363H20.8011Z" fill="#466C81"/>
<path opacity="0.5" d="M23.7424 320.678C23.7424 320.678 21.291 319.698 22.2716 318.227C23.2521 316.756 35.5089 308.912 35.9991 309.402C36.4894 309.892 26.684 320.678 23.7424 320.678Z" fill="#F4F4F4"/>
<path opacity="0.5" d="M77.534 314.051C77.534 314.051 77.6648 316.69 75.9161 316.413C74.1675 316.135 61.9353 308.258 62.1804 307.612C62.4255 306.967 76.3084 311.387 77.534 314.059V314.051Z" fill="#F4F4F4"/>
<path opacity="0.5" d="M50.005 322.721C50.005 322.721 48.142 324.012 47.4475 322.598C46.7529 321.185 46.1891 308.568 46.7856 308.446C47.3821 308.323 51.3288 320.596 50.005 322.721Z" fill="#F4F4F4"/>
<path opacity="0.5" d="M80.3523 84.678L82.5586 95.1698C82.5586 95.1698 58.0532 102.074 51.6797 104.035L80.3523 84.678Z" fill="#466C81"/>
<path opacity="0.5" d="M0.217773 105.506L1.68859 109.919L0.217773 112.95C0.217773 112.95 7.57183 112.852 18.8399 113.833L0.217773 105.506Z" fill="#466C81"/>
<path opacity="0.5" d="M89.668 224.854C89.668 224.854 90.4034 227.061 88.6874 229.757C86.9715 232.454 40.4121 246.173 40.4121 246.173L89.668 224.854Z" fill="#466C81"/>
<path opacity="0.5" d="M78.7508 173.981C78.7508 173.981 78.8898 177.102 78.522 178.802C78.1543 180.502 77.1166 181.515 77.1166 181.515C77.1166 181.515 31.1047 181.474 28.1631 180.493L78.759 173.981H78.7508Z" fill="#466C81"/>
<path d="M63.4381 23.1655H18.8398V28.0682H63.4381V23.1655Z" fill="#466C81"/>
<path d="M60.5045 20.7141H21.291V24.6363H60.5045V20.7141Z" fill="#9DC3CE"/>
<path d="M61.4851 20.7141H20.3105V4.05306C23.7424 -1.83019 60.0143 -0.849651 61.4851 4.05306V20.7141Z" fill="#E93858"/>
<path opacity="0.5" d="M5.47168 223.171L7.13043 229.488C7.13043 229.488 39.9132 232.454 48.7381 230.493L5.47168 223.171Z" fill="#466C81"/>
<path opacity="0.5" d="M81.7093 206.968L83.6949 211.217C83.6949 211.217 50.7078 215.147 44.5713 214.485L81.7011 206.96L81.7093 206.968Z" fill="#466C81"/>
<path opacity="0.2" d="M26.684 279.013C26.684 279.013 28.7267 291.27 47.9699 291.27C67.213 291.27 74.1667 292.487 72.5243 286.98C70.89 281.473 59.0173 190.176 51.6469 186.074C44.2765 181.972 29.1353 222.648 26.6758 279.013H26.684Z" fill="#F4F4F4"/>
<path opacity="0.2" d="M37.7149 159.91C37.7149 159.91 42.2826 178.214 57.2767 164.159C72.2708 150.105 63.3806 30.4378 51.8919 35.8716C40.4114 41.3054 39.2429 48.063 37.7149 64.054C35.999 81.9815 28.6531 143.739 37.7149 159.918V159.91Z" fill="#F4F4F4"/>
<path opacity="0.1" d="M57.8659 17.3395C57.8659 17.3395 58.1846 18.6469 59.2142 17.6418C60.2437 16.6367 59.6391 8.08969 58.8383 8.47374C58.0375 8.85778 57.964 9.34805 57.8577 10.4838C57.7352 11.7667 57.2286 16.1792 57.8577 17.3313L57.8659 17.3395Z" fill="#F4F4F4"/>
<path d="M63.4381 22.6753H18.8398V27.578H63.4381V22.6753Z" fill="#B5E0F1"/>
<path opacity="0.3" d="M56.5498 5.40952C56.0759 3.97956 25.1071 3.50564 23.7017 5.40952C22.2962 7.3134 22.7293 12.2651 23.7017 16.9227C23.7017 16.9227 24.6741 18.7285 26.5779 17.3068C28.4818 15.885 27.5258 9.21729 28.9558 8.26943C30.3857 7.32158 46.5646 7.32158 49.4164 7.32158C52.2681 7.32158 57.0319 6.84765 56.558 5.41769L56.5498 5.40952Z" fill="#2C4854"/>
<path d="M193.53 62.3858C193.53 62.3858 165.243 37.785 165.243 35.9627C165.243 34.1405 164.359 34.1405 167.895 30.4959C171.431 26.8513 173.199 24.1179 175.851 24.1179C178.503 24.1179 205.906 25.9402 212.094 26.8513C218.282 27.7625 226.238 35.9627 226.238 35.9627L204.58 36.4183C204.58 36.4183 205.464 36.4183 198.392 35.5072C191.32 34.596 188.668 34.596 188.668 34.596L196.624 40.0629L193.53 62.3858Z" fill="black"/>
<path d="M196.624 40.0629C196.624 40.0629 178.502 29.5848 178.502 27.7626C178.502 25.9403 210.326 27.7626 212.978 28.6737C215.63 29.5848 223.091 36.0266 223.091 36.0266L226.238 35.9628C226.238 35.9628 220.05 29.5848 215.63 27.7626C211.21 25.9403 179.139 23.298 175.285 24.1636C171.43 25.0291 165.242 32.3183 165.242 33.2294C165.242 34.1405 164.359 35.0517 165.242 35.9628C166.126 36.874 192.646 61.4747 193.53 62.3859C194.414 63.297 196.624 40.0629 196.624 40.0629Z" fill="#252B2B"/>
<path d="M196.182 77.8751H281.549C281.549 77.8751 286.349 76.9639 286.349 96.0978C286.349 115.232 289.001 312.949 289.001 316.594C289.001 320.238 286.349 326.616 279.277 327.527C272.205 328.438 259.272 339.372 193.689 327.527C193.689 327.527 189.994 326.616 189.994 315.682C189.994 304.749 192.646 90.631 193.53 86.0753C194.414 81.5196 196.182 77.8751 196.182 77.8751Z" fill="#6EB7BA"/>
<path opacity="0.7" d="M194.811 77.875C194.811 77.875 191.991 83.3418 191.991 86.0753C191.991 88.8087 188.226 312.94 188.226 316.584C188.226 320.229 188.57 325.705 192.159 327.527C195.748 329.349 217.503 331.163 217.503 331.163C217.503 331.163 200.566 159.067 202.864 97.0636C202.864 97.0636 203.28 83.3509 204.217 80.6175L205.154 77.8841H194.802L194.811 77.875Z" fill="#2B4746"/>
<path opacity="0.5" d="M246.914 156.415C246.914 156.415 246.268 119.997 249.592 116.808C252.916 113.619 272.434 115.806 274.388 117.519C276.342 119.232 270.764 309.022 265.504 310.216C261.998 311.011 259.664 309.796 258.503 306.571C256.761 301.733 246.914 156.415 246.914 156.415Z" fill="#A6DDDD"/>
<path d="M251.405 106.23C254.013 110.685 264.435 112.17 269.641 109.2C274.848 106.23 274.848 99.542 273.115 95.8246C271.383 92.1071 267.034 90.622 258.353 92.1071C249.672 93.5923 248.797 101.765 251.405 106.23Z" fill="#A6DDDD"/>
<path d="M247.453 34.4775C247.453 34.4775 248.169 6.26864 248.169 4.78348C248.169 3.29832 248.885 0.32801 250.326 0.32801C251.767 0.32801 261.5 -0.410013 262.03 0.32801C262.561 1.06603 264.01 0.328011 264.01 7.7538C264.01 15.1796 264.726 21.8582 264.726 21.8582L266.167 23.3434L266.883 35.9627H247.436V34.4775H247.453Z" fill="#252B2B"/>
<path d="M247.453 35.9625V34.4774C247.453 34.4774 248.169 6.26851 248.169 4.78335C248.169 3.2982 248.885 0.327881 250.326 0.327881C250.326 0.327881 254.516 15.9175 255.4 17.7398C256.284 19.562 263.356 30.4684 263.356 33.2109V35.9625H247.444H247.453Z" fill="black"/>
<path opacity="0.4" d="M259.943 2.42358C259.943 2.42358 252.509 2.39625 251.899 2.56025C251.289 2.72426 251.28 3.13427 251.908 3.21627C252.536 3.29828 260.863 3.27094 261.331 3.06138C261.8 2.85182 261.8 2.55114 259.943 2.43269V2.42358Z" fill="#A6DDDD"/>
<path d="M198.834 35.0515C198.834 35.0515 193.53 36.8738 193.53 40.5184V75.6063C193.53 77.8751 195.298 79.752 198.834 79.7247C202.37 79.6974 280.629 78.8409 281.284 79.7247C281.938 80.6085 285.465 76.0528 285.465 73.3194C285.465 70.586 281.929 36.8738 281.929 36.8738C281.929 36.8738 278.393 33.2292 273.089 33.2292C267.785 33.2292 198.834 35.0515 198.834 35.0515Z" fill="#252B2B"/>
<path d="M198.834 35.0242C198.834 35.0242 193.53 36.8464 193.53 40.491V75.579C193.53 77.8477 195.298 79.7247 198.834 79.6973H208.867L198.834 35.0242Z" fill="black"/>
<path opacity="0.4" d="M247.241 39.9899C247.241 39.9899 274.079 38.4137 275.653 40.4182C277.226 42.4227 277.774 70.8958 276.705 72.6178C275.635 74.3399 264.161 74.8775 260.519 70.8047C256.877 66.7319 239.648 44.5547 241.637 42.532C243.626 40.5093 247.241 39.9899 247.241 39.9899Z" fill="#A6DDDD"/>
<path opacity="0.4" d="M231.577 41.5023C231.577 41.5023 210.308 41.3383 208.575 41.885C206.843 42.4317 206.816 43.8622 208.611 44.1446C210.405 44.4271 234.22 44.4362 235.564 43.6982C236.907 42.9601 236.89 41.9305 231.577 41.5023Z" fill="#A6DDDD"/>
<path opacity="0.4" d="M215.126 46.3405C215.126 46.3405 209 45.9304 208.505 46.4498C208.01 46.9691 208.019 48.4087 208.541 48.7094C209.062 49.0101 215.913 49.3017 216.293 48.5819C216.673 47.8621 216.656 46.8325 215.126 46.3405Z" fill="#A6DDDD"/>
</svg>
