<svg width="224" height="388" viewBox="0 0 224 388" fill="none" xmlns="http://www.w3.org/2000/svg">
<path opacity="0.5" d="M213.92 135.753C213.92 135.753 25.4712 137.249 12.3916 141.546L101.883 155.15L213.92 135.753Z" fill="#7A0020"/>
<path d="M75.7238 192.385C75.7238 192.385 61.9558 195.249 51.6299 190.236C51.6299 190.236 52.3183 166.607 54.3835 155.15C56.4487 143.694 64.021 110.04 66.7746 103.596C69.5282 97.1512 71.5934 74.2379 73.6586 69.9416C75.7238 65.6454 90.8686 15.5225 94.3105 13.3744C97.7525 11.2263 108.078 5.49793 113.586 8.36209C119.093 11.2263 128.73 13.3744 133.549 21.9669C138.368 30.5594 150.071 48.4604 151.448 54.1887C152.824 59.917 162.462 84.9785 162.462 96.4351C162.462 107.892 168.658 148.706 168.658 158.731C168.658 168.755 171.411 188.088 171.411 188.088L145.252 189.52C145.252 189.52 139.401 115.41 138.712 113.978C138.024 112.546 135.27 74.5959 135.27 64.5713C135.27 54.5467 117.372 15.8805 114.618 15.8805C111.865 15.8805 98.7851 21.6088 98.7851 24.473C98.7851 27.3372 85.7056 55.2628 85.7056 58.1269C85.7056 60.9911 91.2128 81.7563 90.5244 89.6327C89.836 97.5092 77.4448 155.508 77.4448 156.941C77.4448 158.373 75.7238 192.385 75.7238 192.385Z" fill="#D9D9D9"/>
<path d="M8.26077 387.148L0 366.383C0 366.383 15.1448 258.26 15.8332 246.804C16.5215 235.347 2.75359 179.496 4.81878 163.027C6.88398 146.558 12.3912 141.546 12.3912 141.546C12.3912 141.546 52.1874 142.262 59.8218 141.546C67.4561 140.83 97.0641 135.101 106.013 135.817C114.962 136.533 163.15 141.546 170.034 141.546C176.918 141.546 213.92 135.753 213.92 135.753C213.92 135.753 216.845 150.138 218.911 155.867C220.976 161.595 209.273 248.236 210.65 277.593C212.027 306.951 223.688 370.758 223.709 374.295C223.729 377.832 203.36 387.864 169.484 387.148C135.607 386.432 84.4182 387.219 74.9046 387.184C65.3909 387.148 8.25389 387.148 8.25389 387.148H8.26077Z" fill="white"/>
<path opacity="0.5" d="M74.9114 387.183C65.3978 387.147 8.26077 387.147 8.26077 387.147L0 366.382C0 366.382 15.1448 258.26 15.8331 246.803C16.5215 235.347 2.75359 179.496 4.81878 163.027C6.88398 146.558 12.3912 141.545 12.3912 141.545C12.3912 141.545 44.677 142.261 52.3182 141.545C52.3182 141.545 32.3547 182.36 33.0431 195.965C33.7315 209.569 36.4851 287.618 44.7459 325.568C53.0066 363.518 74.9114 387.183 74.9114 387.183Z" fill="#7A0020" fill-opacity="0.5"/>
<path d="M75.7238 185.94C75.7238 185.94 61.9558 188.804 51.6299 183.792C51.6299 183.792 52.3183 160.163 54.3835 148.706C56.4487 137.249 64.021 103.595 66.7746 97.151C69.5282 90.7066 71.5934 67.7933 73.6586 63.497C75.7238 59.2008 90.8686 9.07792 94.3105 6.9298C97.7525 4.78168 108.078 -0.946652 113.586 1.91751C119.093 4.78168 128.73 6.9298 133.549 15.5223C138.368 24.1148 150.071 42.0158 151.448 47.7441C152.824 53.4725 162.462 78.5339 162.462 89.9905C162.462 101.447 168.658 142.262 168.658 152.286C168.658 162.311 171.411 181.644 171.411 181.644C169.002 183.434 148.35 184.866 145.252 183.076C145.252 183.076 139.401 108.966 138.712 107.534C138.024 106.101 135.27 68.1513 135.27 58.1267C135.27 48.1021 117.372 9.43594 114.618 9.43594C111.865 9.43594 98.7851 15.1643 98.7851 18.0284C98.7851 20.8926 85.7056 48.8182 85.7056 51.6824C85.7056 54.5465 91.2128 75.3117 90.5244 83.1882C89.836 91.0646 77.4448 149.064 77.4448 150.496C77.4448 151.928 75.7238 185.94 75.7238 185.94Z" fill="white" stroke="#70727E" stroke-miterlimit="10"/>
<path d="M69.6659 235.841H72.1786V239.106H68.6746L67.6145 242.608H64.0142L65.0743 239.106H61.9421L60.9026 242.608H57.3092L58.3487 239.106H56.3867V235.841H59.3399L60.0559 233.442H57.6603V230.177H61.0472L62.2243 226.268H65.8178L64.6406 230.177H67.7522L68.9293 226.268H72.5228L71.3456 230.177H73.4452V233.442H70.375L69.659 235.841H69.6659ZM63.6493 233.442L62.9334 235.841H66.0725L66.7884 233.442H63.6562H63.6493Z" fill="#1E120F"/>
<path d="M88.5282 231.352H84.6112C84.4047 230.127 83.6887 229.289 82.0297 229.289C80.646 229.289 79.7442 229.841 79.7442 230.893C79.7442 231.831 80.3913 232.239 81.6373 232.497L83.8264 232.977C86.7108 233.6 88.5557 234.824 88.5557 237.631C88.5557 240.889 85.9742 242.908 82.0504 242.908C78.5258 242.908 75.3385 241.154 74.9736 237.13H78.8906C79.1453 238.569 80.3225 239.479 82.1674 239.479C83.5511 239.479 84.384 238.927 84.384 238.018C84.384 237.445 84.0811 236.844 82.725 236.579L80.1435 236.006C77.0526 235.311 75.6001 233.851 75.6001 231.258C75.6001 227.993 78.1334 225.981 81.8232 225.981C84.3565 225.981 88.1427 226.962 88.5351 231.352H88.5282Z" fill="#1E120F"/>
<path d="M94.7987 226.296V242.608H90.9023V226.296H94.7987Z" fill="#1E120F"/>
<path d="M111.975 226.296V242.608H108.98L101.463 233.664V242.608H97.5664V226.296H100.54L108.106 235.483V226.296H111.981H111.975Z" fill="#1E120F"/>
<path d="M130.74 233.442V242.601H127.835L127.677 240.61C126.548 242.049 124.909 242.916 122.72 242.916C117.812 242.916 114.377 239.292 114.377 234.617C114.377 229.533 117.97 225.981 122.748 225.981C126.596 225.981 129.921 228.215 130.589 232.096H126.486C125.818 230.199 124.249 229.647 122.844 229.647C120.146 229.647 118.328 231.638 118.328 234.516C118.328 237.08 120.104 239.214 122.872 239.214C124.696 239.214 126.08 238.254 126.858 236.672L122.362 236.622V233.435H130.754L130.74 233.442Z" fill="#1E120F"/>
<path d="M145.451 238.977V242.6H133.811V226.289H137.707V238.977H145.451Z" fill="#1E120F"/>
<path d="M151.193 229.819V232.791H158.16V236.242H151.193V239.07H159.144V242.593H147.297V226.282H159.144V229.805H151.193V229.819Z" fill="#1E120F"/>
<path d="M74.7258 299.411H69.7762C69.5147 297.886 68.6129 296.841 66.5201 296.841C64.7716 296.841 63.6426 297.528 63.6426 298.838C63.6426 300.006 64.4549 300.514 66.0314 300.836L68.7918 301.431C72.4266 302.204 74.7602 303.729 74.7602 307.223C74.7602 311.283 71.5041 313.797 66.5545 313.797C62.1006 313.797 58.0873 311.62 57.6191 306.6H62.5687C62.8854 308.39 64.3723 309.529 66.6991 309.529C68.4476 309.529 69.494 308.842 69.494 307.71C69.494 306.994 69.1154 306.249 67.4013 305.92L64.1452 305.204C60.2488 304.338 58.4108 302.519 58.4108 299.29C58.4108 295.23 61.6119 292.716 66.2654 292.716C69.4665 292.716 74.2371 293.941 74.7327 299.404L74.7258 299.411Z" fill="#1E120F"/>
<path d="M95.9967 303.951C95.9967 310.252 92.4446 313.811 86.7722 313.811C81.0998 313.811 77.5752 310.259 77.5752 303.951V293.11H82.5248V304.044C82.5248 307.151 84.1838 309.092 86.7722 309.092C89.3606 309.092 91.0471 307.151 91.0471 304.044V293.11H95.9967V303.951Z" fill="#1E120F"/>
<path d="M113.868 304.996H118.927C118.287 310.252 114.391 313.811 109.008 313.811C103.039 313.811 98.5303 309.393 98.5303 303.264C98.5303 297.134 103.039 292.716 109.008 292.716C114.391 292.716 118.287 296.268 118.927 301.531H113.868C113.345 298.989 111.596 297.435 108.98 297.435C105.752 297.435 103.507 299.884 103.507 303.264C103.507 306.643 105.745 309.085 108.98 309.085C111.596 309.085 113.345 307.531 113.868 304.989V304.996Z" fill="#1E120F"/>
<path d="M129.784 305.834L126.872 309.3V313.424H121.957V293.11H126.872V302.433L134.761 293.11H140.578L133.04 302.01L141.218 313.424H135.078L129.784 305.834Z" fill="#1E120F"/>
<path d="M158.999 299.411H154.05C153.788 297.886 152.886 296.841 150.794 296.841C149.045 296.841 147.916 297.528 147.916 298.838C147.916 300.006 148.728 300.514 150.305 300.836L153.065 301.431C156.7 302.204 159.034 303.729 159.034 307.223C159.034 311.283 155.778 313.797 150.828 313.797C146.374 313.797 142.361 311.62 141.893 306.6H146.842C147.159 308.39 148.646 309.529 150.973 309.529C152.721 309.529 153.767 308.842 153.767 307.71C153.767 306.994 153.389 306.249 151.675 305.92L148.419 305.204C144.522 304.338 142.684 302.519 142.684 299.29C142.684 295.23 145.885 292.716 150.539 292.716C153.74 292.716 158.51 293.941 159.006 299.404L158.999 299.411Z" fill="#1E120F"/>
<path d="M90.2972 269.667C90.2972 281.202 83.7575 287.704 73.3145 287.704C62.8715 287.704 56.3799 281.202 56.3799 269.667V249.825H65.4874V269.832C65.4874 275.517 68.5439 279.069 73.3076 279.069C78.0713 279.069 81.1829 275.517 81.1829 269.832V249.825H90.2904V269.667H90.2972Z" fill="#1E120F"/>
<path d="M126.094 261.354H116.986C116.505 258.568 114.846 256.656 110.984 256.656C107.769 256.656 105.676 257.917 105.676 260.315C105.676 262.449 107.177 263.38 110.068 263.982L115.155 265.077C121.853 266.502 126.142 269.287 126.142 275.682C126.142 283.114 120.139 287.704 111.032 287.704C102.833 287.704 95.4396 283.716 94.5791 274.529H103.687C104.279 277.808 107.012 279.885 111.293 279.885C114.508 279.885 116.436 278.625 116.436 276.548C116.436 275.238 115.74 273.87 112.581 273.269L106.578 271.958C99.3979 270.376 96.0247 267.039 96.0247 261.132C96.0247 253.699 101.917 249.109 110.495 249.109C116.388 249.109 125.178 251.351 126.087 261.354H126.094Z" fill="#1E120F"/>
<path d="M140.668 257.859V264.64H156.852V272.51H140.668V278.961H159.151V286.995H131.608V249.825H159.151V257.859H140.668Z" fill="#1E120F"/>
<path d="M54.7275 181.286C54.7275 181.286 54.7275 164.101 55.4159 163.385C55.4159 163.385 70.5607 164.817 73.3143 164.817V183.241C73.3143 183.241 62.2999 184.866 54.7275 181.286Z" fill="#6AB1AF" stroke="#70727E" stroke-miterlimit="10"/>
<path d="M148.722 179.617C148.722 179.617 146.553 162.583 147.145 161.781C147.145 161.781 162.338 161.136 165.071 160.757L167.398 179.016C167.398 179.016 156.687 182.138 148.729 179.617H148.722Z" fill="#6AB1AF" stroke="#70727E" stroke-miterlimit="10"/>
<path d="M55.416 163.385L73.3144 183.233" stroke="#70727E" stroke-miterlimit="10"/>
<path d="M73.3143 164.817L54.7275 181.286" stroke="#70727E" stroke-miterlimit="10"/>
<path d="M147.145 161.781L167.397 179.016" stroke="#70727E" stroke-width="0.75" stroke-miterlimit="10"/>
<path d="M165.071 160.757L148.722 179.617" stroke="#70727E" stroke-width="0.75" stroke-miterlimit="10"/>
</svg>
