<svg width="258" height="408" viewBox="0 0 258 408" fill="none" xmlns="http://www.w3.org/2000/svg">
<path d="M89.7595 392.121C118.059 392.121 141 387.231 141 381.199C141 375.168 118.059 370.278 89.7595 370.278C61.4605 370.278 38.5195 375.168 38.5195 381.199C38.5195 387.231 61.4605 392.121 89.7595 392.121Z" fill="#9BD1F7"/>
<path opacity="0.5" d="M1 175.769C1 175.769 11 379.639 13 382.76C15 385.88 16 391.081 26 396.282C36 401.482 79.3 418.125 159.15 396.282C159.15 396.282 165 390.041 167 380.679C169 371.318 179.35 175.769 179.35 175.769C179.35 175.769 119 167.447 1 175.769Z" fill="#B0D8FC"/>
<path opacity="0.8" d="M179.35 176.809L167 380.679C165 390.041 159.15 396.282 159.15 396.282C79.3 418.125 36 401.483 26 396.282C16 391.081 15 385.88 13 382.76C11 379.639 1 175.769 1 175.769H24.55C24.55 175.769 20 362.997 35 375.479C50 387.961 141 386.92 147 375.479C147 375.479 164.32 239.218 158.16 175.769L179.35 176.809Z" fill="#B0D8FC"/>
<path d="M90 183.05C139.153 183.05 179 180.489 179 177.329C179 174.169 139.153 171.608 90 171.608C40.8467 171.608 1 174.169 1 177.329C1 180.489 40.8467 183.05 90 183.05Z" fill="#B0D8FC" stroke="white" stroke-width="2" stroke-miterlimit="10"/>
<path d="M75.03 377.934C75.03 377.934 59.58 381.418 54.46 363.049L165.68 126.611C165.68 126.611 206.12 86.1906 212.17 76.4131C218.22 66.6356 243.49 7.7628 243.49 7.7628C243.49 7.7628 252.65 6.70184 257.08 12.4435L227.1 87.5219L182.16 137.366L75.04 377.934H75.03Z" fill="#72A6D8"/>
<path d="M56.9202 369.165C55.2802 366.44 54.4502 363.049 54.4502 363.049L165.67 126.611C165.67 126.611 206.11 86.1905 212.16 76.4131L215.83 69.4648L218.12 70.505L215.03 77.7861L170.53 128.202L56.9202 369.155V369.165Z" fill="#A3D9FB"/>
<path d="M243.146 10.762L219.456 0.0273438L194.438 59.7606L218.128 70.4952L243.146 10.762Z" fill="#DBF7FF"/>
<path d="M241.67 14.295L217.98 3.56055" stroke="#3C8ACA" stroke-width="2" stroke-miterlimit="10"/>
<path d="M240.07 18.1123L216.38 7.37793" stroke="#3C8ACA" stroke-width="2" stroke-miterlimit="10"/>
<path d="M238.48 21.9296L214.79 11.1848" stroke="#3C8ACA" stroke-width="2" stroke-miterlimit="10"/>
<path d="M236.88 25.7366L213.19 15.0022" stroke="#3C8ACA" stroke-width="2" stroke-miterlimit="10"/>
<path d="M235.28 29.554L211.59 18.8196" stroke="#3C8ACA" stroke-width="2" stroke-miterlimit="10"/>
<path d="M233.68 33.3714L209.99 22.637" stroke="#3C8ACA" stroke-width="2" stroke-miterlimit="10"/>
<path d="M232.08 37.1785L208.4 26.4441" stroke="#3C8ACA" stroke-width="2" stroke-miterlimit="10"/>
<path d="M230.49 40.9959L206.8 30.2615" stroke="#3C8ACA" stroke-width="2" stroke-miterlimit="10"/>
<path d="M228.89 44.813L205.2 34.0786" stroke="#3C8ACA" stroke-width="2" stroke-miterlimit="10"/>
<path d="M227.29 48.6305L203.6 37.8857" stroke="#3C8ACA" stroke-width="2" stroke-miterlimit="10"/>
<path d="M225.69 52.4375L202 41.7031" stroke="#3C8ACA" stroke-width="2" stroke-miterlimit="10"/>
<path d="M224.1 56.2549L200.41 45.5205" stroke="#3C8ACA" stroke-width="2" stroke-miterlimit="10"/>
<path d="M222.5 60.0723L198.81 49.3379" stroke="#3C8ACA" stroke-width="2" stroke-miterlimit="10"/>
<path d="M220.9 63.8792L197.21 53.1448" stroke="#3C8ACA" stroke-width="2" stroke-miterlimit="10"/>
<path d="M219.3 67.6966L195.61 56.9622" stroke="#3C8ACA" stroke-width="2" stroke-miterlimit="10"/>
<path d="M137.6 182.166L166.66 180.231" stroke="white" stroke-width="2" stroke-miterlimit="10"/>
</svg>
