<svg width="365" height="529" viewBox="0 0 365 529" fill="none" xmlns="http://www.w3.org/2000/svg">
<g clip-path="url(#clip0_595_947)">
<path d="M58.2998 350.56C59.9567 350.56 61.2998 349.217 61.2998 347.56C61.2998 345.903 59.9567 344.56 58.2998 344.56C56.643 344.56 55.2998 345.903 55.2998 347.56C55.2998 349.217 56.643 350.56 58.2998 350.56Z" fill="#D0C5B3"/>
<path d="M47.2998 326.56C48.9567 326.56 50.2998 325.217 50.2998 323.56C50.2998 321.903 48.9567 320.56 47.2998 320.56C45.643 320.56 44.2998 321.903 44.2998 323.56C44.2998 325.217 45.643 326.56 47.2998 326.56Z" fill="#D0C5B3"/>
<path d="M19.2998 359.56C20.9567 359.56 22.2998 358.217 22.2998 356.56C22.2998 354.903 20.9567 353.56 19.2998 353.56C17.643 353.56 16.2998 354.903 16.2998 356.56C16.2998 358.217 17.643 359.56 19.2998 359.56Z" fill="#D0C5B3"/>
<path d="M29.2998 381.56C30.9567 381.56 32.2998 380.217 32.2998 378.56C32.2998 376.903 30.9567 375.56 29.2998 375.56C27.643 375.56 26.2998 376.903 26.2998 378.56C26.2998 380.217 27.643 381.56 29.2998 381.56Z" fill="#D0C5B3"/>
<path d="M57.2998 447.56C58.9567 447.56 60.2998 446.217 60.2998 444.56C60.2998 442.903 58.9567 441.56 57.2998 441.56C55.643 441.56 54.2998 442.903 54.2998 444.56C54.2998 446.217 55.643 447.56 57.2998 447.56Z" fill="#D0C5B3"/>
<path d="M37.2998 482.56C38.9567 482.56 40.2998 481.217 40.2998 479.56C40.2998 477.903 38.9567 476.56 37.2998 476.56C35.643 476.56 34.2998 477.903 34.2998 479.56C34.2998 481.217 35.643 482.56 37.2998 482.56Z" fill="#D0C5B3"/>
<path d="M10.2998 448.56C11.9567 448.56 13.2998 447.217 13.2998 445.56C13.2998 443.903 11.9567 442.56 10.2998 442.56C8.64295 442.56 7.2998 443.903 7.2998 445.56C7.2998 447.217 8.64295 448.56 10.2998 448.56Z" fill="#D0C5B3"/>
<path d="M43.2998 410.56C44.9567 410.56 46.2998 409.217 46.2998 407.56C46.2998 405.903 44.9567 404.56 43.2998 404.56C41.643 404.56 40.2998 405.903 40.2998 407.56C40.2998 409.217 41.643 410.56 43.2998 410.56Z" fill="#D0C5B3"/>
<path d="M5.2998 405.56C6.95666 405.56 8.2998 404.217 8.2998 402.56C8.2998 400.903 6.95666 399.56 5.2998 399.56C3.64295 399.56 2.2998 400.903 2.2998 402.56C2.2998 404.217 3.64295 405.56 5.2998 405.56Z" fill="#D0C5B3"/>
<path d="M203.25 401.65C210.94 393.72 220.26 393.68 230.27 401.99C240.27 410.29 255.28 426.66 252.87 438.95C250.46 451.24 237.67 458.82 229.86 458.84C222.05 458.86 208.48 457.98 201.92 440.84C195.36 423.7 194.18 411.02 203.26 401.66L203.25 401.65Z" fill="#906846"/>
<path d="M106.25 260.65C113.94 252.72 123.26 252.68 133.27 260.99C143.27 269.29 158.28 285.66 155.87 297.95C153.46 310.24 140.67 317.82 132.86 317.84C125.05 317.86 111.48 316.98 104.92 299.84C98.3598 282.7 97.1798 270.02 106.26 260.66L106.25 260.65Z" fill="#906846"/>
<path d="M295.67 433.36C295.67 433.36 275.02 399.88 259.21 386.91C243.4 373.94 222.83 355.13 223.86 352.08C224.89 349.03 223.32 348.72 229.1 351.52C234.89 354.32 281.84 399.64 287.67 409.77C293.5 419.9 297.77 432.16 298.3 433.08C298.83 434 295.68 433.36 295.68 433.36H295.67Z" fill="#526142"/>
<path d="M288.59 428.9C288.59 428.9 274.84 436.81 282.28 448.83C289.72 460.85 298.35 461.32 306.06 454.71C313.77 448.1 324.7 435.29 313.09 427.84C301.48 420.39 292.52 426.63 288.59 428.89V428.9Z" fill="#F9BC37"/>
<path d="M291.25 434.43C291.25 434.43 287.96 431.43 288.59 428.9C289.22 426.37 289.62 426.14 289.62 426.14C289.62 426.14 289.53 430.54 291.02 431.31C292.51 432.08 292.75 432.49 292.75 432.49C292.75 432.49 294.56 429.27 294.41 427.19C294.41 427.19 295.9 430.68 295.42 432.59C295.42 432.59 297.85 432.28 298.8 431.19C298.8 431.19 299.51 429.7 299.04 428.88C299.04 428.88 300.45 431.33 298.72 432.87C296.99 434.41 295.81 435.09 295.81 435.09C295.81 435.09 298.79 436.64 301.54 435.05C301.54 435.05 300.51 437.81 297.85 437.72C295.19 437.63 293.46 436.44 293.46 436.44C293.46 436.44 293.93 439.98 291.96 441.11C289.99 442.24 288.58 442.51 288.58 442.51C288.58 442.51 291.88 440.07 291.49 437.57C291.49 437.57 290.7 438.02 288.66 438.11C286.62 438.2 284.66 436.61 284.66 436.61C284.66 436.61 287.8 437.52 291.26 434.44L291.25 434.43Z" fill="#526142"/>
<path d="M289.631 383.76C289.631 383.76 277.601 390.68 284.991 402.73C292.381 414.78 300.231 415.7 306.861 409.71C313.481 403.73 322.701 391.9 311.781 384.06C300.861 376.21 293.081 381.78 289.641 383.76H289.631Z" fill="#F9BC37"/>
<path d="M292.92 388.93C292.92 388.93 289.63 385.93 290.26 383.4C290.89 380.86 291.29 380.64 291.29 380.64C291.29 380.64 291.2 385.04 292.69 385.81C294.18 386.58 294.42 386.99 294.42 386.99C294.42 386.99 296.23 383.77 296.08 381.69C296.08 381.69 297.57 385.18 297.09 387.09C297.09 387.09 299.52 386.78 300.47 385.69C300.47 385.69 301.18 384.2 300.71 383.38C300.71 383.38 302.12 385.83 300.39 387.37C298.66 388.91 297.48 389.59 297.48 389.59C297.48 389.59 300.46 391.14 303.21 389.55C303.21 389.55 302.18 392.31 299.52 392.22C296.86 392.13 295.13 390.94 295.13 390.94C295.13 390.94 295.6 394.48 293.63 395.61C291.66 396.74 290.25 397.01 290.25 397.01C290.25 397.01 293.55 394.57 293.16 392.07C293.16 392.07 292.37 392.52 290.33 392.61C288.29 392.7 286.33 391.11 286.33 391.11C286.33 391.11 289.47 392.02 292.93 388.94L292.92 388.93Z" fill="#526142"/>
<path d="M251.15 397.54C251.15 397.54 263.18 390.62 269.89 403.06C276.6 415.5 273.44 422.75 264.94 425.47C256.44 428.19 241.58 430.21 240.29 416.83C239 403.45 247.72 399.51 251.16 397.54H251.15Z" fill="#F9BC37"/>
<path d="M253.97 402.99C253.97 402.99 253.03 398.64 250.52 397.91C248.01 397.18 247.62 397.41 247.62 397.41C247.62 397.41 251.46 399.55 251.38 401.22C251.3 402.89 251.53 403.31 251.53 403.31C251.53 403.31 247.84 403.26 246.11 402.08C246.11 402.08 248.38 405.12 250.27 405.67C250.27 405.67 248.78 407.62 247.36 407.89C247.36 407.89 245.71 407.75 245.24 406.93C245.24 406.93 246.65 409.38 248.85 408.66C251.05 407.94 252.23 407.26 252.23 407.26C252.23 407.26 252.07 410.61 249.32 412.2C249.32 412.2 252.22 412.7 253.48 410.35C254.74 408 254.59 405.91 254.59 405.91C254.59 405.91 257.41 408.09 259.38 406.96C261.35 405.83 262.29 404.74 262.29 404.74C262.29 404.74 258.52 406.37 256.56 404.78C256.56 404.78 257.35 404.33 258.45 402.61C259.55 400.89 259.16 398.4 259.16 398.4C259.16 398.4 258.37 401.57 253.97 403.02V402.99Z" fill="#526142"/>
<path d="M251.81 347.53C251.81 347.53 258.42 335.32 270.66 342.4C282.9 349.48 284.01 357.3 278.2 364.08C272.39 370.86 260.8 380.37 252.68 369.65C244.56 358.93 249.92 351.01 251.81 347.52V347.53Z" fill="#F9BC37"/>
<path d="M255.41 353.02C255.41 353.02 259.83 353.54 261.33 351.4C262.83 349.26 262.74 348.81 262.74 348.81C262.74 348.81 259.48 351.76 257.92 351.14C256.36 350.52 255.9 350.61 255.9 350.61C255.9 350.61 257.14 347.13 258.81 345.88C258.81 345.88 255.2 347.05 254.07 348.66C254.07 348.66 252.71 346.62 252.91 345.19C252.91 345.19 253.57 343.67 254.5 343.49C254.5 343.49 251.73 344.03 251.7 346.35C251.67 348.67 251.94 350 251.94 350C251.94 350 248.82 348.76 248.21 345.65C248.21 345.65 246.8 348.24 248.62 350.19C250.44 352.14 252.47 352.67 252.47 352.67C252.47 352.67 249.5 354.64 249.93 356.86C250.36 359.08 251.09 360.33 251.09 360.33C251.09 360.33 250.77 356.24 252.9 354.89C252.9 354.89 253.07 355.78 254.35 357.38C255.62 358.98 258.11 359.41 258.11 359.41C258.11 359.41 255.36 357.64 255.42 353.01L255.41 353.02Z" fill="#526142"/>
<path d="M220.49 363.99C220.49 363.99 232.97 357.91 238.8 370.79C244.63 383.67 240.98 390.68 232.31 392.81C223.64 394.93 208.68 395.93 208.32 382.48C207.95 369.04 216.93 365.72 220.49 363.98V363.99Z" fill="#F9BC37"/>
<path d="M222.93 369.62C222.93 369.62 222.3 365.21 219.84 364.31C217.38 363.41 216.98 363.61 216.98 363.61C216.98 363.61 220.67 366.01 220.47 367.67C220.27 369.33 220.47 369.76 220.47 369.76C220.47 369.76 216.79 369.45 215.15 368.16C215.15 368.16 217.21 371.35 219.05 372.03C219.05 372.03 217.42 373.87 216 374.04C216 374.04 214.36 373.79 213.95 372.94C213.95 372.94 215.19 375.48 217.43 374.91C219.67 374.34 220.9 373.75 220.9 373.75C220.9 373.75 220.51 377.08 217.65 378.47C217.65 378.47 220.51 379.17 221.93 376.91C223.35 374.65 223.34 372.56 223.34 372.56C223.34 372.56 226.01 374.93 228.04 373.94C230.07 372.95 231.09 371.93 231.09 371.93C231.09 371.93 227.22 373.29 225.37 371.57C225.37 371.57 226.19 371.17 227.4 369.53C228.61 367.89 228.4 365.38 228.4 365.38C228.4 365.38 227.39 368.49 222.9 369.63L222.93 369.62Z" fill="#526142"/>
<path d="M268.38 390.37C268.38 390.37 290.59 385.07 293.1 387.75L293.04 390.51C293.04 390.51 277 390.51 270.85 393.1L268.38 390.38V390.37Z" fill="#526142"/>
<path d="M231.571 354.81C231.571 354.81 220.601 369.06 221.581 371.38L223.471 371.94C223.471 371.94 228.801 360.82 232.591 357.12L231.571 354.81Z" fill="#526142"/>
<path d="M256.121 378.84C256.121 378.84 257.541 402.49 254.771 404.28L252.311 403.48C252.311 403.48 254.701 387.42 253.321 380.58L256.121 378.83V378.84Z" fill="#526142"/>
<path d="M231.75 357.93C231.75 357.93 254.68 354.9 256.07 351.91L255.64 350.78C255.64 350.78 240.06 355.35 233.09 354.91L231.74 357.93H231.75Z" fill="#526142"/>
<path d="M339.96 153.46C339.96 153.46 318.91 148.96 310.4 154.47C301.88 159.98 231.77 247.69 231.77 247.69C231.77 247.69 222.07 265.61 226.12 274.09C230.17 282.57 339.06 157.67 339.96 153.46Z" fill="#75946C"/>
<path d="M206.3 342.75C206.3 342.75 244.95 251.25 253.35 211.96C261.75 172.68 280.27 113.55 280.27 113.55C280.27 113.55 256.42 108.45 241.81 169.88C227.2 231.31 175.25 391.87 163.83 404.09C152.41 416.32 124.95 407.51 124.65 408.91C124.35 410.31 112.23 432.66 129.57 440.77C146.91 448.88 187.9 456.18 196.3 416.9C204.7 377.62 199.59 360.38 206.29 342.74L206.3 342.75Z" fill="#5E8951"/>
<path d="M238.18 252C238.18 252 267.9 133.64 297.75 110.69C297.75 110.69 305.77 121.21 303.97 129.63C302.17 138.05 270.84 229.65 264.53 238.57C258.22 247.49 240.39 255.41 238.18 252.01V252Z" fill="#8AB07F"/>
<path d="M124.65 408.92C124.65 408.92 131.3 374.4 152.14 352.44C172.98 330.49 244.57 234.29 260.96 220.19C277.35 206.09 327.45 184.53 341.48 187.53C341.48 187.53 223.47 300.21 211.96 319.75C200.44 339.29 179.53 430.19 159.29 428.8C139.05 427.4 122.51 422.4 124.66 408.92H124.65Z" fill="#B2BE7E"/>
<path d="M58.0204 395.56C58.0204 395.56 24.3404 395.56 25.3004 425.56C26.2604 455.56 41.6604 465.56 62.8304 461.56C84.0004 457.56 117.68 445.56 104.21 419.56C90.7404 393.56 67.6404 395.56 58.0204 395.56Z" fill="#EA6450"/>
<path d="M57.0599 408.56C57.0599 408.56 54.1699 399.56 58.0199 395.56C61.8699 391.56 62.8299 391.56 62.8299 391.56C62.8299 391.56 58.0199 399.56 59.9399 402.56C61.8599 405.56 61.8599 406.56 61.8599 406.56C61.8599 406.56 68.5999 402.56 70.5199 398.56C70.5199 398.56 69.5599 406.56 66.6699 409.56C66.6699 409.56 71.4799 411.56 74.3699 410.56C74.3699 410.56 77.2599 408.56 77.2599 406.56C77.2599 406.56 77.2599 412.56 72.4499 413.56C67.6399 414.56 64.7499 414.56 64.7499 414.56C64.7499 414.56 68.5999 420.56 75.3399 420.56C75.3399 420.56 70.5299 424.56 65.7199 421.56C60.9099 418.56 58.9799 414.56 58.9799 414.56C58.9799 414.56 56.0899 421.56 51.2799 421.56C46.4699 421.56 43.5799 420.56 43.5799 420.56C43.5799 420.56 52.2399 419.56 54.1699 414.56C54.1699 414.56 52.2499 414.56 48.3999 412.56C44.5499 410.56 42.6299 405.56 42.6299 405.56C42.6299 405.56 47.4399 410.56 57.0599 408.56Z" fill="#526142"/>
<path d="M84.05 324.57C84.05 324.57 55.04 330.33 61.71 359.59C68.38 388.85 83.58 396.03 101.04 388.49C118.5 380.95 145.17 363.42 128.51 340.22C111.85 317.02 92.34 322.93 84.05 324.57Z" fill="#EA6450"/>
<path d="M89.5506 336.74C89.5506 336.74 84.9705 328.47 87.9605 323.8C90.9505 319.13 91.9006 318.94 91.9006 318.94C91.9006 318.94 88.7405 327.72 91.2105 330.29C93.6805 332.86 93.8805 333.84 93.8805 333.84C93.8805 333.84 99.7105 328.61 100.821 324.31C100.821 324.31 101.431 332.34 99.1906 335.85C99.1906 335.85 104.301 336.88 106.941 335.33C106.941 335.33 109.381 332.81 108.991 330.84C108.991 330.84 110.161 336.73 105.631 338.64C101.101 340.55 98.2705 341.12 98.2705 341.12C98.2705 341.12 103.211 346.26 109.821 344.95C109.821 344.95 105.881 349.81 100.581 347.8C95.2806 345.79 92.6105 342.24 92.6105 342.24C92.6105 342.24 91.1405 349.67 86.4205 350.6C81.7005 351.53 78.6705 351.12 78.6705 351.12C78.6705 351.12 86.9705 348.45 87.8905 343.17C87.8905 343.17 86.0005 343.54 81.8405 342.33C77.6805 341.12 74.8105 336.59 74.8105 336.59C74.8105 336.59 80.5006 340.56 89.5506 336.72V336.74Z" fill="#526142"/>
<path d="M310.731 476.75C310.731 476.75 306.79 463.17 292.36 468.23C277.93 473.29 263.631 479.35 260.661 479.77C257.691 480.19 222.471 481.11 211.581 482.65C200.691 484.19 176.631 492.63 168.991 495.72C161.351 498.81 132.771 503.86 132.771 503.86C132.771 503.86 135.03 505.56 137.01 505.28C138.99 505 163.31 505.61 165.29 505.33C167.27 505.05 187.511 498.16 195.711 499.02C203.911 499.88 221.301 501.47 224.551 503.03C227.801 504.59 270.65 507.64 274.471 506.09C278.291 504.54 311.991 500.01 312.981 492.69C313.971 485.37 310.731 476.74 310.731 476.74V476.75Z" fill="#D58760"/>
<path d="M310.731 476.75C310.731 476.75 306.79 463.17 292.36 468.23C277.93 473.29 263.631 479.35 260.661 479.77C257.691 480.19 222.471 481.11 211.581 482.65C200.691 484.19 176.631 492.63 168.991 495.72C161.351 498.81 132.771 503.86 132.771 503.86C132.771 503.86 135.03 505.56 137.01 505.28C138.99 505 163.31 505.61 165.29 505.33C165.29 505.33 211.131 493.82 217.211 493.97C223.291 494.12 280.291 490.12 287.221 489.15C294.15 488.17 308.59 483.11 310.721 476.75H310.731Z" fill="#D18161"/>
<path d="M290.75 499.76C290.75 499.76 284.71 485.46 283.88 479.52C283.88 479.52 283.35 487.17 284.77 491.51C286.19 495.85 290.76 499.75 290.76 499.75L290.75 499.76Z" fill="#BF7D66"/>
<path d="M270.54 502.86C270.54 502.86 266.49 487.88 266.47 481.88C266.47 481.88 264.91 489.39 265.73 493.88C266.55 498.37 270.55 502.86 270.55 502.86H270.54Z" fill="#BF7D66"/>
<path d="M251.68 504.47C251.68 504.47 250.46 489.32 250.94 483.34C250.94 483.34 249.36 490.74 249.49 495.26C249.62 499.78 251.68 504.47 251.68 504.47Z" fill="#BF7D66"/>
<path d="M231.7 501.32C231.7 501.32 230.31 488.3 230.72 483.17C230.72 483.17 229.23 489.5 229.4 493.39C229.57 497.28 231.69 501.32 231.69 501.32H231.7Z" fill="#BF7D66"/>
<path d="M310.42 475.25C310.42 475.25 306.63 476.31 308.32 481.13C310.01 485.95 311.68 485.23 312.82 485.31C313.96 485.39 314.35 475.18 310.42 475.26V475.25Z" fill="#487A48"/>
<path d="M78.4 474.41C78.4 474.41 79.55 460.31 94.7 462.4C109.85 464.48 125.07 467.57 128.06 467.38C131.05 467.2 165.75 461.08 176.73 460.41C187.71 459.74 212.97 463.22 221.07 464.73C229.18 466.24 258.18 465.48 258.18 465.48C258.18 465.48 256.31 467.6 254.31 467.72C252.31 467.84 228.6 473.29 226.6 473.41C224.6 473.53 203.4 470.81 195.54 473.29C187.68 475.77 170.95 480.8 168.08 482.97C165.21 485.14 123.83 496.68 119.78 495.93C115.73 495.18 81.8 497.46 79.38 490.48C76.95 483.5 78.4 474.4 78.4 474.4V474.41Z" fill="#D58760"/>
<path d="M78.3999 474.41C78.3999 474.41 79.5499 460.31 94.6999 462.4C109.85 464.48 125.07 467.57 128.06 467.38C131.05 467.2 165.75 461.08 176.73 460.41C187.71 459.74 212.97 463.22 221.07 464.73C229.18 466.24 258.18 465.48 258.18 465.48C258.18 465.48 256.31 467.6 254.31 467.72C252.31 467.84 228.6 473.29 226.6 473.41C226.6 473.41 179.38 471.27 173.45 472.63C167.52 473.99 110.87 481.44 103.88 481.87C96.8899 482.29 81.7399 480.21 78.3799 474.4L78.3999 474.41Z" fill="#D18161"/>
<path d="M102.57 492.98C102.57 492.98 105.63 477.77 105.27 471.78C105.27 471.78 107.31 479.17 106.79 483.71C106.27 488.25 102.57 492.98 102.57 492.98Z" fill="#BF7D66"/>
<path d="M122.99 491.98C122.99 491.98 123.97 476.49 122.8 470.61C122.8 470.61 125.82 477.66 125.92 482.22C126.02 486.79 122.99 491.98 122.99 491.98Z" fill="#BF7D66"/>
<path d="M141.801 489.8C141.801 489.8 139.971 474.71 138.311 468.95C138.311 468.95 141.331 475.88 142.111 480.34C142.891 484.8 141.801 489.8 141.801 489.8Z" fill="#BF7D66"/>
<path d="M160.75 482.72C160.75 482.72 159.52 469.68 158.09 464.74C158.09 464.74 160.81 470.65 161.42 474.49C162.02 478.33 160.75 482.72 160.75 482.72Z" fill="#BF7D66"/>
<path d="M78.4101 472.88C78.4101 472.88 82.3301 473.17 81.6401 478.22C80.9501 483.27 79.1701 482.91 78.0601 483.21C76.9501 483.51 74.5501 473.59 78.4101 472.88Z" fill="#487A48"/>
<path d="M276.3 317.56C276.3 317.56 256.3 303.56 237.3 284.56C218.3 265.56 205.3 237.56 205.3 237.56C183.3 165.56 130.3 82.5601 130.3 82.5601C130.3 82.5601 127.3 201.56 107.3 232.56C87.3001 263.56 89.3001 286.56 47.3001 323.56C5.30013 360.56 19.3001 368.56 18.3001 376.56C17.3001 384.56 -2.69987 411.56 2.30013 427.56C7.30013 443.56 27.3001 493.56 102.3 510.56C177.3 527.56 171.3 532.56 243.3 518.56C243.3 518.56 265.8 515.06 290.8 511.06C315.8 507.06 327.8 493.06 333.8 488.06C339.8 483.06 366.8 460.06 362.8 443.06C358.8 426.06 265.8 306.06 265.8 301.06C265.8 296.06 250.8 231.06 246.8 219.06C242.8 207.06 216.8 76.0601 216.8 76.0601C216.8 76.0601 192.3 169.56 168.3 195.56C168.3 195.56 154.3 233.56 148.3 242.56C142.3 251.56 70.3001 339.56 53.3001 353.56C36.3001 367.56 5.30013 405.56 5.30013 405.56" stroke="#D0C5B3" stroke-width="3" stroke-miterlimit="10"/>
<path d="M128.11 124.53C128.11 124.53 168.31 216.56 177.31 237.56C186.31 258.56 208.31 296.56 216.31 304.56C224.31 312.56 281.31 353.56 289.31 356.56C297.31 359.56 309.56 363.09 309.56 363.09" stroke="#D0C5B3" stroke-width="3" stroke-miterlimit="10"/>
<path d="M226.08 122.32C226.08 122.32 198.3 209.56 195.3 225.56C192.3 241.56 137.3 298.56 131.3 308.56C125.3 318.56 61.3002 390.56 55.3002 394.56C49.3002 398.56 9.91016 445.69 9.91016 445.69" stroke="#D0C5B3" stroke-width="3" stroke-miterlimit="10"/>
<path d="M37.0205 479.37C37.0205 479.37 47.3005 458.57 50.3005 453.57C53.3005 448.57 107.301 392.57 114.301 383.57C121.301 374.57 170.301 320.57 187.301 298.57C204.301 276.57 239.301 186.38 239.301 186.38" stroke="#D0C5B3" stroke-width="3" stroke-miterlimit="10"/>
<path d="M119.96 192.81C119.96 192.81 168.4 316.39 182.35 334.98C196.3 353.57 288.3 393.57 300.3 399.57C312.3 405.57 345.58 413.86 345.58 413.86" stroke="#D0C5B3" stroke-width="3" stroke-miterlimit="10"/>
<path d="M253.33 243.81C253.33 243.81 196.3 360.56 184.3 365.56C172.3 370.56 68.5098 499.31 68.5098 499.31" stroke="#D0C5B3" stroke-width="3" stroke-miterlimit="10"/>
<path d="M100.73 243.81C100.73 243.81 159.91 385.82 182.36 399.94C204.81 414.06 358.42 461.13 358.42 461.13" stroke="#D0C5B3" stroke-width="3" stroke-miterlimit="10"/>
<path d="M265.801 301.06C265.801 301.06 215.801 401.06 190.801 428.06C165.801 455.06 108.561 511.99 108.561 511.99" stroke="#D0C5B3" stroke-width="3" stroke-miterlimit="10"/>
<path d="M297.62 346.69C297.62 346.69 201.57 482.55 187.19 499.3C172.81 516.05 164.25 524.86 164.25 524.86" stroke="#D0C5B3" stroke-width="3" stroke-miterlimit="10"/>
<path d="M47.2998 323.56C47.2998 323.56 108.12 450.23 119.96 469.15C131.8 488.06 152.3 522.45 152.3 522.45" stroke="#D0C5B3" stroke-width="3" stroke-miterlimit="10"/>
<path d="M18.9697 356.49C18.9697 356.49 63.7997 459.06 72.7997 471.06C81.7997 483.06 86.9497 506.4 86.9497 506.4" stroke="#D0C5B3" stroke-width="3" stroke-miterlimit="10"/>
<path d="M326.51 386.58C326.51 386.58 291.8 457.06 281.8 467.06C271.8 477.06 239.3 519.33 239.3 519.33" stroke="#D0C5B3" stroke-width="3" stroke-miterlimit="10"/>
<path d="M350.08 423C350.08 423 318.8 470.06 312.8 482.06C306.8 494.06 299.69 509.1 299.69 509.1C299.69 509.1 200.8 482.06 178.92 461.13C157.04 440.2 77.7402 289.4 77.7402 289.4" stroke="#D0C5B3" stroke-width="3" stroke-miterlimit="10"/>
<path d="M128.3 129.56C129.957 129.56 131.3 128.217 131.3 126.56C131.3 124.903 129.957 123.56 128.3 123.56C126.643 123.56 125.3 124.903 125.3 126.56C125.3 128.217 126.643 129.56 128.3 129.56Z" fill="#D0C5B3"/>
<path d="M129.3 82.5601C130.957 82.5601 132.3 81.2169 132.3 79.5601C132.3 77.9032 130.957 76.5601 129.3 76.5601C127.643 76.5601 126.3 77.9032 126.3 79.5601C126.3 81.2169 127.643 82.5601 129.3 82.5601Z" fill="#D0C5B3"/>
<path d="M181.3 178.56C182.957 178.56 184.3 177.217 184.3 175.56C184.3 173.903 182.957 172.56 181.3 172.56C179.643 172.56 178.3 173.903 178.3 175.56C178.3 177.217 179.643 178.56 181.3 178.56Z" fill="#D0C5B3"/>
<path d="M217.3 74.5601C218.957 74.5601 220.3 73.2169 220.3 71.5601C220.3 69.9032 218.957 68.5601 217.3 68.5601C215.643 68.5601 214.3 69.9032 214.3 71.5601C214.3 73.2169 215.643 74.5601 217.3 74.5601Z" fill="#D0C5B3"/>
<path d="M226.3 126.56C227.957 126.56 229.3 125.217 229.3 123.56C229.3 121.903 227.957 120.56 226.3 120.56C224.643 120.56 223.3 121.903 223.3 123.56C223.3 125.217 224.643 126.56 226.3 126.56Z" fill="#D0C5B3"/>
<path d="M239.3 191.56C240.957 191.56 242.3 190.217 242.3 188.56C242.3 186.903 240.957 185.56 239.3 185.56C237.643 185.56 236.3 186.903 236.3 188.56C236.3 190.217 237.643 191.56 239.3 191.56Z" fill="#D0C5B3"/>
<path d="M198.3 219.56C199.957 219.56 201.3 218.217 201.3 216.56C201.3 214.903 199.957 213.56 198.3 213.56C196.643 213.56 195.3 214.903 195.3 216.56C195.3 218.217 196.643 219.56 198.3 219.56Z" fill="#D0C5B3"/>
<path d="M164.3 212.56C165.957 212.56 167.3 211.217 167.3 209.56C167.3 207.903 165.957 206.56 164.3 206.56C162.643 206.56 161.3 207.903 161.3 209.56C161.3 211.217 162.643 212.56 164.3 212.56Z" fill="#D0C5B3"/>
<path d="M120.3 198.56C121.957 198.56 123.3 197.217 123.3 195.56C123.3 193.903 121.957 192.56 120.3 192.56C118.643 192.56 117.3 193.903 117.3 195.56C117.3 197.217 118.643 198.56 120.3 198.56Z" fill="#D0C5B3"/>
<path d="M100.3 246.56C101.957 246.56 103.3 245.217 103.3 243.56C103.3 241.903 101.957 240.56 100.3 240.56C98.643 240.56 97.2998 241.903 97.2998 243.56C97.2998 245.217 98.643 246.56 100.3 246.56Z" fill="#D0C5B3"/>
<path d="M116.3 283.56C117.957 283.56 119.3 282.217 119.3 280.56C119.3 278.903 117.957 277.56 116.3 277.56C114.643 277.56 113.3 278.903 113.3 280.56C113.3 282.217 114.643 283.56 116.3 283.56Z" fill="#D0C5B3"/>
<path d="M142.3 253.56C143.957 253.56 145.3 252.217 145.3 250.56C145.3 248.903 143.957 247.56 142.3 247.56C140.643 247.56 139.3 248.903 139.3 250.56C139.3 252.217 140.643 253.56 142.3 253.56Z" fill="#D0C5B3"/>
<path d="M181.3 252.56C182.957 252.56 184.3 251.217 184.3 249.56C184.3 247.903 182.957 246.56 181.3 246.56C179.643 246.56 178.3 247.903 178.3 249.56C178.3 251.217 179.643 252.56 181.3 252.56Z" fill="#D0C5B3"/>
<path d="M212.3 253.56C213.957 253.56 215.3 252.217 215.3 250.56C215.3 248.903 213.957 247.56 212.3 247.56C210.643 247.56 209.3 248.903 209.3 250.56C209.3 252.217 210.643 253.56 212.3 253.56Z" fill="#D0C5B3"/>
<path d="M253.3 249.56C254.957 249.56 256.3 248.217 256.3 246.56C256.3 244.903 254.957 243.56 253.3 243.56C251.643 243.56 250.3 244.903 250.3 246.56C250.3 248.217 251.643 249.56 253.3 249.56Z" fill="#D0C5B3"/>
<path d="M234.3 285.56C235.957 285.56 237.3 284.217 237.3 282.56C237.3 280.903 235.957 279.56 234.3 279.56C232.643 279.56 231.3 280.903 231.3 282.56C231.3 284.217 232.643 285.56 234.3 285.56Z" fill="#D0C5B3"/>
<path d="M263.3 309.56C264.957 309.56 266.3 308.217 266.3 306.56C266.3 304.903 264.957 303.56 263.3 303.56C261.643 303.56 260.3 304.903 260.3 306.56C260.3 308.217 261.643 309.56 263.3 309.56Z" fill="#D0C5B3"/>
<path d="M250.3 332.56C251.957 332.56 253.3 331.217 253.3 329.56C253.3 327.903 251.957 326.56 250.3 326.56C248.643 326.56 247.3 327.903 247.3 329.56C247.3 331.217 248.643 332.56 250.3 332.56Z" fill="#D0C5B3"/>
<path d="M290.3 360.56C291.957 360.56 293.3 359.217 293.3 357.56C293.3 355.903 291.957 354.56 290.3 354.56C288.643 354.56 287.3 355.903 287.3 357.56C287.3 359.217 288.643 360.56 290.3 360.56Z" fill="#D0C5B3"/>
<path d="M297.3 349.56C298.957 349.56 300.3 348.217 300.3 346.56C300.3 344.903 298.957 343.56 297.3 343.56C295.643 343.56 294.3 344.903 294.3 346.56C294.3 348.217 295.643 349.56 297.3 349.56Z" fill="#D0C5B3"/>
<path d="M220.3 312.56C221.957 312.56 223.3 311.217 223.3 309.56C223.3 307.903 221.957 306.56 220.3 306.56C218.643 306.56 217.3 307.903 217.3 309.56C217.3 311.217 218.643 312.56 220.3 312.56Z" fill="#D0C5B3"/>
<path d="M198.3 282.56C199.957 282.56 201.3 281.217 201.3 279.56C201.3 277.903 199.957 276.56 198.3 276.56C196.643 276.56 195.3 277.903 195.3 279.56C195.3 281.217 196.643 282.56 198.3 282.56Z" fill="#D0C5B3"/>
<path d="M155.3 282.56C156.957 282.56 158.3 281.217 158.3 279.56C158.3 277.903 156.957 276.56 155.3 276.56C153.643 276.56 152.3 277.903 152.3 279.56C152.3 281.217 153.643 282.56 155.3 282.56Z" fill="#D0C5B3"/>
<path d="M77.2998 292.56C78.9567 292.56 80.2998 291.217 80.2998 289.56C80.2998 287.903 78.9567 286.56 77.2998 286.56C75.643 286.56 74.2998 287.903 74.2998 289.56C74.2998 291.217 75.643 292.56 77.2998 292.56Z" fill="#D0C5B3"/>
<path d="M90.2998 315.56C91.9567 315.56 93.2998 314.217 93.2998 312.56C93.2998 310.903 91.9567 309.56 90.2998 309.56C88.643 309.56 87.2998 310.903 87.2998 312.56C87.2998 314.217 88.643 315.56 90.2998 315.56Z" fill="#D0C5B3"/>
<path d="M130.3 313.56C131.957 313.56 133.3 312.217 133.3 310.56C133.3 308.903 131.957 307.56 130.3 307.56C128.643 307.56 127.3 308.903 127.3 310.56C127.3 312.217 128.643 313.56 130.3 313.56Z" fill="#D0C5B3"/>
<path d="M172.3 318.56C173.957 318.56 175.3 317.217 175.3 315.56C175.3 313.903 173.957 312.56 172.3 312.56C170.643 312.56 169.3 313.903 169.3 315.56C169.3 317.217 170.643 318.56 172.3 318.56Z" fill="#D0C5B3"/>
<path d="M198.3 352.56C199.957 352.56 201.3 351.217 201.3 349.56C201.3 347.903 199.957 346.56 198.3 346.56C196.643 346.56 195.3 347.903 195.3 349.56C195.3 351.217 196.643 352.56 198.3 352.56Z" fill="#D0C5B3"/>
<path d="M147.3 349.56C148.957 349.56 150.3 348.217 150.3 346.56C150.3 344.903 148.957 343.56 147.3 343.56C145.643 343.56 144.3 344.903 144.3 346.56C144.3 348.217 145.643 349.56 147.3 349.56Z" fill="#D0C5B3"/>
<path d="M103.3 343.56C104.957 343.56 106.3 342.217 106.3 340.56C106.3 338.903 104.957 337.56 103.3 337.56C101.643 337.56 100.3 338.903 100.3 340.56C100.3 342.217 101.643 343.56 103.3 343.56Z" fill="#D0C5B3"/>
<path d="M73.2998 379.56C74.9567 379.56 76.2998 378.217 76.2998 376.56C76.2998 374.903 74.9567 373.56 73.2998 373.56C71.643 373.56 70.2998 374.903 70.2998 376.56C70.2998 378.217 71.643 379.56 73.2998 379.56Z" fill="#D0C5B3"/>
<path d="M123.3 377.56C124.957 377.56 126.3 376.217 126.3 374.56C126.3 372.903 124.957 371.56 123.3 371.56C121.643 371.56 120.3 372.903 120.3 374.56C120.3 376.217 121.643 377.56 123.3 377.56Z" fill="#D0C5B3"/>
<path d="M232.3 369.56C233.957 369.56 235.3 368.217 235.3 366.56C235.3 364.903 233.957 363.56 232.3 363.56C230.643 363.56 229.3 364.903 229.3 366.56C229.3 368.217 230.643 369.56 232.3 369.56Z" fill="#D0C5B3"/>
<path d="M326.3 390.56C327.957 390.56 329.3 389.217 329.3 387.56C329.3 385.903 327.957 384.56 326.3 384.56C324.643 384.56 323.3 385.903 323.3 387.56C323.3 389.217 324.643 390.56 326.3 390.56Z" fill="#D0C5B3"/>
<path d="M317.3 409.56C318.957 409.56 320.3 408.217 320.3 406.56C320.3 404.903 318.957 403.56 317.3 403.56C315.643 403.56 314.3 404.903 314.3 406.56C314.3 408.217 315.643 409.56 317.3 409.56Z" fill="#D0C5B3"/>
<path d="M269.3 388.56C270.957 388.56 272.3 387.217 272.3 385.56C272.3 383.903 270.957 382.56 269.3 382.56C267.643 382.56 266.3 383.903 266.3 385.56C266.3 387.217 267.643 388.56 269.3 388.56Z" fill="#D0C5B3"/>
<path d="M242.3 425.56C243.957 425.56 245.3 424.217 245.3 422.56C245.3 420.903 243.957 419.56 242.3 419.56C240.643 419.56 239.3 420.903 239.3 422.56C239.3 424.217 240.643 425.56 242.3 425.56Z" fill="#D0C5B3"/>
<path d="M331.3 455.56C332.957 455.56 334.3 454.217 334.3 452.56C334.3 450.903 332.957 449.56 331.3 449.56C329.643 449.56 328.3 450.903 328.3 452.56C328.3 454.217 329.643 455.56 331.3 455.56Z" fill="#D0C5B3"/>
<path d="M351.3 425.56C352.957 425.56 354.3 424.217 354.3 422.56C354.3 420.903 352.957 419.56 351.3 419.56C349.643 419.56 348.3 420.903 348.3 422.56C348.3 424.217 349.643 425.56 351.3 425.56Z" fill="#D0C5B3"/>
<path d="M358.3 464.56C359.957 464.56 361.3 463.217 361.3 461.56C361.3 459.903 359.957 458.56 358.3 458.56C356.643 458.56 355.3 459.903 355.3 461.56C355.3 463.217 356.643 464.56 358.3 464.56Z" fill="#D0C5B3"/>
<path d="M345.3 416.56C346.957 416.56 348.3 415.217 348.3 413.56C348.3 411.903 346.957 410.56 345.3 410.56C343.643 410.56 342.3 411.903 342.3 413.56C342.3 415.217 343.643 416.56 345.3 416.56Z" fill="#D0C5B3"/>
<path d="M297.3 444.56C298.957 444.56 300.3 443.217 300.3 441.56C300.3 439.903 298.957 438.56 297.3 438.56C295.643 438.56 294.3 439.903 294.3 441.56C294.3 443.217 295.643 444.56 297.3 444.56Z" fill="#D0C5B3"/>
<path d="M300.3 512.56C301.957 512.56 303.3 511.217 303.3 509.56C303.3 507.903 301.957 506.56 300.3 506.56C298.643 506.56 297.3 507.903 297.3 509.56C297.3 511.217 298.643 512.56 300.3 512.56Z" fill="#D0C5B3"/>
<path d="M257.3 500.56C258.957 500.56 260.3 499.217 260.3 497.56C260.3 495.903 258.957 494.56 257.3 494.56C255.643 494.56 254.3 495.903 254.3 497.56C254.3 499.217 255.643 500.56 257.3 500.56Z" fill="#D0C5B3"/>
<path d="M240.3 522.56C241.957 522.56 243.3 521.217 243.3 519.56C243.3 517.903 241.957 516.56 240.3 516.56C238.643 516.56 237.3 517.903 237.3 519.56C237.3 521.217 238.643 522.56 240.3 522.56Z" fill="#D0C5B3"/>
<path d="M205.3 479.56C206.957 479.56 208.3 478.217 208.3 476.56C208.3 474.903 206.957 473.56 205.3 473.56C203.643 473.56 202.3 474.903 202.3 476.56C202.3 478.217 203.643 479.56 205.3 479.56Z" fill="#D0C5B3"/>
<path d="M151.3 524.56C152.957 524.56 154.3 523.217 154.3 521.56C154.3 519.903 152.957 518.56 151.3 518.56C149.643 518.56 148.3 519.903 148.3 521.56C148.3 523.217 149.643 524.56 151.3 524.56Z" fill="#D0C5B3"/>
<path d="M164.3 528.56C165.957 528.56 167.3 527.217 167.3 525.56C167.3 523.903 165.957 522.56 164.3 522.56C162.643 522.56 161.3 523.903 161.3 525.56C161.3 527.217 162.643 528.56 164.3 528.56Z" fill="#D0C5B3"/>
<path d="M170.3 452.56C171.957 452.56 173.3 451.217 173.3 449.56C173.3 447.903 171.957 446.56 170.3 446.56C168.643 446.56 167.3 447.903 167.3 449.56C167.3 451.217 168.643 452.56 170.3 452.56Z" fill="#D0C5B3"/>
<path d="M131.3 492.56C132.957 492.56 134.3 491.217 134.3 489.56C134.3 487.903 132.957 486.56 131.3 486.56C129.643 486.56 128.3 487.903 128.3 489.56C128.3 491.217 129.643 492.56 131.3 492.56Z" fill="#D0C5B3"/>
<path d="M108.3 514.56C109.957 514.56 111.3 513.217 111.3 511.56C111.3 509.903 109.957 508.56 108.3 508.56C106.643 508.56 105.3 509.903 105.3 511.56C105.3 513.217 106.643 514.56 108.3 514.56Z" fill="#D0C5B3"/>
<path d="M87.2998 509.56C88.9567 509.56 90.2998 508.217 90.2998 506.56C90.2998 504.903 88.9567 503.56 87.2998 503.56C85.643 503.56 84.2998 504.903 84.2998 506.56C84.2998 508.217 85.643 509.56 87.2998 509.56Z" fill="#D0C5B3"/>
<path d="M80.2998 488.56C81.9567 488.56 83.2998 487.217 83.2998 485.56C83.2998 483.903 81.9567 482.56 80.2998 482.56C78.643 482.56 77.2998 483.903 77.2998 485.56C77.2998 487.217 78.643 488.56 80.2998 488.56Z" fill="#D0C5B3"/>
<path d="M109.3 452.56C110.957 452.56 112.3 451.217 112.3 449.56C112.3 447.903 110.957 446.56 109.3 446.56C107.643 446.56 106.3 447.903 106.3 449.56C106.3 451.217 107.643 452.56 109.3 452.56Z" fill="#D0C5B3"/>
<path d="M90.2998 414.56C91.9567 414.56 93.2998 413.217 93.2998 411.56C93.2998 409.903 91.9567 408.56 90.2998 408.56C88.643 408.56 87.2998 409.903 87.2998 411.56C87.2998 413.217 88.643 414.56 90.2998 414.56Z" fill="#D0C5B3"/>
<path d="M68.2998 503.56C69.9567 503.56 71.2998 502.217 71.2998 500.56C71.2998 498.903 69.9567 497.56 68.2998 497.56C66.643 497.56 65.2998 498.903 65.2998 500.56C65.2998 502.217 66.643 503.56 68.2998 503.56Z" fill="#D0C5B3"/>
<path d="M144.3 411.56C145.957 411.56 147.3 410.217 147.3 408.56C147.3 406.903 145.957 405.56 144.3 405.56C142.643 405.56 141.3 406.903 141.3 408.56C141.3 410.217 142.643 411.56 144.3 411.56Z" fill="#D0C5B3"/>
<path d="M205.3 413.56C206.957 413.56 208.3 412.217 208.3 410.56C208.3 408.903 206.957 407.56 205.3 407.56C203.643 407.56 202.3 408.903 202.3 410.56C202.3 412.217 203.643 413.56 205.3 413.56Z" fill="#D0C5B3"/>
<path d="M167.3 385.56C168.957 385.56 170.3 384.217 170.3 382.56C170.3 380.903 168.957 379.56 167.3 379.56C165.643 379.56 164.3 380.903 164.3 382.56C164.3 384.217 165.643 385.56 167.3 385.56Z" fill="#D0C5B3"/>
<path d="M128.41 80.5601C128.41 80.5601 119.01 32.9701 135.72 17.7801C152.43 2.59005 174.37 -6.51995 192.13 5.63005C209.89 17.7801 219.29 72.4601 219.29 72.4601L215.11 69.4201C215.11 69.4201 195.26 9.68005 182.72 8.67005C170.18 7.66005 151.38 5.63005 139.89 23.8601C128.4 42.0901 131.35 80.5601 131.35 80.5601H128.4H128.41Z" fill="#D0C5B3"/>
</g>
<defs>
<clipPath id="clip0_595_947">
<rect width="364.7" height="528.56" fill="white"/>
</clipPath>
</defs>
</svg>
